<?xml version="1.0" encoding="utf-8"?>
<!-- Generator: Adobe Illustrator 23.0.6, SVG Export Plug-In . SVG Version: 6.00 Build 0)  -->
<svg version="1.1" id="Layer_1" xmlns="http://www.w3.org/2000/svg" xmlns:xlink="http://www.w3.org/1999/xlink" x="0px" y="0px"
	 viewBox="0 0 116 175" style="enable-background:new 0 0 116 175;" xml:space="preserve">
<style type="text/css">
	.st0{fill:#FFD97A;}
	.st1{opacity:0.3;}
	.st2{fill:#FFAF37;}
	.st3{fill:#FFCA63;}
	.st4{clip-path:url(#SVGID_2_);}
	.st5{fill:#FFB20A;}
	.st6{fill:#FA8C29;}
</style>
<g>
	<rect x="0.5" y="1.3" class="st0" width="114.9" height="172.4"/>
	<g class="st1">
		<path class="st2" d="M83.9,129c-0.4-0.4-1-0.6-1.6-0.7c-0.6-0.1-1.1,0.1-1.6,0.4l0,0l0,0c0.2,0.1,0.5,0.2,0.7,0.2
			c0.2,0.1,0.4,0.2,0.6,0.3c0.2,0.1,0.3,0.2,0.5,0.3c0,0.1,0.1,0.1,0.1,0.1c0,0-0.1,0.1-0.1,0.1c-0.1,0.2-0.2,0.4-0.1,0.6
			c0.1,0.4,0.4,0.6,0.7,0.6l0,0l0,0c0.3,0.1,0.6,0.1,0.8,0c0.3-0.1,0.5-0.3,0.6-0.5c0.1-0.3,0-0.6-0.1-0.8
			C84.3,129.4,84.1,129.2,83.9,129z"/>
		<polygon class="st2" points="88.5,72.7 88.5,72.7 88.5,72.7 		"/>
		<path class="st2" d="M72.9,115.4C72.9,115.4,72.9,115.4,72.9,115.4C72.9,115.4,72.9,115.4,72.9,115.4
			C72.9,115.4,72.9,115.4,72.9,115.4z"/>
		<polygon class="st2" points="20.4,93.2 20.4,93.2 20.5,93.2 		"/>
		<polygon class="st2" points="44.2,102 44.2,102 44.2,102 		"/>
		<path class="st2" d="M95.3,83.3c-0.1,0-0.2,0-0.4,0l-0.7,0.1l-1.5,0.1l-3,0.2l-1,0.1c-1.7-1.9-3.3-3.9-4.8-6
			c0.2-0.3,0.3-0.5,0.5-0.8c0,0,0.1,0.1,0.1,0.1c0.1,0,0.2,0,0.3-0.1l0,0h0C85,77,85,76.9,85,76.8c0-0.1-0.1-0.2-0.2-0.3
			c-0.1-0.2-0.3-0.3-0.5-0.4c-0.3-0.2-0.6-0.3-0.9-0.4c0.2-1,0.4-2.1,0.6-3.1c0.7,0.1,1.4,0.3,2.1,0.5c0.4,0.1,0.7,0.2,1.1,0.4
			c0,0,0,0,0.1,0c-0.2,0-0.3,0-0.5,0c-0.2,0-0.4,0.1-0.5,0.2C86.2,73.7,86,73.8,86,74c0,0.2,0,0.4,0,0.6l0,0c0,0.2,0.1,0.3,0.3,0.4
			c0.2,0,0.4,0,0.5,0c0.4,0,0.7,0,1.1,0c0.3,0,0.7,0.1,1,0.2c0,0,0,0,0,0c1,0.3,2,0.8,2.8,1.5c0,0,0,0,0,0v0c0,0,0,0,0,0l0,0h0l0,0
			c0,0,0,0,0,0c0,0,0,0,0,0c0-0.1-0.1-0.1-0.1-0.2c0,0,0,0,0,0c-0.4-0.5-0.8-1.1-1.4-1.4c0.8,0.1,1.6,0.3,2.3,0.5l0,0l0,0
			c-1.3-0.7-2.7-1.4-4.1-1.8c0-0.1,0.1-0.2,0.1-0.3c0-0.1,0-0.3,0-0.4c0-0.1-0.1-0.3-0.1-0.4l0,0c0,0,0,0,0,0h0l0,0c0,0,0,0,0,0h0h0
			c0,0,0,0,0,0c-0.1-0.1-0.2-0.2-0.3-0.3c-0.2-0.1-0.3-0.2-0.5-0.3c-0.1-0.1-0.2-0.1-0.3-0.1c-0.1,0-0.2-0.1-0.3-0.1
			c-0.2-0.1-0.3-0.1-0.5-0.2c-0.2-0.1-0.4-0.1-0.5-0.2c-0.3-0.1-0.7-0.2-1.1-0.4c-0.2,0-0.3-0.1-0.5-0.2c0-0.1,0.1-0.3,0.1-0.4l0,0
			v0c0,0-0.1-0.1-0.1-0.1c0,0-0.1,0-0.1,0c0,0-0.1,0-0.1,0c0,0-0.1,0-0.1,0.1v0l0,0c-0.4,1.7-0.7,3.3-1.1,5c-0.2,0-0.3,0-0.5,0
			c-1.1-1.6-2.1-3.2-3-4.9c0,0,0,0,0-0.1c0.3-0.8,0.6-1.6,1.1-2.3c0,0,0,0,0,0c0.4-0.6,0.7-1.2,1.2-1.8c0,0,0,0,0-0.1
			c0.2-0.2,0.4-0.5,0.6-0.7c0.1-0.2,0.3-0.3,0.4-0.4c0.1-0.1,0.2-0.2,0.3-0.3l0.5-0.1l0.7-0.1c0.1,0,0.1,0,0.2,0
			c0.1,0,0.1-0.1,0.2-0.1c0.1-0.1,0.1-0.2,0.1-0.3l0,0c0,0,0,0,0,0l0,0c0-0.1-0.1-0.2-0.2-0.3c0,0,0,0-0.1,0c0,0,0,0,0,0
			c-0.1,0-0.2,0-0.2,0l-0.7,0.1l-1.3,0.1l-2.7,0.2l-3,0.3c-0.2-0.4-0.4-0.8-0.5-1.3c-1-2.5-1.9-5.1-2.5-7.7c0-0.1,0.1-0.2,0.1-0.3
			c0.7,0.2,1.4,0.4,2.1,0.6c0.4,0.1,0.7,0.3,1.1,0.4c0,0,0,0,0.1,0c-0.2,0-0.3-0.1-0.5-0.1c-0.2,0-0.4,0-0.5,0.1
			c-0.2,0.1-0.3,0.3-0.3,0.5c0,0.2,0,0.4,0,0.6h0c0,0,0,0,0,0c0,0,0,0.1,0,0.1c0,0,0,0.1,0,0.1c0,0,0,0,0.1,0c0,0,0,0,0.1,0.1
			c0,0,0,0,0.1,0c0,0,0,0,0,0c0.1,0,0.2,0,0.3,0c0.3,0,0.5,0,0.8,0c0.5,0,1.1,0.2,1.6,0.3c0,0,0,0,0,0c0.2,0.1,0.5,0.2,0.7,0.3
			c0,0,0.1,0,0.1,0.1c0.2,0.1,0.4,0.2,0.6,0.3c0.1,0,0.1,0.1,0.2,0.1c0.2,0.1,0.3,0.2,0.5,0.4c0.1,0.1,0.2,0.2,0.3,0.2
			c0.1,0.1,0.3,0.2,0.4,0.3l0,0l0,0c-0.1-0.2-0.1-0.4-0.2-0.5c-0.1-0.2-0.2-0.3-0.3-0.5c-0.1-0.1-0.3-0.3-0.4-0.4
			c-0.1-0.1-0.3-0.2-0.5-0.3c0.8,0.2,1.5,0.3,2.3,0.6l0,0c-0.1-0.1-0.3-0.2-0.4-0.2c0,0,0,0,0,0c-1.1-0.7-2.3-1.3-3.6-1.7
			c0.1-0.1,0.1-0.2,0.1-0.3c0-0.1,0-0.3,0-0.4c0-0.1,0-0.3-0.1-0.4l0,0c0,0,0,0,0,0c-0.1-0.1-0.2-0.2-0.3-0.3
			c-0.2-0.1-0.3-0.3-0.5-0.4c-0.1-0.1-0.2-0.1-0.3-0.1c-0.1,0-0.2-0.1-0.3-0.1c-0.1-0.1-0.3-0.1-0.4-0.2c-0.2-0.1-0.4-0.1-0.5-0.2
			c-0.3-0.1-0.7-0.3-1.1-0.4c-0.1-0.1-0.3-0.1-0.4-0.2l0,0c0.1-0.2,0.1-0.5,0.2-0.7l0,0l0,0c0-0.1-0.1-0.1-0.1-0.2
			c0,0-0.1-0.1-0.1-0.1c0,0-0.1,0-0.2,0c-0.1,0-0.1,0-0.2,0.1l0,0l0,0c-0.3,0.9-0.6,1.9-0.9,2.8c-1.2,1.2-2.5,2.3-3.8,3.4
			c-1.3,1.1-2.7,2-4.2,2.9l-2.4,0.2l-2.6,0.2c-0.4-3.5-0.7-7-1-10.5c0.1-0.3,0.2-0.7,0.2-1c1,0.3,2,0.7,2.9,1.2
			c0.9,0.6,1.7,1.3,2.5,2c0.4,0.3,0.8,0.7,1.3,1c0.4,0.3,0.9,0.6,1.4,0.8c0.8,0.3,1.8,0.5,2.7,0.6c0,0,0.1,0,0.1,0
			c0.1,0,0.2,0,0.3,0v0l0,0c-0.3-1-0.5-2-0.4-3.1c0.1-0.5,0.2-1,0.4-1.5c0.2-0.5,0.5-0.9,0.9-1.3l0,0l0,0c-1-0.2-2-0.5-2.9-1
			c-0.9-0.5-1.7-1.1-2.6-1.7c-0.8-0.6-1.6-1.2-2.5-1.7c-0.9-0.5-1.9-0.8-2.9-0.9c0.1-0.4,0.2-0.7,0.3-1.1l0,0l0,0
			c0-0.1-0.1-0.1-0.1-0.2c0,0-0.1-0.1-0.2-0.1c-0.1,0-0.1,0-0.2,0c-0.1,0-0.1,0-0.2,0.1l0,0l0,0c-0.3,1-0.5,2.1-0.8,3.1l0.2-0.9l0,0
			l-0.4,2c-0.3,1.1-0.5,2.2-0.8,3.2L50.5,63l-1,0.1l-3.2,0.2l-1.6,0.1l-0.8,0.1c-0.1,0-0.3,0-0.4,0.1c0,0,0,0-0.1,0.1c0,0,0,0,0,0
			c0,0,0,0.1-0.1,0.1c0,0,0,0,0,0c0,0,0,0.1,0,0.1h0l0,0l0,0c0,0.1,0.1,0.3,0.2,0.4c0.1,0,0.1,0.1,0.2,0.1H44l0.4,0
			c-1.1,1.9-1.7,4.1-1.8,6.3c-0.1,1.4,0,2.7,0.2,4.1l-3.1,4.8l-0.5,0l-3.9,0.2L33.4,80l-1,0.1c-0.2,0-0.3,0-0.5,0.1c0,0,0,0,0,0
			c0,0-0.1,0.1-0.1,0.1c0,0,0,0.1-0.1,0.1c0,0,0,0.1,0,0.1c0,0,0,0.1,0,0.1h0l0,0h0c0,0.2,0.1,0.4,0.3,0.4c0.2,0,0.3,0,0.5,0l1,0
			l0.4,0c-0.7,1.3-0.9,2.8-1.1,4.2c-0.2,1.5-0.2,3.1-0.1,4.6c0,0.3,0.1,0.5,0.1,0.8l-3,4.6c-2.1-0.8-4.2-1.6-6.3-2.4l0,0l0,0
			l-0.2,0.5l0,0l0,0c0.1,0,0.2,0.1,0.3,0.1c-0.1,0.1-0.2,0.1-0.2,0.2l-1.2-0.3l-0.9-0.2c-0.1-0.1-0.3-0.1-0.5,0
			c-0.1,0.1-0.3,0.2-0.3,0.4l0,0c0,0,0,0,0,0l0,0l0,0c0,0.2,0,0.3,0.1,0.4c0.1,0.1,0.2,0.2,0.4,0.2l0.9,0.2l0.9,0.2l0,0
			c-0.3,0.9-0.4,1.8-0.2,2.8c0.1,0.5,0.2,0.9,0.4,1.4c0.2,0.4,0.4,0.9,0.7,1.2l0,0l0,0c1.1,0.8,2.4,1.3,3.7,1.8
			c1.3,0.5,2.6,0.9,3.9,1.2l0,0v0l3.7-0.4c-0.1,0.3-0.2,0.5-0.4,0.8c-0.4,0.7-0.7,1.4-0.9,2.1c-0.1,0-0.2,0.1-0.3,0.2l0,0l0,0
			c-0.1,0.1,0,0.3,0.1,0.4c-0.2,0.6-0.2,1.3-0.3,1.9c0,0,0,0,0,0.1c0,0,0,0,0,0c-0.1-0.1-0.3-0.2-0.5-0.2c-0.3-0.1-0.6-0.1-0.9,0.1
			c-0.1,0-0.1,0.1-0.1,0.1c0,0,0,0-0.1,0.1c-0.1,0.1-0.2,0.2-0.2,0.3c0,0,0,0.1-0.1,0.1c0,0.1-0.1,0.1-0.1,0.2c0,0.1,0,0.1,0,0.2
			c0,0,0,0,0,0.1c0,0.2,0,0.4,0,0.6c0,0-0.1,0.1-0.1,0.1c0,0,0,0,0,0c-0.3-0.3-0.8-0.5-1.3-0.4c-0.3,0-0.5,0.1-0.8,0.3
			c-0.2,0.2-0.4,0.4-0.5,0.7c-0.1,0.3-0.2,0.6-0.1,0.8c0.1,0.3,0.2,0.6,0.4,0.8c0.4,0.4,0.9,0.4,1.3,0.3c-0.2,0.2-0.3,0.4-0.4,0.6
			c-0.4,0.1-0.7,0.3-1,0.6c-0.3,0.3-0.4,0.7-0.5,1.1c-0.2,0.8-0.1,1.7,0.3,2.4c0.4,0.7,1.2,1.1,2,1.3c0.8,0.1,1.6,0.1,2.3-0.1
			c0.6,0.1,1.3,0.1,1.9-0.1c0,0,0,0,0,0c0.3,0.8,1.2,1.1,2,1.1c0.4,0,0.8-0.1,1.1-0.3c0.3-0.2,0.6-0.6,0.6-1
			c0.1,0.1,0.3,0.2,0.4,0.3l0,0c0.2,1,0.7,2,1.3,2.8c0.6,0.8,1.4,1.5,2.4,1.9c1,0.4,2.1,0.4,3.1,0.2c1-0.2,2-0.6,2.8-1.2l0.7,0.2
			l1.6,0.4c0.8,0.2,1.6,0.4,2.3,0.6c0.6,0.8,1.3,1.4,2.2,1.9c0.8,0.5,1.7,0.9,2.7,1.1c0.9,0.3,1.9,0.4,2.9,0.5
			c0.9,0.1,1.9,0,2.8-0.2c0.1,0.1,0.2,0.1,0.3,0.2c0.2,0.2,0.5,0.4,0.6,0.6c0.2,0.2,0.4,0.5,0.3,0.7c-0.1,0.1-0.3,0.2-0.3,0.4
			c0,0.2,0,0.4,0.1,0.5l0,0l0,0c0.2,0.3,0.5,0.5,0.9,0.5c0.2,0,0.4,0,0.5-0.1c0.2,0,0.3-0.1,0.5-0.3c0,0,0.1-0.1,0.1-0.1
			c0,0.4,0.2,0.8,0.5,1c0.4,0.3,0.9,0.5,1.5,0.4c0.3,0,0.5-0.1,0.7-0.3c0.2-0.1,0.4-0.3,0.5-0.6c0.3-0.5,0.3-1,0.2-1.5
			c-0.2-0.6-0.5-1.2-1-1.6c0.4-0.4,1-0.7,1.5-0.8c0.6-0.2,1.1-0.3,1.7-0.3c0.6,0,1.2,0,1.7,0.2c0.5,0.2,1,0.5,1.3,1
			c-0.1,0-0.1-0.1-0.2-0.1c-0.3-0.1-0.6-0.1-0.9,0c-0.3,0.1-0.5,0.3-0.6,0.6c-0.1,0.3-0.3,0.5-0.3,0.8c0,0.3,0.1,0.6,0.3,0.8
			c0.4,0.5,0.9,0.7,1.5,0.8c0.3,0,0.6,0,0.9-0.2c0.3-0.2,0.5-0.4,0.6-0.7c0.3-0.6,0.3-1.2,0.2-1.8c-0.1-0.6-0.3-1.2-0.7-1.7
			c-0.4-0.5-1-0.8-1.5-1.1c-0.4-0.1-0.7-0.2-1.1-0.3c0-0.4,0-0.8,0-1.3c0-0.2-0.1-0.5-0.1-0.7c0.8-0.7,1.8-1,2.9-1.1
			c1-0.1,2.1,0.1,3,0.7c0.4,0.3,0.8,0.7,1.1,1.1c0.3,0.4,0.5,0.9,0.6,1.4c0,0.3,0,0.5-0.1,0.8c-0.1,0.2-0.3,0.4-0.5,0.6
			c-0.4,0.3-0.9,0.4-1.4,0.5c0,0,0,0,0,0l0,0c0,0,0,0,0,0v0h0c0,0,0,0,0,0l0,0c0.7,0.6,1.5,0.9,2.4,1c0.4,0,0.9-0.1,1.3-0.3
			c0.4-0.3,0.7-0.6,0.9-1c0.2-0.4,0.3-0.8,0.4-1.3c0.1-0.4,0-0.9-0.1-1.3c-0.3-0.9-0.8-1.6-1.4-2.3c-1.3-1.3-2.9-2.1-4.7-2.3
			c-0.9-0.1-1.8,0-2.6,0.4c-0.8,0.3-1.4,0.8-2,1.5c0-0.4,0.1-0.9,0.1-1.3c0.1-0.4,0.1-0.9,0.2-1.3c0-0.2,0-0.4,0-0.6
			c0-0.2-0.1-0.4-0.3-0.5c0,0,0,0,0,0c0.5-1.1,1-2.2,1.5-3.3l1.1,0.2l1.2,0.2c0.1,0,0.2,0,0.3,0.1H77l0.1,0c0,0,0.1,0,0.2-0.1
			c0.2-0.1,0.4-0.3,0.4-0.5l0,0l0,0c0.1-0.2,0-0.4-0.1-0.6c0,0-0.1-0.1-0.1-0.1c0,0,0,0,0,0c-0.1-0.1-0.3-0.1-0.4-0.2l-0.2-0.1
			l1.7-0.4l0,0l0,0l0.9-1.9l0.8-1.8c0.1,0,0.1,0,0.2,0c0.2,0,0.4-0.2,0.4-0.4l0,0l0,0c0-0.2-0.1-0.4-0.2-0.5c0,0,0,0,0,0l1.3-2.9
			c0,0,0,0,0,0l1.2,0.2l0.3,0c0.1,0,0.2,0,0.4,0c0.3-0.1,0.4-0.3,0.4-0.5l0,0l0,0c0.1-0.2,0-0.3-0.1-0.5L81,88.3l0.3-1.4
			c0.3-0.1,0.6-0.3,0.8-0.4c0.5-0.4,0.9-0.8,1.2-1.4c0.2,0.5,0.6,0.9,1,1.2c0.5,0.3,1.2,0.5,1.8,0.5c0.6,0,1.3-0.2,1.8-0.6
			c0.5-0.4,0.9-0.9,1.1-1.5c0.3,0.4,0.6,0.7,1,0.9c0.5,0.3,1.1,0.5,1.8,0.5c0.6,0,1.3-0.2,1.7-0.7c0.5-0.4,0.8-1,0.9-1.6l0,0l0.5,0
			c0.1,0,0.2,0,0.4,0c0.1,0,0.2-0.2,0.2-0.3h0h0C95.6,83.4,95.4,83.3,95.3,83.3z M85,76.8C85,76.8,85,76.8,85,76.8
			C85,76.8,85,76.7,85,76.8C85,76.7,85,76.8,85,76.8z M85,76.9c0,0,0,0.1,0,0.1C84.9,77,85,76.9,85,76.9z M84.8,76.5
			C84.8,76.5,84.8,76.6,84.8,76.5C84.8,76.5,84.8,76.5,84.8,76.5C84.8,76.5,84.8,76.5,84.8,76.5z M90.3,75.1L90.3,75.1L90.3,75.1z
			 M23.9,93.3c0.6,0.2,1.2,0.5,1.8,0.7l-1.8-0.5C23.9,93.5,23.9,93.4,23.9,93.3z M27.9,95.9c-0.8-0.1-1.6-0.4-2.4-0.8l1.6,0.4
			l1.8,0.5C28.6,96,28.2,96,27.9,95.9z M72.9,115.4C72.9,115.4,72.9,115.4,72.9,115.4C72.9,115.4,72.9,115.4,72.9,115.4
			C72.9,115.4,72.9,115.4,72.9,115.4z M82.6,75.6C82.6,75.6,82.6,75.6,82.6,75.6C82.6,75.6,82.6,75.6,82.6,75.6z M73.3,55.7
			c0.2,1.3,0.6,2.6,1,3.9c0.4,1.3,0.9,2.6,1.4,3.8c0.2,0.4,0.3,0.8,0.5,1.2l-2.1,0.2l-3,0.3c0.4-1.9,0.9-3.8,1.3-5.8
			C72.6,58.1,73,56.9,73.3,55.7z M65.8,61.3c0.4-0.2,0.7-0.5,1.1-0.7c0.7-0.5,1.4-1,2.1-1.5c0.7-0.5,1.3-1.1,1.9-1.7
			c0.3-0.3,0.6-0.6,0.9-0.9c0.3-0.3,0.6-0.6,0.8-0.9c-0.3,1.2-0.7,2.4-1,3.7c-0.5,1.9-0.9,3.9-1.4,5.8l-1.6,0.1l-2,0.2
			c0.2-0.9,0.5-1.8,0.7-2.8l0.5-0.1c0.1,0,0.3,0,0.4-0.1c0.1-0.1,0.2-0.2,0.2-0.4h0h0h0c0-0.1-0.1-0.2-0.1-0.3c0,0,0,0,0,0
			c0,0,0,0-0.1-0.1c-0.1-0.1-0.3,0-0.4,0L67,61.8l-1.6,0.1l-0.7,0.1C65,61.7,65.4,61.5,65.8,61.3z M60,81.1c0.5-0.1,1-0.2,1.5-0.3
			c0.1,1.1,0.3,2.2,0.4,3.3l-1.1,0.1l-3.4,0.3l-0.8,0.1c0.2-0.9,0.4-1.7,0.6-2.6l0,0l0,0C58.2,81.6,59.1,81.4,60,81.1z M58.6,51.9
			l0.5,6.3l0.4,4.1l-3.1,0.2c0.3-1.3,0.5-2.6,0.8-3.9C57.6,56.4,58.1,54.2,58.6,51.9z M53,78.7c0.1-0.4,0.2-0.9,0.3-1.3l1.2-0.1
			l2.1-0.2c-0.1,0.5,0,1.2,0,1.3l-1.8,0.1L53,78.7z M55.4,103.9l-2.5-0.5l-4.4-0.9l-0.2-0.1c0.3-1.7,0.7-3.5,1-5.2c0,0,0.1,0,0.1,0
			c1.4,0.4,2.8,0.9,4.1,1.5c0,0.1,0,0.2,0.1,0.4c0,0.1,0,0.2,0,0.2c0.1,0.7,0.3,1.4,0.5,2.1C54.4,102.3,54.8,103.2,55.4,103.9z
			 M51,62.4l3.5-5.5l3.4-5.4c-0.5,2.3-1,4.6-1.5,6.9c-0.3,1.4-0.6,2.8-0.9,4.1L50.6,63L51,62.4z M42.9,75c0.1,0.7,0.3,1.5,0.5,2.2
			l-0.2,0l-0.8,0.1c-0.1,0-0.3,0-0.4,0.1c-0.1,0.1-0.2,0.3-0.2,0.4l0,0l0,0c0,0,0,0.1,0,0.1c0,0,0,0,0,0c0,0,0,0.1,0.1,0.1
			c0,0,0,0,0,0c0,0,0,0,0.1,0.1c0,0,0,0,0,0c0,0,0,0,0,0c0.1,0,0.2,0,0.4,0l0.8-0.1l1.6-0.1l3.2-0.2l4.2-0.3
			c-0.1,0.4-0.2,0.9-0.3,1.3l-5.1,0.3l-7,0.4L42.9,75z M38,96.5c1.2-0.4,2.5-0.5,3.8-0.5c2.2,0,4.4,0.4,6.5,0.9
			c-0.2,1-0.4,2-0.6,2.9l-0.9-0.2l-1.8-0.5l-3.5-0.9L36.8,97C37.2,96.8,37.6,96.6,38,96.5z M32.7,90.6c0.1,1.2,0.3,2.4,0.5,3.6
			c0.1,0.7,0.3,1.3,0.5,1.9l-3.4-0.9c-0.2-0.1-0.4-0.2-0.6-0.2L32.7,90.6z M30,99.4c0-0.6,0-1.2,0.2-1.8c0.1-0.4,0.3-0.8,0.6-1.1
			l3.3,0.9c0.1,0.4,0.3,0.8,0.5,1.1l0,0l-0.1,0.1c0.3,0.6,0.5,1.3,0.6,2l-5-0.4C30.1,100,30.1,99.7,30,99.4z M33.2,102.4l-2,0.3
			c0,0,0,0,0,0v0c0,0,0,0,0,0c-0.4-0.4-0.6-1-0.8-1.5c-0.1-0.3-0.2-0.6-0.2-0.9c0.4,0.1,0.8,0.1,1.3,0.2c0.4,0,0.9,0.1,1.3,0.1
			c0.4,0,0.9,0.1,1.3,0.1c0.4,0,0.7,0,1.1,0c0,0.5,0,1.1-0.2,1.6L33.2,102.4z M33.5,111.4C33.5,111.4,33.5,111.4,33.5,111.4
			C33.5,111.4,33.5,111.4,33.5,111.4z M34.7,115.2C34.7,115.3,34.7,115.3,34.7,115.2c-0.6,0-1.2-0.2-1.6-0.6
			c-0.2-0.2-0.4-0.4-0.5-0.7c-0.1-0.3-0.1-0.5-0.1-0.8c0.1-0.6,0.4-1,0.7-1.5c0-0.1,0.1-0.2,0.1-0.2c0,0.1,0.1,0.1,0.2,0.1l0,0
			c0.1,0.4,0.3,0.7,0.4,1c0.2,0.5,0.5,1,0.9,1.5c0,0,0,0,0,0l0.3,0.4c0,0,0.1,0.1,0.1,0.1c0,0,0,0,0.1,0.1
			C35.1,114.9,34.9,115,34.7,115.2z M43.2,100.9L43.2,100.9L43.2,100.9c-1.4-0.7-2.8-1.2-4.2-1.6c-0.7-0.2-1.4-0.4-2.2-0.5l-1.1-0.2
			c-0.2,0-0.4,0-0.6-0.1c0.1-0.3,0.3-0.5,0.5-0.7l5.6,1.5l3.5,0.9l1.8,0.5l0.6,0.2l-1.9,0.2l-1.8,0.2
			C43.3,101.1,43.3,101,43.2,100.9z M44.2,102L44.2,102L44.2,102c0,0.2,0.1,0.4,0.3,0.5c0.2,0.1,0.4,0.1,0.6,0.1l1.1,0.2L47,103
			l-0.4,1.8l0,0l0,0c-0.6-0.6-1.2-1.2-1.7-1.8c-0.5-0.5-0.9-1.1-1.3-1.6l3.7-0.4l0.2,0.1c0,0,0,0,0.1,0c-0.2,0.7-0.2,1.2-0.3,1.3
			l-0.9-0.2l-1.1-0.2c-0.2,0-0.4-0.1-0.6-0.1C44.4,101.6,44.2,101.8,44.2,102L44.2,102L44.2,102z M50.2,105.6l-3-0.7l0.4-1.8
			l0.6,0.1l2.3,0.5L50.2,105.6z M54,106.4c-0.4-0.1-0.8-0.2-1.2-0.3l-1.8-0.4l0.4-1.8l1.3,0.3l1.7,0.4L54,106.4z M54.7,106.6
			l0.4-1.8l2,0.4l0.9,0.2l-0.4,1.9C56.6,107,55.7,106.8,54.7,106.6z M58.8,124.3c-0.5-0.2-1.1-0.5-1.6-0.7c0.2,0,0.3,0.1,0.5,0.1
			c0.2,0,0.4,0.1,0.5,0.1c0,0,0,0,0,0h0c0,0,0.1,0,0.1,0c0.2,0,0.4,0.1,0.7,0.1c0.9,0.3,1.7,0.6,2.5,1
			C60.6,124.9,59.6,124.6,58.8,124.3z M61.6,105.6c-0.2,0.2-0.4,0.4-0.6,0.6c-0.2,0.2-0.4,0.3-0.6,0.5l-0.2,0
			c-0.2-0.1-0.4-0.1-0.6-0.1c-0.2,0.1-0.4,0.2-0.4,0.4l0,0h0l0,0c-0.1,0.2,0,0.3,0,0.5c0,0-0.1,0.1-0.1,0.1
			c-0.3-0.1-0.5-0.1-0.8-0.2l0.4-1.8l-0.1,0l0,0l0.7,0.1l1.1,0.2L61,106c0.2,0,0.4-0.1,0.4-0.3l0,0l0,0c0-0.2-0.1-0.4-0.3-0.5
			c-0.2,0-0.4-0.1-0.5-0.1l-1.1-0.2l-2.2-0.5l-1.9-0.4c-0.2-0.4-0.3-0.8-0.5-1.2c0.7-0.4,1.5-0.6,2.3-0.8c0.5-0.1,1.1-0.2,1.6-0.3
			c0.3,0.2,0.6,0.4,0.9,0.6c0.8,0.5,1.5,1.1,2.2,1.7C61.9,104.4,61.7,105,61.6,105.6z M62.1,103.2c-0.1-0.1-0.1-0.1-0.2-0.2
			c-0.3-0.4-0.7-0.8-1-1.1c-0.2-0.2-0.3-0.4-0.5-0.6l0.3,0c0.6-0.1,1.2-0.1,1.7-0.1C62.4,101.9,62.2,102.6,62.1,103.2z M64.7,101.9
			L64.7,101.9L64.7,101.9c-0.1,0.1,0,0.3,0.1,0.4c-0.5,0.6-1.1,1.2-1.6,1.8c0,0,0,0,0,0c0.2-1,0.4-1.9,0.6-2.9l0.1,0
			c0.3,0,0.6,0,0.9,0c0,0.2,0.1,0.4,0.1,0.6C64.7,101.8,64.7,101.9,64.7,101.9L64.7,101.9z M65.2,101.7c-0.1,0-0.1,0-0.2-0.1
			c-0.1,0-0.2,0-0.3,0.1c0-0.2-0.1-0.4-0.1-0.6c0.2,0,0.4,0,0.6,0c0.1,0,0.3,0,0.4,0C65.5,101.4,65.4,101.5,65.2,101.7z M66.1,83.8
			L62,84.1c-0.1-1.1-0.3-2.2-0.4-3.4c0.4-0.1,0.7-0.1,1.1-0.2c1.4-0.2,2.8-0.4,4.2-0.4C66.7,81.3,66.4,82.6,66.1,83.8z M74.2,83.2
			l-6.7,0.5l0,0v0l-0.1,0l-0.3,0c0.2-1.2,0.5-2.4,0.7-3.6l0.3,0c0,0,0.1,0,0.1,0c1.9,0,3.7,0,5.6,0.2c0.9,0.1,1.9,0.2,2.8,0.4
			c0.9,0.1,1.8,0.3,2.8,0.5l0-0.1l0.3,1.7l-0.5,0l-1.7,0.1L74.2,83.2z M79.9,83.6l0,0.1l0.1,0.7l-2,0.2c0.3-0.3,0.6-0.6,1-0.9l0.3,0
			L79.9,83.6z M77.9,100.4l-3.1-0.9c-0.4-1.9-0.5-3.8-0.3-5.7c0.1-1.9,0.5-3.8,1.3-5.6c0.4-1,0.9-1.9,1.5-2.7
			c0.3,0.5,0.7,0.9,1.1,1.1c0.6,0.3,1.2,0.5,1.8,0.5c0.1,0,0.2,0,0.3,0L77.9,100.4z M81.6,91.8c0.4,1.8,0.8,3.6,1.2,5.3l0.6,2.7
			l0.7,2.6c0,0,0-0.1-0.1-0.1c-0.2-0.1-0.4-0.1-0.6-0.2l-1.2-0.4l-2.5-0.7l-1.1-0.3l0.1,0v0l0,0l2.3-11.9
			C81.1,89.8,81.3,90.8,81.6,91.8z M81.1,84.4l-0.9,0.1L80,83.6l0.1,0c0.1,0,0.3,0,0.4-0.1c0.1-0.1,0.2-0.3,0.2-0.4l0,0h0l0,0
			c0,0,0-0.1,0-0.1c0,0,0,0,0,0c0,0,0-0.1-0.1-0.1c0,0,0,0,0,0c0,0,0,0-0.1-0.1c-0.1-0.1-0.3,0-0.4,0l-0.3,0l-0.4-1.7l0,0l0,0
			c0,0,0,0,0,0l0-0.1c0,0-0.1,0-0.1-0.1c-0.6-1.3-0.9-2.7-1-4.1c-0.1-1.5,0.1-3,0.4-4.4c0.1-0.5,0.3-1,0.5-1.5
			c0.9,1.6,1.9,3.2,3,4.7c-0.1,0-0.2,0-0.3,0c-0.2,0-0.4,0.1-0.6,0.2c-0.1,0-0.2,0.1-0.3,0.2c-0.1,0.1-0.1,0.2,0,0.3l0,0
			c0,0.1,0.1,0.2,0.2,0.2c0,0,0,0,0,0l0.4,1.7l0.4,1.7h0L81.1,84.4z M81.1,75.8C81.1,75.9,81.1,75.9,81.1,75.8
			C81.1,75.9,81.1,75.9,81.1,75.8C81.1,75.9,81.1,75.9,81.1,75.8z M81,76c0,0,0,0.1,0,0.1C81,76.1,81,76,81,76z M83.9,84.2l-2.1,0.2
			l0.9-4.5c0.4-0.6,0.9-1.3,1.3-1.9c0.7,1,1.4,1.9,2.2,2.8c0.9,1,1.7,2,2.7,3L83.9,84.2z"/>
	</g>
	<g>
		<path class="st3" d="M0,175h116V0H0V175z M7.1,37.8c0-7.4,6-13.4,13.4-13.4h1.6C30.3,14.2,42.8,7.8,56.8,7.8h1.7
			c14,0,26.5,6.5,34.7,16.6h2.3c7.4,0,13.4,6,13.4,13.4v94.8c0,7.1-5.5,12.8-12.4,13.4c-7.8,12.8-21.9,21.3-38,21.3h-1.7
			c-16.1,0-30.2-8.6-38-21.4c-6.6-0.9-11.7-6.5-11.7-13.3V37.8z"/>
		<g>
			<defs>
				<path id="SVGID_1_" d="M0,0v175h116V0H0z M109.4,133.2c0,7.2-5.5,13-12.5,13.6c-7.9,13-22.1,21.6-38.3,21.6h-1.7
					c-16.3,0-30.5-8.7-38.4-21.7c-6.6-0.9-11.8-6.6-11.8-13.5V37c0-7.5,6.1-13.6,13.5-13.6h1.6C30,13.1,42.6,6.6,56.8,6.6h1.7
					c14.1,0,26.8,6.6,35,16.9h2.3c7.5,0,13.5,6.1,13.5,13.6V133.2z"/>
			</defs>
			<clipPath id="SVGID_2_">
				<use xlink:href="#SVGID_1_"  style="overflow:visible;"/>
			</clipPath>
			<g class="st4">
				<g>
					<ellipse class="st5" cx="4.1" cy="2.4" rx="1.2" ry="1.2"/>
					<ellipse class="st5" cx="14.9" cy="2.4" rx="1.2" ry="1.2"/>
					<ellipse class="st5" cx="25.7" cy="2.4" rx="1.2" ry="1.2"/>
					<ellipse class="st5" cx="36.5" cy="2.4" rx="1.2" ry="1.2"/>
					<ellipse class="st5" cx="47.3" cy="2.4" rx="1.2" ry="1.2"/>
					<ellipse class="st5" cx="58.1" cy="2.4" rx="1.2" ry="1.2"/>
					<ellipse class="st5" cx="68.9" cy="2.4" rx="1.2" ry="1.2"/>
					<ellipse class="st5" cx="79.7" cy="2.4" rx="1.2" ry="1.2"/>
					<ellipse class="st5" cx="90.5" cy="2.4" rx="1.2" ry="1.2"/>
					<ellipse class="st5" cx="101.3" cy="2.4" rx="1.2" ry="1.2"/>
					<ellipse class="st5" cx="112.1" cy="2.4" rx="1.2" ry="1.2"/>
					<ellipse class="st5" cx="4.1" cy="12.9" rx="1.2" ry="1.2"/>
					<ellipse class="st5" cx="14.9" cy="12.9" rx="1.2" ry="1.2"/>
					<ellipse class="st5" cx="25.7" cy="12.9" rx="1.2" ry="1.2"/>
					<ellipse class="st5" cx="90.5" cy="12.9" rx="1.2" ry="1.2"/>
					<ellipse class="st5" cx="101.3" cy="12.9" rx="1.2" ry="1.2"/>
					<ellipse class="st5" cx="112.1" cy="12.9" rx="1.2" ry="1.2"/>
					<ellipse class="st5" cx="4.1" cy="23.4" rx="1.2" ry="1.2"/>
					<ellipse class="st5" cx="14.9" cy="23.4" rx="1.2" ry="1.2"/>
					<ellipse class="st5" cx="101.3" cy="23.4" rx="1.2" ry="1.2"/>
					<ellipse class="st5" cx="112.1" cy="23.4" rx="1.2" ry="1.2"/>
					<ellipse class="st5" cx="4.1" cy="33.9" rx="1.2" ry="1.2"/>
					<ellipse class="st5" cx="112.1" cy="33.9" rx="1.2" ry="1.2"/>
					<ellipse class="st5" cx="4.1" cy="44.4" rx="1.2" ry="1.2"/>
					<ellipse class="st5" cx="112.1" cy="44.4" rx="1.2" ry="1.2"/>
					<ellipse class="st5" cx="4.1" cy="54.9" rx="1.2" ry="1.2"/>
					<ellipse class="st5" cx="112.1" cy="54.9" rx="1.2" ry="1.2"/>
					<ellipse class="st5" cx="4.1" cy="65.4" rx="1.2" ry="1.2"/>
					<ellipse class="st5" cx="112.1" cy="65.4" rx="1.2" ry="1.2"/>
					<ellipse class="st5" cx="4.1" cy="75.9" rx="1.2" ry="1.2"/>
					<ellipse class="st5" cx="112.1" cy="75.9" rx="1.2" ry="1.2"/>
					<ellipse class="st5" cx="4.1" cy="86.4" rx="1.2" ry="1.2"/>
					<ellipse class="st5" cx="112.1" cy="86.4" rx="1.2" ry="1.2"/>
					<ellipse class="st5" cx="4.1" cy="96.9" rx="1.2" ry="1.2"/>
					<ellipse class="st5" cx="112.1" cy="96.9" rx="1.2" ry="1.2"/>
					<ellipse class="st5" cx="4.1" cy="107.4" rx="1.2" ry="1.2"/>
					<ellipse class="st5" cx="112.1" cy="107.4" rx="1.2" ry="1.2"/>
					<ellipse class="st5" cx="4.1" cy="117.9" rx="1.2" ry="1.2"/>
					<ellipse class="st5" cx="112.1" cy="117.9" rx="1.2" ry="1.2"/>
					<ellipse class="st5" cx="4.1" cy="128.4" rx="1.2" ry="1.2"/>
					<ellipse class="st5" cx="112.1" cy="128.4" rx="1.2" ry="1.2"/>
					<ellipse class="st5" cx="4.1" cy="138.9" rx="1.2" ry="1.2"/>
					<ellipse class="st5" cx="112.1" cy="138.9" rx="1.2" ry="1.2"/>
					<ellipse class="st5" cx="4.1" cy="149.4" rx="1.2" ry="1.2"/>
					<ellipse class="st5" cx="14.9" cy="149.4" rx="1.2" ry="1.2"/>
					<ellipse class="st5" cx="101.3" cy="149.4" rx="1.2" ry="1.2"/>
					<ellipse class="st5" cx="112.1" cy="149.4" rx="1.2" ry="1.2"/>
					<ellipse class="st5" cx="4.1" cy="159.9" rx="1.2" ry="1.2"/>
					<ellipse class="st5" cx="14.9" cy="159.9" rx="1.2" ry="1.2"/>
					<ellipse class="st5" cx="90.5" cy="159.9" rx="1.2" ry="1.2"/>
					<ellipse class="st5" cx="101.3" cy="159.9" rx="1.2" ry="1.2"/>
					<ellipse class="st5" cx="112.1" cy="159.9" rx="1.2" ry="1.2"/>
					<ellipse class="st5" cx="4.1" cy="170.4" rx="1.2" ry="1.2"/>
					<ellipse class="st5" cx="14.9" cy="170.4" rx="1.2" ry="1.2"/>
					<ellipse class="st5" cx="25.7" cy="170.4" rx="1.2" ry="1.2"/>
					<ellipse class="st5" cx="36.5" cy="170.4" rx="1.2" ry="1.2"/>
					<ellipse class="st5" cx="47.3" cy="170.4" rx="1.2" ry="1.2"/>
					<ellipse class="st5" cx="58.1" cy="170.4" rx="1.2" ry="1.2"/>
					<ellipse class="st5" cx="68.9" cy="170.4" rx="1.2" ry="1.2"/>
					<ellipse class="st5" cx="79.7" cy="170.4" rx="1.2" ry="1.2"/>
					<ellipse class="st5" cx="90.5" cy="170.4" rx="1.2" ry="1.2"/>
					<ellipse class="st5" cx="101.3" cy="170.4" rx="1.2" ry="1.2"/>
					<ellipse class="st5" cx="112.1" cy="170.4" rx="1.2" ry="1.2"/>
				</g>
				<g>
					<path class="st5" d="M12.1,5l-0.6-0.6c-0.1-0.1-0.2-0.1-0.2,0c-0.1,0.1,0,0.1,0,0.2C11.4,5,10.5,6.2,9.8,7
						C9.1,6.2,8.3,5.2,8.4,4.8c0-0.1,0.1-0.2,0-0.2c-0.1-0.1-0.2-0.1-0.2,0L7.6,5.2L6.9,5.9C6.8,5.9,6.8,6,6.9,6.1
						c0.1,0.1,0.1,0,0.2,0c0.4-0.1,1.4,0.6,2.2,1.3C8.5,8.2,7.4,9.1,7,9c-0.1,0-0.2-0.1-0.2,0C6.7,9,6.7,9.1,6.8,9.2l0.6,0.6
						l0.6,0.6c0.1,0.1,0.2,0.1,0.2,0c0.1-0.1,0-0.2,0-0.2C8.1,9.8,9,8.6,9.7,7.8c0.7,0.7,1.5,1.8,1.3,2.2c0,0.1-0.1,0.2,0,0.2
						c0.1,0.1,0.2,0.1,0.2,0l0.6-0.7l0.6-0.6c0.1-0.1,0.1-0.2,0-0.2c-0.1-0.1-0.1,0-0.2,0c-0.4,0.1-1.4-0.6-2.2-1.3
						c0.8-0.8,1.9-1.6,2.3-1.5c0.1,0,0.2,0.1,0.2,0c0.1-0.1,0.1-0.2,0-0.2L12.1,5z"/>
					<path class="st5" d="M1.1,5L0.6,4.4c-0.1-0.1-0.2-0.1-0.2,0c-0.1,0.1,0,0.1,0,0.2C0.4,5-0.5,6.2-1.2,7
						c-0.7-0.7-1.5-1.8-1.3-2.2c0-0.1,0.1-0.2,0-0.2c-0.1-0.1-0.2-0.1-0.2,0l-0.6,0.6l-0.6,0.7c-0.1,0.1-0.1,0.2,0,0.2
						c0.1,0.1,0.1,0,0.2,0c0.4-0.1,1.4,0.6,2.2,1.3C-2.5,8.2-3.6,9.1-4,9c-0.1,0-0.2-0.1-0.2,0c-0.1,0.1-0.1,0.2,0,0.2l0.6,0.6
						l0.6,0.6c0.1,0.1,0.2,0.1,0.2,0c0.1-0.1,0-0.2,0-0.2C-2.9,9.8-2,8.6-1.3,7.8c0.7,0.7,1.5,1.8,1.3,2.2c0,0.1-0.1,0.2,0,0.2
						c0.1,0.1,0.2,0.1,0.2,0l0.6-0.7l0.6-0.6c0.1-0.1,0.1-0.2,0-0.2c-0.1-0.1-0.1,0-0.2,0C1,8.9-0.1,8.1-0.8,7.4
						C0,6.6,1.1,5.7,1.5,5.8c0.1,0,0.2,0.1,0.2,0c0.1-0.1,0.1-0.2,0-0.2L1.1,5z"/>
					<path class="st5" d="M22.9,5l-0.6-0.6c-0.1-0.1-0.2-0.1-0.2,0c-0.1,0.1,0,0.1,0,0.2C22.1,5,21.3,6.2,20.5,7
						c-0.7-0.7-1.5-1.8-1.3-2.2c0-0.1,0.1-0.2,0-0.2c-0.1-0.1-0.2-0.1-0.2,0l-0.6,0.6l-0.6,0.7c-0.1,0.1-0.1,0.2,0,0.2
						c0.1,0.1,0.1,0,0.2,0c0.4-0.1,1.4,0.6,2.2,1.3c-0.8,0.8-1.9,1.6-2.3,1.5c-0.1,0-0.2-0.1-0.2,0c-0.1,0.1-0.1,0.2,0,0.2l0.6,0.6
						l0.6,0.6c0.1,0.1,0.2,0.1,0.2,0c0.1-0.1,0-0.2,0-0.2c-0.1-0.4,0.8-1.5,1.5-2.3c0.7,0.7,1.5,1.8,1.3,2.2c0,0.1-0.1,0.2,0,0.2
						c0.1,0.1,0.2,0.1,0.2,0l0.6-0.7l0.6-0.6c0.1-0.1,0.1-0.2,0-0.2c-0.1-0.1-0.1,0-0.2,0c-0.4,0.1-1.4-0.6-2.2-1.3
						c0.8-0.8,1.9-1.6,2.3-1.5c0.1,0,0.2,0.1,0.2,0c0.1-0.1,0.1-0.2,0-0.2L22.9,5z"/>
					<path class="st5" d="M33.6,5L33,4.4c-0.1-0.1-0.2-0.1-0.2,0c-0.1,0.1,0,0.1,0,0.2C32.9,5,32,6.2,31.2,7
						c-0.7-0.7-1.5-1.8-1.3-2.2c0-0.1,0.1-0.2,0-0.2c-0.1-0.1-0.2-0.1-0.2,0L29,5.2l-0.6,0.7c-0.1,0.1-0.1,0.2,0,0.2
						c0.1,0.1,0.1,0,0.2,0c0.4-0.1,1.4,0.6,2.2,1.3C30,8.2,28.9,9.1,28.5,9c-0.1,0-0.2-0.1-0.2,0c-0.1,0.1-0.1,0.2,0,0.2l0.6,0.6
						l0.6,0.6c0.1,0.1,0.2,0.1,0.2,0c0.1-0.1,0-0.2,0-0.2c-0.1-0.4,0.8-1.5,1.5-2.3c0.7,0.7,1.5,1.8,1.3,2.2c0,0.1-0.1,0.2,0,0.2
						c0.1,0.1,0.2,0.1,0.2,0l0.6-0.7l0.6-0.6c0.1-0.1,0.1-0.2,0-0.2c-0.1-0.1-0.1,0-0.2,0c-0.4,0.1-1.4-0.6-2.2-1.3
						c0.8-0.8,1.9-1.6,2.3-1.5c0.1,0,0.2,0.1,0.2,0c0.1-0.1,0.1-0.2,0-0.2L33.6,5z"/>
					<path class="st5" d="M44.4,5l-0.6-0.6c-0.1-0.1-0.2-0.1-0.2,0c-0.1,0.1,0,0.1,0,0.2C43.6,5,42.8,6.2,42,7
						c-0.7-0.7-1.5-1.8-1.3-2.2c0-0.1,0.1-0.2,0-0.2c-0.1-0.1-0.2-0.1-0.2,0l-0.6,0.6l-0.6,0.7c-0.1,0.1-0.1,0.2,0,0.2
						c0.1,0.1,0.1,0,0.2,0c0.4-0.1,1.4,0.6,2.2,1.3c-0.8,0.8-1.9,1.6-2.3,1.5c-0.1,0-0.2-0.1-0.2,0c-0.1,0.1-0.1,0.2,0,0.2l0.6,0.6
						l0.6,0.6c0.1,0.1,0.2,0.1,0.2,0c0.1-0.1,0-0.2,0-0.2c-0.1-0.4,0.8-1.5,1.5-2.3c0.7,0.7,1.5,1.8,1.3,2.2c0,0.1-0.1,0.2,0,0.2
						c0.1,0.1,0.2,0.1,0.2,0l0.6-0.7l0.6-0.6c0.1-0.1,0.1-0.2,0-0.2c-0.1-0.1-0.1,0-0.2,0c-0.4,0.1-1.4-0.6-2.2-1.3
						c0.8-0.8,1.9-1.6,2.3-1.5c0.1,0,0.2,0.1,0.2,0c0.1-0.1,0.1-0.2,0-0.2L44.4,5z"/>
					<path class="st5" d="M55.1,5l-0.6-0.6c-0.1-0.1-0.2-0.1-0.2,0c-0.1,0.1,0,0.1,0,0.2C54.4,5,53.5,6.2,52.7,7
						c-0.7-0.7-1.5-1.8-1.3-2.2c0-0.1,0.1-0.2,0-0.2c-0.1-0.1-0.2-0.1-0.2,0l-0.6,0.6l-0.6,0.7c-0.1,0.1-0.1,0.2,0,0.2
						c0.1,0.1,0.1,0,0.2,0c0.4-0.1,1.4,0.6,2.2,1.3C51.5,8.2,50.4,9.1,50,9c-0.1,0-0.2-0.1-0.2,0c-0.1,0.1-0.1,0.2,0,0.2l0.6,0.6
						l0.6,0.6c0.1,0.1,0.2,0.1,0.2,0c0.1-0.1,0-0.2,0-0.2c-0.1-0.4,0.8-1.5,1.5-2.3c0.7,0.7,1.5,1.8,1.3,2.2c0,0.1-0.1,0.2,0,0.2
						c0.1,0.1,0.2,0.1,0.2,0l0.6-0.7l0.6-0.6c0.1-0.1,0.1-0.2,0-0.2c-0.1-0.1-0.1,0-0.2,0c-0.4,0.1-1.4-0.6-2.2-1.3
						c0.8-0.8,1.9-1.6,2.3-1.5c0.1,0,0.2,0.1,0.2,0c0.1-0.1,0.1-0.2,0-0.2L55.1,5z"/>
					<path class="st5" d="M65.8,5l-0.6-0.6c-0.1-0.1-0.2-0.1-0.2,0c-0.1,0.1,0,0.1,0,0.2C65.1,5,64.2,6.2,63.5,7
						c-0.7-0.7-1.5-1.8-1.3-2.2c0-0.1,0.1-0.2,0-0.2c-0.1-0.1-0.2-0.1-0.2,0l-0.6,0.6l-0.6,0.7c-0.1,0.1-0.1,0.2,0,0.2
						c0.1,0.1,0.1,0,0.2,0c0.4-0.1,1.4,0.6,2.2,1.3c-0.8,0.8-1.9,1.6-2.3,1.5c-0.1,0-0.2-0.1-0.2,0c-0.1,0.1-0.1,0.2,0,0.2l0.6,0.6
						l0.6,0.6c0.1,0.1,0.2,0.1,0.2,0c0.1-0.1,0-0.2,0-0.2c-0.1-0.4,0.8-1.5,1.5-2.3c0.7,0.7,1.5,1.8,1.3,2.2c0,0.1-0.1,0.2,0,0.2
						c0.1,0.1,0.2,0.1,0.2,0l0.6-0.7l0.6-0.6c0.1-0.1,0.1-0.2,0-0.2c-0.1-0.1-0.1,0-0.2,0c-0.4,0.1-1.4-0.6-2.2-1.3
						c0.8-0.8,1.9-1.6,2.3-1.5c0.1,0,0.2,0.1,0.2,0c0.1-0.1,0.1-0.2,0-0.2L65.8,5z"/>
					<path class="st5" d="M76.6,5L76,4.4c-0.1-0.1-0.2-0.1-0.2,0c-0.1,0.1,0,0.1,0,0.2C75.8,5,75,6.2,74.2,7
						c-0.7-0.7-1.5-1.8-1.3-2.2c0-0.1,0.1-0.2,0-0.2c-0.1-0.1-0.2-0.1-0.2,0L72,5.2l-0.6,0.7c-0.1,0.1-0.1,0.2,0,0.2
						c0.1,0.1,0.1,0,0.2,0C72,5.9,73,6.7,73.8,7.4C73,8.2,71.9,9.1,71.5,9c-0.1,0-0.2-0.1-0.2,0c-0.1,0.1-0.1,0.2,0,0.2l0.6,0.6
						l0.6,0.6c0.1,0.1,0.2,0.1,0.2,0c0.1-0.1,0-0.2,0-0.2c-0.1-0.4,0.8-1.5,1.5-2.3c0.7,0.7,1.5,1.8,1.3,2.2c0,0.1-0.1,0.2,0,0.2
						c0.1,0.1,0.2,0.1,0.2,0l0.6-0.7L77,8.9c0.1-0.1,0.1-0.2,0-0.2c-0.1-0.1-0.1,0-0.2,0c-0.4,0.1-1.4-0.6-2.2-1.3
						c0.8-0.8,1.9-1.6,2.3-1.5c0.1,0,0.2,0.1,0.2,0c0.1-0.1,0.1-0.2,0-0.2L76.6,5z"/>
					<path class="st5" d="M87.3,5l-0.6-0.6c-0.1-0.1-0.2-0.1-0.2,0c-0.1,0.1,0,0.1,0,0.2C86.6,5,85.7,6.2,84.9,7
						c-0.7-0.7-1.5-1.8-1.3-2.2c0-0.1,0.1-0.2,0-0.2c-0.1-0.1-0.2-0.1-0.2,0l-0.6,0.6l-0.6,0.7C82,5.9,82,6,82.1,6.1
						c0.1,0.1,0.1,0,0.2,0c0.4-0.1,1.4,0.6,2.2,1.3c-0.8,0.8-1.9,1.6-2.3,1.5c-0.1,0-0.2-0.1-0.2,0c-0.1,0.1-0.1,0.2,0,0.2l0.6,0.6
						l0.6,0.6c0.1,0.1,0.2,0.1,0.2,0c0.1-0.1,0-0.2,0-0.2c-0.1-0.4,0.8-1.5,1.5-2.3c0.7,0.7,1.5,1.8,1.3,2.2c0,0.1-0.1,0.2,0,0.2
						c0.1,0.1,0.2,0.1,0.2,0l0.6-0.7l0.6-0.6c0.1-0.1,0.1-0.2,0-0.2c-0.1-0.1-0.1,0-0.2,0c-0.4,0.1-1.4-0.6-2.2-1.3
						c0.8-0.8,1.9-1.6,2.3-1.5c0.1,0,0.2,0.1,0.2,0c0.1-0.1,0.1-0.2,0-0.2L87.3,5z"/>
					<path class="st5" d="M98.1,5l-0.6-0.6c-0.1-0.1-0.2-0.1-0.2,0c-0.1,0.1,0,0.1,0,0.2C97.3,5,96.5,6.2,95.7,7
						c-0.7-0.7-1.5-1.8-1.3-2.2c0-0.1,0.1-0.2,0-0.2c-0.1-0.1-0.2-0.1-0.2,0l-0.6,0.6l-0.6,0.7c-0.1,0.1-0.1,0.2,0,0.2
						c0.1,0.1,0.1,0,0.2,0c0.4-0.1,1.4,0.6,2.2,1.3c-0.8,0.8-1.9,1.6-2.3,1.5c-0.1,0-0.2-0.1-0.2,0c-0.1,0.1-0.1,0.2,0,0.2l0.6,0.6
						l0.6,0.6c0.1,0.1,0.2,0.1,0.2,0c0.1-0.1,0-0.2,0-0.2c-0.1-0.4,0.8-1.5,1.5-2.3c0.7,0.7,1.5,1.8,1.3,2.2c0,0.1-0.1,0.2,0,0.2
						c0.1,0.1,0.2,0.1,0.2,0l0.6-0.7l0.6-0.6c0.1-0.1,0.1-0.2,0-0.2c-0.1-0.1-0.1,0-0.2,0c-0.4,0.1-1.4-0.6-2.2-1.3
						c0.8-0.8,1.9-1.6,2.3-1.5c0.1,0,0.2,0.1,0.2,0c0.1-0.1,0.1-0.2,0-0.2L98.1,5z"/>
					<path class="st5" d="M108.8,5l-0.6-0.6c-0.1-0.1-0.2-0.1-0.2,0c-0.1,0.1,0,0.1,0,0.2c0.1,0.4-0.8,1.5-1.5,2.3
						c-0.7-0.7-1.5-1.8-1.3-2.2c0-0.1,0.1-0.2,0-0.2c-0.1-0.1-0.2-0.1-0.2,0l-0.6,0.6l-0.6,0.7c-0.1,0.1-0.1,0.2,0,0.2
						c0.1,0.1,0.1,0,0.2,0c0.4-0.1,1.4,0.6,2.2,1.3c-0.8,0.8-1.9,1.6-2.3,1.5c-0.1,0-0.2-0.1-0.2,0c-0.1,0.1-0.1,0.2,0,0.2l0.6,0.6
						l0.6,0.6c0.1,0.1,0.2,0.1,0.2,0c0.1-0.1,0-0.2,0-0.2c-0.1-0.4,0.8-1.5,1.5-2.3c0.7,0.7,1.5,1.8,1.3,2.2c0,0.1-0.1,0.2,0,0.2
						c0.1,0.1,0.2,0.1,0.2,0l0.6-0.7l0.6-0.6c0.1-0.1,0.1-0.2,0-0.2c-0.1-0.1-0.1,0-0.2,0c-0.4,0.1-1.4-0.6-2.2-1.3
						c0.8-0.8,1.9-1.6,2.3-1.5c0.1,0,0.2,0.1,0.2,0c0.1-0.1,0.1-0.2,0-0.2L108.8,5z"/>
					<path class="st5" d="M115.8,4.8c0-0.1,0.1-0.2,0-0.2c-0.1-0.1-0.2-0.1-0.2,0L115,5.2l-0.6,0.7c-0.1,0.1-0.1,0.2,0,0.2
						c0.1,0.1,0.1,0,0.2,0c0.3-0.1,0.9,0.3,1.5,0.7V5.4C115.9,5.1,115.8,4.9,115.8,4.8z"/>
					<path class="st5" d="M114.4,9c-0.1,0-0.2-0.1-0.2,0c-0.1,0.1-0.1,0.2,0,0.2l0.6,0.6l0.6,0.6c0.1,0.1,0.2,0.1,0.2,0
						c0.1-0.1,0-0.2,0-0.2c0-0.2,0.1-0.5,0.4-0.9V8.1C115.4,8.6,114.7,9,114.4,9z"/>
					<path class="st5" d="M12.1,15.5l-0.6-0.6c-0.1-0.1-0.2-0.1-0.2,0c-0.1,0.1,0,0.1,0,0.2c0.1,0.4-0.8,1.5-1.5,2.3
						c-0.7-0.7-1.5-1.8-1.3-2.2c0-0.1,0.1-0.2,0-0.2c-0.1-0.1-0.2-0.1-0.2,0l-0.6,0.6l-0.6,0.7c-0.1,0.1-0.1,0.2,0,0.2
						c0.1,0.1,0.1,0,0.2,0c0.4-0.1,1.4,0.6,2.2,1.3c-0.8,0.8-1.9,1.6-2.3,1.5c-0.1,0-0.2-0.1-0.2,0c-0.1,0.1-0.1,0.2,0,0.2l0.6,0.6
						l0.6,0.6C8,21,8.1,21,8.2,20.9c0.1-0.1,0-0.2,0-0.2c-0.1-0.4,0.8-1.5,1.5-2.3c0.7,0.7,1.5,1.8,1.3,2.2c0,0.1-0.1,0.2,0,0.2
						c0.1,0.1,0.2,0.1,0.2,0l0.6-0.7l0.6-0.6c0.1-0.1,0.1-0.2,0-0.2c-0.1-0.1-0.1,0-0.2,0c-0.4,0.1-1.4-0.6-2.2-1.3
						c0.8-0.8,1.9-1.6,2.3-1.5c0.1,0,0.2,0.1,0.2,0c0.1-0.1,0.1-0.2,0-0.2L12.1,15.5z"/>
					<path class="st5" d="M1.1,15.5l-0.6-0.6c-0.1-0.1-0.2-0.1-0.2,0c-0.1,0.1,0,0.1,0,0.2c0.1,0.4-0.8,1.5-1.5,2.3
						c-0.7-0.7-1.5-1.8-1.3-2.2c0-0.1,0.1-0.2,0-0.2c-0.1-0.1-0.2-0.1-0.2,0l-0.6,0.6l-0.6,0.7c-0.1,0.1-0.1,0.2,0,0.2
						c0.1,0.1,0.1,0,0.2,0c0.4-0.1,1.4,0.6,2.2,1.3c-0.8,0.8-1.9,1.6-2.3,1.5c-0.1,0-0.2-0.1-0.2,0c-0.1,0.1-0.1,0.2,0,0.2l0.6,0.6
						l0.6,0.6c0.1,0.1,0.2,0.1,0.2,0c0.1-0.1,0-0.2,0-0.2c-0.1-0.4,0.8-1.5,1.5-2.3c0.7,0.7,1.5,1.8,1.3,2.2c0,0.1-0.1,0.2,0,0.2
						c0.1,0.1,0.2,0.1,0.2,0l0.6-0.7l0.6-0.6c0.1-0.1,0.1-0.2,0-0.2c-0.1-0.1-0.1,0-0.2,0c-0.4,0.1-1.4-0.6-2.2-1.3
						c0.8-0.8,1.9-1.6,2.3-1.5c0.1,0,0.2,0.1,0.2,0c0.1-0.1,0.1-0.2,0-0.2L1.1,15.5z"/>
					<path class="st5" d="M22.9,15.5l-0.6-0.6c-0.1-0.1-0.2-0.1-0.2,0c-0.1,0.1,0,0.1,0,0.2c0.1,0.4-0.8,1.5-1.5,2.3
						c-0.7-0.7-1.5-1.8-1.3-2.2c0-0.1,0.1-0.2,0-0.2c-0.1-0.1-0.2-0.1-0.2,0l-0.6,0.6l-0.6,0.7c-0.1,0.1-0.1,0.2,0,0.2
						c0.1,0.1,0.1,0,0.2,0c0.4-0.1,1.4,0.6,2.2,1.3c-0.8,0.8-1.9,1.6-2.3,1.5c-0.1,0-0.2-0.1-0.2,0c-0.1,0.1-0.1,0.2,0,0.2l0.6,0.6
						l0.6,0.6c0.1,0.1,0.2,0.1,0.2,0c0.1-0.1,0-0.2,0-0.2c-0.1-0.4,0.8-1.5,1.5-2.3c0.7,0.7,1.5,1.8,1.3,2.2c0,0.1-0.1,0.2,0,0.2
						c0.1,0.1,0.2,0.1,0.2,0l0.6-0.7l0.6-0.6c0.1-0.1,0.1-0.2,0-0.2c-0.1-0.1-0.1,0-0.2,0c-0.4,0.1-1.4-0.6-2.2-1.3
						c0.8-0.8,1.9-1.6,2.3-1.5c0.1,0,0.2,0.1,0.2,0c0.1-0.1,0.1-0.2,0-0.2L22.9,15.5z"/>
					<path class="st5" d="M87.3,15.5l-0.6-0.6c-0.1-0.1-0.2-0.1-0.2,0c-0.1,0.1,0,0.1,0,0.2c0.1,0.4-0.8,1.5-1.5,2.3
						c-0.7-0.7-1.5-1.8-1.3-2.2c0-0.1,0.1-0.2,0-0.2c-0.1-0.1-0.2-0.1-0.2,0l-0.6,0.6l-0.6,0.7c-0.1,0.1-0.1,0.2,0,0.2
						c0.1,0.1,0.1,0,0.2,0c0.4-0.1,1.4,0.6,2.2,1.3c-0.8,0.8-1.9,1.6-2.3,1.5c-0.1,0-0.2-0.1-0.2,0c-0.1,0.1-0.1,0.2,0,0.2l0.6,0.6
						l0.6,0.6c0.1,0.1,0.2,0.1,0.2,0c0.1-0.1,0-0.2,0-0.2c-0.1-0.4,0.8-1.5,1.5-2.3c0.7,0.7,1.5,1.8,1.3,2.2c0,0.1-0.1,0.2,0,0.2
						c0.1,0.1,0.2,0.1,0.2,0l0.6-0.7l0.6-0.6c0.1-0.1,0.1-0.2,0-0.2c-0.1-0.1-0.1,0-0.2,0c-0.4,0.1-1.4-0.6-2.2-1.3
						c0.8-0.8,1.9-1.6,2.3-1.5c0.1,0,0.2,0.1,0.2,0c0.1-0.1,0.1-0.2,0-0.2L87.3,15.5z"/>
					<path class="st5" d="M98.1,15.5l-0.6-0.6c-0.1-0.1-0.2-0.1-0.2,0c-0.1,0.1,0,0.1,0,0.2c0.1,0.4-0.8,1.5-1.5,2.3
						c-0.7-0.7-1.5-1.8-1.3-2.2c0-0.1,0.1-0.2,0-0.2c-0.1-0.1-0.2-0.1-0.2,0l-0.6,0.6l-0.6,0.7c-0.1,0.1-0.1,0.2,0,0.2
						c0.1,0.1,0.1,0,0.2,0c0.4-0.1,1.4,0.6,2.2,1.3c-0.8,0.8-1.9,1.6-2.3,1.5c-0.1,0-0.2-0.1-0.2,0c-0.1,0.1-0.1,0.2,0,0.2l0.6,0.6
						l0.6,0.6c0.1,0.1,0.2,0.1,0.2,0c0.1-0.1,0-0.2,0-0.2c-0.1-0.4,0.8-1.5,1.5-2.3c0.7,0.7,1.5,1.8,1.3,2.2c0,0.1-0.1,0.2,0,0.2
						c0.1,0.1,0.2,0.1,0.2,0l0.6-0.7l0.6-0.6c0.1-0.1,0.1-0.2,0-0.2c-0.1-0.1-0.1,0-0.2,0c-0.4,0.1-1.4-0.6-2.2-1.3
						c0.8-0.8,1.9-1.6,2.3-1.5c0.1,0,0.2,0.1,0.2,0c0.1-0.1,0.1-0.2,0-0.2L98.1,15.5z"/>
					<path class="st5" d="M108.8,15.5l-0.6-0.6c-0.1-0.1-0.2-0.1-0.2,0c-0.1,0.1,0,0.1,0,0.2c0.1,0.4-0.8,1.5-1.5,2.3
						c-0.7-0.7-1.5-1.8-1.3-2.2c0-0.1,0.1-0.2,0-0.2c-0.1-0.1-0.2-0.1-0.2,0l-0.6,0.6l-0.6,0.7c-0.1,0.1-0.1,0.2,0,0.2
						c0.1,0.1,0.1,0,0.2,0c0.4-0.1,1.4,0.6,2.2,1.3c-0.8,0.8-1.9,1.6-2.3,1.5c-0.1,0-0.2-0.1-0.2,0c-0.1,0.1-0.1,0.2,0,0.2l0.6,0.6
						l0.6,0.6c0.1,0.1,0.2,0.1,0.2,0c0.1-0.1,0-0.2,0-0.2c-0.1-0.4,0.8-1.5,1.5-2.3c0.7,0.7,1.5,1.8,1.3,2.2c0,0.1-0.1,0.2,0,0.2
						c0.1,0.1,0.2,0.1,0.2,0l0.6-0.7l0.6-0.6c0.1-0.1,0.1-0.2,0-0.2c-0.1-0.1-0.1,0-0.2,0c-0.4,0.1-1.4-0.6-2.2-1.3
						c0.8-0.8,1.9-1.6,2.3-1.5c0.1,0,0.2,0.1,0.2,0c0.1-0.1,0.1-0.2,0-0.2L108.8,15.5z"/>
					<path class="st5" d="M114.4,19.5c-0.1,0-0.2-0.1-0.2,0c-0.1,0.1-0.1,0.2,0,0.2l0.6,0.6l0.6,0.6c0.1,0.1,0.2,0.1,0.2,0
						c0.1-0.1,0-0.2,0-0.2c0-0.2,0.1-0.5,0.4-0.9v-1.2C115.4,19.1,114.7,19.6,114.4,19.5z"/>
					<path class="st5" d="M115.8,15.3c0-0.1,0.1-0.2,0-0.2c-0.1-0.1-0.2-0.1-0.2,0l-0.6,0.6l-0.6,0.7c-0.1,0.1-0.1,0.2,0,0.2
						c0.1,0.1,0.1,0,0.2,0c0.3-0.1,0.9,0.3,1.5,0.7v-1.4C115.9,15.7,115.8,15.4,115.8,15.3z"/>
					<path class="st5" d="M12.1,26l-0.6-0.6c-0.1-0.1-0.2-0.1-0.2,0c-0.1,0.1,0,0.1,0,0.2c0.1,0.4-0.8,1.5-1.5,2.3
						c-0.7-0.7-1.5-1.8-1.3-2.2c0-0.1,0.1-0.2,0-0.2c-0.1-0.1-0.2-0.1-0.2,0l-0.6,0.6l-0.6,0.7c-0.1,0.1-0.1,0.2,0,0.2
						c0.1,0.1,0.1,0,0.2,0c0.4-0.1,1.4,0.6,2.2,1.3C8.5,29.2,7.4,30.1,7,30c-0.1,0-0.2-0.1-0.2,0c-0.1,0.1-0.1,0.2,0,0.2l0.6,0.6
						l0.6,0.6c0.1,0.1,0.2,0.1,0.2,0c0.1-0.1,0-0.2,0-0.2c-0.1-0.4,0.8-1.5,1.5-2.3c0.7,0.7,1.5,1.8,1.3,2.2c0,0.1-0.1,0.2,0,0.2
						c0.1,0.1,0.2,0.1,0.2,0l0.6-0.7l0.6-0.6c0.1-0.1,0.1-0.2,0-0.2c-0.1-0.1-0.1,0-0.2,0c-0.4,0.1-1.4-0.6-2.2-1.3
						c0.8-0.8,1.9-1.6,2.3-1.5c0.1,0,0.2,0.1,0.2,0c0.1-0.1,0.1-0.2,0-0.2L12.1,26z"/>
					<path class="st5" d="M1.1,26l-0.6-0.6c-0.1-0.1-0.2-0.1-0.2,0c-0.1,0.1,0,0.1,0,0.2c0.1,0.4-0.8,1.5-1.5,2.3
						c-0.7-0.7-1.5-1.8-1.3-2.2c0-0.1,0.1-0.2,0-0.2c-0.1-0.1-0.2-0.1-0.2,0l-0.6,0.6l-0.6,0.7c-0.1,0.1-0.1,0.2,0,0.2
						c0.1,0.1,0.1,0,0.2,0c0.4-0.1,1.4,0.6,2.2,1.3C-2.5,29.2-3.6,30.1-4,30c-0.1,0-0.2-0.1-0.2,0c-0.1,0.1-0.1,0.2,0,0.2l0.6,0.6
						l0.6,0.6c0.1,0.1,0.2,0.1,0.2,0c0.1-0.1,0-0.2,0-0.2c-0.1-0.4,0.8-1.5,1.5-2.3c0.7,0.7,1.5,1.8,1.3,2.2c0,0.1-0.1,0.2,0,0.2
						c0.1,0.1,0.2,0.1,0.2,0l0.6-0.7L1.6,30c0.1-0.1,0.1-0.2,0-0.2c-0.1-0.1-0.1,0-0.2,0c-0.4,0.1-1.4-0.6-2.2-1.3
						c0.8-0.8,1.9-1.6,2.3-1.5c0.1,0,0.2,0.1,0.2,0c0.1-0.1,0.1-0.2,0-0.2L1.1,26z"/>
					<path class="st5" d="M108.8,26l-0.6-0.6c-0.1-0.1-0.2-0.1-0.2,0c-0.1,0.1,0,0.1,0,0.2c0.1,0.4-0.8,1.5-1.5,2.3
						c-0.7-0.7-1.5-1.8-1.3-2.2c0-0.1,0.1-0.2,0-0.2c-0.1-0.1-0.2-0.1-0.2,0l-0.6,0.6l-0.6,0.7c-0.1,0.1-0.1,0.2,0,0.2
						c0.1,0.1,0.1,0,0.2,0c0.4-0.1,1.4,0.6,2.2,1.3c-0.8,0.8-1.9,1.6-2.3,1.5c-0.1,0-0.2-0.1-0.2,0c-0.1,0.1-0.1,0.2,0,0.2l0.6,0.6
						l0.6,0.6c0.1,0.1,0.2,0.1,0.2,0c0.1-0.1,0-0.2,0-0.2c-0.1-0.4,0.8-1.5,1.5-2.3c0.7,0.7,1.5,1.8,1.3,2.2c0,0.1-0.1,0.2,0,0.2
						c0.1,0.1,0.2,0.1,0.2,0l0.6-0.7l0.6-0.6c0.1-0.1,0.1-0.2,0-0.2c-0.1-0.1-0.1,0-0.2,0c-0.4,0.1-1.4-0.6-2.2-1.3
						c0.8-0.8,1.9-1.6,2.3-1.5c0.1,0,0.2,0.1,0.2,0c0.1-0.1,0.1-0.2,0-0.2L108.8,26z"/>
					<path class="st5" d="M115.8,25.8c0-0.1,0.1-0.2,0-0.2c-0.1-0.1-0.2-0.1-0.2,0l-0.6,0.6l-0.6,0.7c-0.1,0.1-0.1,0.2,0,0.2
						c0.1,0.1,0.1,0,0.2,0c0.3-0.1,0.9,0.3,1.5,0.7v-1.4C115.9,26.2,115.8,26,115.8,25.8z"/>
					<path class="st5" d="M114.4,30c-0.1,0-0.2-0.1-0.2,0c-0.1,0.1-0.1,0.2,0,0.2l0.6,0.6l0.6,0.6c0.1,0.1,0.2,0.1,0.2,0
						c0.1-0.1,0-0.2,0-0.2c0-0.2,0.1-0.5,0.4-0.9v-1.2C115.4,29.6,114.7,30.1,114.4,30z"/>
					<path class="st5" d="M1.1,36.6L0.6,36c-0.1-0.1-0.2-0.1-0.2,0c-0.1,0.1,0,0.1,0,0.2c0.1,0.4-0.8,1.5-1.5,2.3
						c-0.7-0.7-1.5-1.8-1.3-2.2c0-0.1,0.1-0.2,0-0.2c-0.1-0.1-0.2-0.1-0.2,0l-0.6,0.6l-0.6,0.7c-0.1,0.1-0.1,0.2,0,0.2
						c0.1,0.1,0.1,0,0.2,0c0.4-0.1,1.4,0.6,2.2,1.3c-0.8,0.8-1.9,1.6-2.3,1.5c-0.1,0-0.2-0.1-0.2,0c-0.1,0.1-0.1,0.2,0,0.2l0.6,0.6
						L-3,42C-3,42-2.9,42-2.8,42c0.1-0.1,0-0.2,0-0.2c-0.1-0.4,0.8-1.5,1.5-2.3c0.7,0.7,1.5,1.8,1.3,2.2c0,0.1-0.1,0.2,0,0.2
						c0.1,0.1,0.2,0.1,0.2,0l0.6-0.7l0.6-0.6c0.1-0.1,0.1-0.2,0-0.2c-0.1-0.1-0.1,0-0.2,0C1,40.4-0.1,39.7-0.8,39
						c0.8-0.8,1.9-1.6,2.3-1.5c0.1,0,0.2,0.1,0.2,0c0.1-0.1,0.1-0.2,0-0.2L1.1,36.6z"/>
					<path class="st5" d="M115.8,36.3c0-0.1,0.1-0.2,0-0.2c-0.1-0.1-0.2-0.1-0.2,0l-0.6,0.6l-0.6,0.7c-0.1,0.1-0.1,0.2,0,0.2
						c0.1,0.1,0.1,0,0.2,0c0.3-0.1,0.9,0.3,1.5,0.7V37C115.9,36.7,115.8,36.5,115.8,36.3z"/>
					<path class="st5" d="M114.4,40.5c-0.1,0-0.2-0.1-0.2,0c-0.1,0.1-0.1,0.2,0,0.2l0.6,0.6l0.6,0.6c0.1,0.1,0.2,0.1,0.2,0
						c0.1-0.1,0-0.2,0-0.2c0-0.2,0.1-0.5,0.4-0.9v-1.2C115.4,40.2,114.7,40.6,114.4,40.5z"/>
					<path class="st5" d="M1.1,47.1l-0.6-0.6c-0.1-0.1-0.2-0.1-0.2,0c-0.1,0.1,0,0.1,0,0.2c0.1,0.4-0.8,1.5-1.5,2.3
						c-0.7-0.7-1.5-1.8-1.3-2.2c0-0.1,0.1-0.2,0-0.2c-0.1-0.1-0.2-0.1-0.2,0l-0.6,0.6l-0.6,0.7c-0.1,0.1-0.1,0.2,0,0.2
						c0.1,0.1,0.1,0,0.2,0c0.4-0.1,1.4,0.6,2.2,1.3C-2.5,50.3-3.6,51.1-4,51c-0.1,0-0.2-0.1-0.2,0c-0.1,0.1-0.1,0.2,0,0.2l0.6,0.6
						l0.6,0.6c0.1,0.1,0.2,0.1,0.2,0c0.1-0.1,0-0.2,0-0.2c-0.1-0.4,0.8-1.5,1.5-2.3c0.7,0.7,1.5,1.8,1.3,2.2c0,0.1-0.1,0.2,0,0.2
						c0.1,0.1,0.2,0.1,0.2,0l0.6-0.7L1.6,51c0.1-0.1,0.1-0.2,0-0.2c-0.1-0.1-0.1,0-0.2,0c-0.4,0.1-1.4-0.6-2.2-1.3
						c0.8-0.8,1.9-1.6,2.3-1.5c0.1,0,0.2,0.1,0.2,0c0.1-0.1,0.1-0.2,0-0.2L1.1,47.1z"/>
					<path class="st5" d="M114.4,51c-0.1,0-0.2-0.1-0.2,0c-0.1,0.1-0.1,0.2,0,0.2l0.6,0.6l0.6,0.6c0.1,0.1,0.2,0.1,0.2,0
						c0.1-0.1,0-0.2,0-0.2c0-0.2,0.1-0.5,0.4-0.9v-1.2C115.4,50.7,114.7,51.1,114.4,51z"/>
					<path class="st5" d="M115.8,46.9c0-0.1,0.1-0.2,0-0.2c-0.1-0.1-0.2-0.1-0.2,0l-0.6,0.6l-0.6,0.7c-0.1,0.1-0.1,0.2,0,0.2
						c0.1,0.1,0.1,0,0.2,0c0.3-0.1,0.9,0.3,1.5,0.7v-1.4C115.9,47.2,115.8,47,115.8,46.9z"/>
					<path class="st5" d="M1.1,57.6L0.6,57C0.5,57,0.4,57,0.3,57c-0.1,0.1,0,0.1,0,0.2c0.1,0.4-0.8,1.5-1.5,2.3
						c-0.7-0.7-1.5-1.8-1.3-2.2c0-0.1,0.1-0.2,0-0.2c-0.1-0.1-0.2-0.1-0.2,0l-0.6,0.6l-0.6,0.7c-0.1,0.1-0.1,0.2,0,0.2
						c0.1,0.1,0.1,0,0.2,0c0.4-0.1,1.4,0.6,2.2,1.3c-0.8,0.8-1.9,1.6-2.3,1.5c-0.1,0-0.2-0.1-0.2,0c-0.1,0.1-0.1,0.2,0,0.2l0.6,0.6
						L-3,63c0.1,0.1,0.2,0.1,0.2,0c0.1-0.1,0-0.2,0-0.2c-0.1-0.4,0.8-1.5,1.5-2.3c0.7,0.7,1.5,1.8,1.3,2.2c0,0.1-0.1,0.2,0,0.2
						c0.1,0.1,0.2,0.1,0.2,0l0.6-0.7l0.6-0.6c0.1-0.1,0.1-0.2,0-0.2c-0.1-0.1-0.1,0-0.2,0C1,61.5-0.1,60.7-0.8,60
						c0.8-0.8,1.9-1.6,2.3-1.5c0.1,0,0.2,0.1,0.2,0c0.1-0.1,0.1-0.2,0-0.2L1.1,57.6z"/>
					<path class="st5" d="M114.4,61.6c-0.1,0-0.2-0.1-0.2,0c-0.1,0.1-0.1,0.2,0,0.2l0.6,0.6l0.6,0.6c0.1,0.1,0.2,0.1,0.2,0
						c0.1-0.1,0-0.2,0-0.2c0-0.2,0.1-0.5,0.4-0.9v-1.1C115.4,61.2,114.7,61.6,114.4,61.6z"/>
					<path class="st5" d="M115.8,57.4c0-0.1,0.1-0.2,0-0.2c-0.1-0.1-0.2-0.1-0.2,0l-0.6,0.6l-0.6,0.7c-0.1,0.1-0.1,0.2,0,0.2
						c0.1,0.1,0.1,0,0.2,0c0.3-0.1,0.9,0.3,1.5,0.7V58C115.9,57.8,115.8,57.5,115.8,57.4z"/>
					<path class="st5" d="M1.1,68.1l-0.6-0.6c-0.1-0.1-0.2-0.1-0.2,0c-0.1,0.1,0,0.1,0,0.2c0.1,0.4-0.8,1.5-1.5,2.3
						c-0.7-0.7-1.5-1.8-1.3-2.2c0-0.1,0.1-0.2,0-0.2c-0.1-0.1-0.2-0.1-0.2,0l-0.6,0.6L-4.1,69c-0.1,0.1-0.1,0.2,0,0.2
						c0.1,0.1,0.1,0,0.2,0c0.4-0.1,1.4,0.6,2.2,1.3c-0.8,0.8-1.9,1.6-2.3,1.5c-0.1,0-0.2-0.1-0.2,0c-0.1,0.1-0.1,0.2,0,0.2l0.6,0.6
						l0.6,0.6c0.1,0.1,0.2,0.1,0.2,0c0.1-0.1,0-0.2,0-0.2C-2.9,72.9-2,71.8-1.3,71c0.7,0.7,1.5,1.8,1.3,2.2c0,0.1-0.1,0.2,0,0.2
						c0.1,0.1,0.2,0.1,0.2,0l0.6-0.7l0.6-0.6c0.1-0.1,0.1-0.2,0-0.2c-0.1-0.1-0.1,0-0.2,0C1,72-0.1,71.2-0.8,70.5
						C0,69.7,1.1,68.9,1.5,69c0.1,0,0.2,0.1,0.2,0c0.1-0.1,0.1-0.2,0-0.2L1.1,68.1z"/>
					<path class="st5" d="M115.8,67.9c0-0.1,0.1-0.2,0-0.2c-0.1-0.1-0.2-0.1-0.2,0l-0.6,0.6l-0.6,0.7c-0.1,0.1-0.1,0.2,0,0.2
						c0.1,0.1,0.1,0,0.2,0c0.3-0.1,0.9,0.3,1.5,0.7v-1.4C115.9,68.3,115.8,68.1,115.8,67.9z"/>
					<path class="st5" d="M114.4,72.1c-0.1,0-0.2-0.1-0.2,0c-0.1,0.1-0.1,0.2,0,0.2l0.6,0.6l0.6,0.6c0.1,0.1,0.2,0.1,0.2,0
						c0.1-0.1,0-0.2,0-0.2c0-0.2,0.1-0.5,0.4-0.9v-1.1C115.4,71.7,114.7,72.2,114.4,72.1z"/>
					<path class="st5" d="M1.1,78.7l-0.6-0.6c-0.1-0.1-0.2-0.1-0.2,0c-0.1,0.1,0,0.1,0,0.2c0.1,0.4-0.8,1.5-1.5,2.3
						c-0.7-0.7-1.5-1.8-1.3-2.2c0-0.1,0.1-0.2,0-0.2c-0.1-0.1-0.2-0.1-0.2,0l-0.6,0.6l-0.6,0.7c-0.1,0.1-0.1,0.2,0,0.2
						c0.1,0.1,0.1,0,0.2,0c0.4-0.1,1.4,0.6,2.2,1.3c-0.8,0.8-1.9,1.6-2.3,1.5c-0.1,0-0.2-0.1-0.2,0c-0.1,0.1-0.1,0.2,0,0.2l0.6,0.6
						l0.6,0.6c0.1,0.1,0.2,0.1,0.2,0c0.1-0.1,0-0.2,0-0.2c-0.1-0.4,0.8-1.5,1.5-2.3c0.7,0.7,1.5,1.8,1.3,2.2c0,0.1-0.1,0.2,0,0.2
						c0.1,0.1,0.2,0.1,0.2,0l0.6-0.7l0.6-0.6c0.1-0.1,0.1-0.2,0-0.2c-0.1-0.1-0.1,0-0.2,0C1,82.5-0.1,81.7-0.8,81
						c0.8-0.8,1.9-1.6,2.3-1.5c0.1,0,0.2,0.1,0.2,0c0.1-0.1,0.1-0.2,0-0.2L1.1,78.7z"/>
					<path class="st5" d="M114.4,82.6c-0.1,0-0.2-0.1-0.2,0c-0.1,0.1-0.1,0.2,0,0.2l0.6,0.6l0.6,0.6c0.1,0.1,0.2,0.1,0.2,0
						c0.1-0.1,0-0.2,0-0.2c0-0.2,0.1-0.5,0.4-0.9v-1.1C115.4,82.3,114.7,82.7,114.4,82.6z"/>
					<path class="st5" d="M115.8,78.4c0-0.1,0.1-0.2,0-0.2c-0.1-0.1-0.2-0.1-0.2,0l-0.6,0.6l-0.6,0.7c-0.1,0.1-0.1,0.2,0,0.2
						c0.1,0.1,0.1,0,0.2,0c0.3-0.1,0.9,0.3,1.5,0.7v-1.4C115.9,78.8,115.8,78.6,115.8,78.4z"/>
					<path class="st5" d="M1.1,89.2l-0.6-0.6c-0.1-0.1-0.2-0.1-0.2,0c-0.1,0.1,0,0.1,0,0.2c0.1,0.4-0.8,1.5-1.5,2.3
						c-0.7-0.7-1.5-1.8-1.3-2.2c0-0.1,0.1-0.2,0-0.2c-0.1-0.1-0.2-0.1-0.2,0l-0.6,0.6L-4.1,90c-0.1,0.1-0.1,0.2,0,0.2
						c0.1,0.1,0.1,0,0.2,0c0.4-0.1,1.4,0.6,2.2,1.3c-0.8,0.8-1.9,1.6-2.3,1.5c-0.1,0-0.2-0.1-0.2,0c-0.1,0.1-0.1,0.2,0,0.2l0.6,0.6
						l0.6,0.6c0.1,0.1,0.2,0.1,0.2,0c0.1-0.1,0-0.2,0-0.2C-2.9,93.9-2,92.8-1.3,92c0.7,0.7,1.5,1.8,1.3,2.2c0,0.1-0.1,0.2,0,0.2
						c0.1,0.1,0.2,0.1,0.2,0l0.6-0.7l0.6-0.6c0.1-0.1,0.1-0.2,0-0.2c-0.1-0.1-0.1,0-0.2,0C1,93-0.1,92.3-0.8,91.6
						C0,90.8,1.1,89.9,1.5,90c0.1,0,0.2,0.1,0.2,0c0.1-0.1,0.1-0.2,0-0.2L1.1,89.2z"/>
					<path class="st5" d="M114.4,93.1c-0.1,0-0.2-0.1-0.2,0c-0.1,0.1-0.1,0.2,0,0.2l0.6,0.6l0.6,0.6c0.1,0.1,0.2,0.1,0.2,0
						c0.1-0.1,0-0.2,0-0.2c0-0.2,0.1-0.5,0.4-0.9v-1.1C115.4,92.8,114.7,93.2,114.4,93.1z"/>
					<path class="st5" d="M115.8,89c0-0.1,0.1-0.2,0-0.2c-0.1-0.1-0.2-0.1-0.2,0l-0.6,0.6l-0.6,0.7c-0.1,0.1-0.1,0.2,0,0.2
						c0.1,0.1,0.1,0,0.2,0c0.3-0.1,0.9,0.3,1.5,0.7v-1.4C115.9,89.3,115.8,89.1,115.8,89z"/>
					<path class="st5" d="M1.1,99.7l-0.6-0.6c-0.1-0.1-0.2-0.1-0.2,0c-0.1,0.1,0,0.1,0,0.2c0.1,0.4-0.8,1.5-1.5,2.3
						c-0.7-0.7-1.5-1.8-1.3-2.2c0-0.1,0.1-0.2,0-0.2c-0.1-0.1-0.2-0.1-0.2,0l-0.6,0.6l-0.6,0.7c-0.1,0.1-0.1,0.2,0,0.2
						c0.1,0.1,0.1,0,0.2,0c0.4-0.1,1.4,0.6,2.2,1.3c-0.8,0.8-1.9,1.6-2.3,1.5c-0.1,0-0.2-0.1-0.2,0c-0.1,0.1-0.1,0.2,0,0.2l0.6,0.6
						l0.6,0.6c0.1,0.1,0.2,0.1,0.2,0c0.1-0.1,0-0.2,0-0.2c-0.1-0.4,0.8-1.5,1.5-2.3c0.7,0.7,1.5,1.8,1.3,2.2c0,0.1-0.1,0.2,0,0.2
						c0.1,0.1,0.2,0.1,0.2,0l0.6-0.7l0.6-0.6c0.1-0.1,0.1-0.2,0-0.2c-0.1-0.1-0.1,0-0.2,0c-0.4,0.1-1.4-0.6-2.2-1.3
						c0.8-0.8,1.9-1.6,2.3-1.5c0.1,0,0.2,0.1,0.2,0c0.1-0.1,0.1-0.2,0-0.2L1.1,99.7z"/>
					<path class="st5" d="M115.8,99.5c0-0.1,0.1-0.2,0-0.2c-0.1-0.1-0.2-0.1-0.2,0l-0.6,0.6l-0.6,0.7c-0.1,0.1-0.1,0.2,0,0.2
						c0.1,0.1,0.1,0,0.2,0c0.3-0.1,0.9,0.3,1.5,0.7v-1.4C115.9,99.9,115.8,99.6,115.8,99.5z"/>
					<path class="st5" d="M114.4,103.7c-0.1,0-0.2-0.1-0.2,0c-0.1,0.1-0.1,0.2,0,0.2l0.6,0.6l0.6,0.6c0.1,0.1,0.2,0.1,0.2,0
						c0.1-0.1,0-0.2,0-0.2c0-0.2,0.1-0.5,0.4-0.9v-1.1C115.4,103.3,114.7,103.7,114.4,103.7z"/>
					<path class="st5" d="M1.1,110.2l-0.6-0.6c-0.1-0.1-0.2-0.1-0.2,0c-0.1,0.1,0,0.1,0,0.2c0.1,0.4-0.8,1.5-1.5,2.3
						c-0.7-0.7-1.5-1.8-1.3-2.2c0-0.1,0.1-0.2,0-0.2c-0.1-0.1-0.2-0.1-0.2,0l-0.6,0.6l-0.6,0.7c-0.1,0.1-0.1,0.2,0,0.2
						c0.1,0.1,0.1,0,0.2,0c0.4-0.1,1.4,0.6,2.2,1.3c-0.8,0.8-1.9,1.6-2.3,1.5c-0.1,0-0.2-0.1-0.2,0c-0.1,0.1-0.1,0.2,0,0.2l0.6,0.6
						l0.6,0.6c0.1,0.1,0.2,0.1,0.2,0c0.1-0.1,0-0.2,0-0.2c-0.1-0.4,0.8-1.5,1.5-2.3c0.7,0.7,1.5,1.8,1.3,2.2c0,0.1-0.1,0.2,0,0.2
						c0.1,0.1,0.2,0.1,0.2,0l0.6-0.7l0.6-0.6c0.1-0.1,0.1-0.2,0-0.2c-0.1-0.1-0.1,0-0.2,0c-0.4,0.1-1.4-0.6-2.2-1.3
						c0.8-0.8,1.9-1.6,2.3-1.5c0.1,0,0.2,0.1,0.2,0c0.1-0.1,0.1-0.2,0-0.2L1.1,110.2z"/>
					<path class="st5" d="M114.4,114.2c-0.1,0-0.2-0.1-0.2,0c-0.1,0.1-0.1,0.2,0,0.2l0.6,0.6l0.6,0.6c0.1,0.1,0.2,0.1,0.2,0
						c0.1-0.1,0-0.2,0-0.2c0-0.2,0.1-0.5,0.4-0.9v-1.1C115.4,113.8,114.7,114.3,114.4,114.2z"/>
					<path class="st5" d="M115.8,110c0-0.1,0.1-0.2,0-0.2c-0.1-0.1-0.2-0.1-0.2,0l-0.6,0.6l-0.6,0.7c-0.1,0.1-0.1,0.2,0,0.2
						c0.1,0.1,0.1,0,0.2,0c0.3-0.1,0.9,0.3,1.5,0.7v-1.4C115.9,110.4,115.8,110.2,115.8,110z"/>
					<path class="st5" d="M1.1,120.8l-0.6-0.6c-0.1-0.1-0.2-0.1-0.2,0c-0.1,0.1,0,0.1,0,0.2c0.1,0.4-0.8,1.5-1.5,2.3
						c-0.7-0.7-1.5-1.8-1.3-2.2c0-0.1,0.1-0.2,0-0.2c-0.1-0.1-0.2-0.1-0.2,0l-0.6,0.6l-0.6,0.7c-0.1,0.1-0.1,0.2,0,0.2
						c0.1,0.1,0.1,0,0.2,0c0.4-0.1,1.4,0.6,2.2,1.3c-0.8,0.8-1.9,1.6-2.3,1.5c-0.1,0-0.2-0.1-0.2,0c-0.1,0.1-0.1,0.2,0,0.2l0.6,0.6
						l0.6,0.6c0.1,0.1,0.2,0.1,0.2,0c0.1-0.1,0-0.2,0-0.2c-0.1-0.4,0.8-1.5,1.5-2.3c0.7,0.7,1.5,1.8,1.3,2.2c0,0.1-0.1,0.2,0,0.2
						c0.1,0.1,0.2,0.1,0.2,0l0.6-0.7l0.6-0.6c0.1-0.1,0.1-0.2,0-0.2c-0.1-0.1-0.1,0-0.2,0c-0.4,0.1-1.4-0.6-2.2-1.3
						c0.8-0.8,1.9-1.6,2.3-1.5c0.1,0,0.2,0.1,0.2,0c0.1-0.1,0.1-0.2,0-0.2L1.1,120.8z"/>
					<path class="st5" d="M115.8,120.5c0-0.1,0.1-0.2,0-0.2c-0.1-0.1-0.2-0.1-0.2,0L115,121l-0.6,0.7c-0.1,0.1-0.1,0.2,0,0.2
						c0.1,0.1,0.1,0,0.2,0c0.3-0.1,0.9,0.3,1.5,0.7v-1.4C115.9,120.9,115.8,120.7,115.8,120.5z"/>
					<path class="st5" d="M114.4,124.7c-0.1,0-0.2-0.1-0.2,0c-0.1,0.1-0.1,0.2,0,0.2l0.6,0.6l0.6,0.6c0.1,0.1,0.2,0.1,0.2,0
						c0.1-0.1,0-0.2,0-0.2c0-0.2,0.1-0.5,0.4-0.9v-1.1C115.4,124.4,114.7,124.8,114.4,124.7z"/>
					<path class="st5" d="M1.1,131.3l-0.6-0.6c-0.1-0.1-0.2-0.1-0.2,0c-0.1,0.1,0,0.1,0,0.2c0.1,0.4-0.8,1.5-1.5,2.3
						c-0.7-0.7-1.5-1.8-1.3-2.2c0-0.1,0.1-0.2,0-0.2c-0.1-0.1-0.2-0.1-0.2,0l-0.6,0.6l-0.6,0.7c-0.1,0.1-0.1,0.2,0,0.2
						c0.1,0.1,0.1,0,0.2,0c0.4-0.1,1.4,0.6,2.2,1.3c-0.8,0.8-1.9,1.6-2.3,1.5c-0.1,0-0.2-0.1-0.2,0c-0.1,0.1-0.1,0.2,0,0.2l0.6,0.6
						l0.6,0.6c0.1,0.1,0.2,0.1,0.2,0c0.1-0.1,0-0.2,0-0.2c-0.1-0.4,0.8-1.5,1.5-2.3c0.7,0.7,1.5,1.8,1.3,2.2c0,0.1-0.1,0.2,0,0.2
						c0.1,0.1,0.2,0.1,0.2,0l0.6-0.7l0.6-0.6c0.1-0.1,0.1-0.2,0-0.2c-0.1-0.1-0.1,0-0.2,0c-0.4,0.1-1.4-0.6-2.2-1.3
						c0.8-0.8,1.9-1.6,2.3-1.5c0.1,0,0.2,0.1,0.2,0c0.1-0.1,0.1-0.2,0-0.2L1.1,131.3z"/>
					<path class="st5" d="M114.4,135.2c-0.1,0-0.2-0.1-0.2,0c-0.1,0.1-0.1,0.2,0,0.2l0.6,0.6l0.6,0.6c0.1,0.1,0.2,0.1,0.2,0
						c0.1-0.1,0-0.2,0-0.2c0-0.2,0.1-0.5,0.4-0.9v-1.1C115.4,134.9,114.7,135.3,114.4,135.2z"/>
					<path class="st5" d="M115.8,131.1c0-0.1,0.1-0.2,0-0.2c-0.1-0.1-0.2-0.1-0.2,0l-0.6,0.6l-0.6,0.7c-0.1,0.1-0.1,0.2,0,0.2
						c0.1,0.1,0.1,0,0.2,0c0.3-0.1,0.9,0.3,1.5,0.7v-1.4C115.9,131.4,115.8,131.2,115.8,131.1z"/>
					<path class="st5" d="M12.1,141.8l-0.6-0.6c-0.1-0.1-0.2-0.1-0.2,0c-0.1,0.1,0,0.1,0,0.2c0.1,0.4-0.8,1.5-1.5,2.3
						c-0.7-0.7-1.5-1.8-1.3-2.2c0-0.1,0.1-0.2,0-0.2c-0.1-0.1-0.2-0.1-0.2,0L7.6,142l-0.6,0.7c-0.1,0.1-0.1,0.2,0,0.2
						c0.1,0.1,0.1,0,0.2,0c0.4-0.1,1.4,0.6,2.2,1.3c-0.8,0.8-1.9,1.6-2.3,1.5c-0.1,0-0.2-0.1-0.2,0c-0.1,0.1-0.1,0.2,0,0.2l0.6,0.6
						l0.6,0.6c0.1,0.1,0.2,0.1,0.2,0c0.1-0.1,0-0.2,0-0.2c-0.1-0.4,0.8-1.5,1.5-2.3c0.7,0.7,1.5,1.8,1.3,2.2c0,0.1-0.1,0.2,0,0.2
						c0.1,0.1,0.2,0.1,0.2,0l0.6-0.7l0.6-0.6c0.1-0.1,0.1-0.2,0-0.2c-0.1-0.1-0.1,0-0.2,0c-0.4,0.1-1.4-0.6-2.2-1.3
						c0.8-0.8,1.9-1.6,2.3-1.5c0.1,0,0.2,0.1,0.2,0c0.1-0.1,0.1-0.2,0-0.2L12.1,141.8z"/>
					<path class="st5" d="M1.1,141.8l-0.6-0.6c-0.1-0.1-0.2-0.1-0.2,0c-0.1,0.1,0,0.1,0,0.2c0.1,0.4-0.8,1.5-1.5,2.3
						c-0.7-0.7-1.5-1.8-1.3-2.2c0-0.1,0.1-0.2,0-0.2c-0.1-0.1-0.2-0.1-0.2,0l-0.6,0.6l-0.6,0.7c-0.1,0.1-0.1,0.2,0,0.2
						c0.1,0.1,0.1,0,0.2,0c0.4-0.1,1.4,0.6,2.2,1.3c-0.8,0.8-1.9,1.6-2.3,1.5c-0.1,0-0.2-0.1-0.2,0c-0.1,0.1-0.1,0.2,0,0.2l0.6,0.6
						l0.6,0.6c0.1,0.1,0.2,0.1,0.2,0c0.1-0.1,0-0.2,0-0.2c-0.1-0.4,0.8-1.5,1.5-2.3c0.7,0.7,1.5,1.8,1.3,2.2c0,0.1-0.1,0.2,0,0.2
						c0.1,0.1,0.2,0.1,0.2,0l0.6-0.7l0.6-0.6c0.1-0.1,0.1-0.2,0-0.2c-0.1-0.1-0.1,0-0.2,0c-0.4,0.1-1.4-0.6-2.2-1.3
						c0.8-0.8,1.9-1.6,2.3-1.5c0.1,0,0.2,0.1,0.2,0c0.1-0.1,0.1-0.2,0-0.2L1.1,141.8z"/>
					<path class="st5" d="M108.8,141.8l-0.6-0.6c-0.1-0.1-0.2-0.1-0.2,0c-0.1,0.1,0,0.1,0,0.2c0.1,0.4-0.8,1.5-1.5,2.3
						c-0.7-0.7-1.5-1.8-1.3-2.2c0-0.1,0.1-0.2,0-0.2c-0.1-0.1-0.2-0.1-0.2,0l-0.6,0.6l-0.6,0.7c-0.1,0.1-0.1,0.2,0,0.2
						c0.1,0.1,0.1,0,0.2,0c0.4-0.1,1.4,0.6,2.2,1.3c-0.8,0.8-1.9,1.6-2.3,1.5c-0.1,0-0.2-0.1-0.2,0c-0.1,0.1-0.1,0.2,0,0.2l0.6,0.6
						l0.6,0.6c0.1,0.1,0.2,0.1,0.2,0c0.1-0.1,0-0.2,0-0.2c-0.1-0.4,0.8-1.5,1.5-2.3c0.7,0.7,1.5,1.8,1.3,2.2c0,0.1-0.1,0.2,0,0.2
						c0.1,0.1,0.2,0.1,0.2,0l0.6-0.7l0.6-0.6c0.1-0.1,0.1-0.2,0-0.2c-0.1-0.1-0.1,0-0.2,0c-0.4,0.1-1.4-0.6-2.2-1.3
						c0.8-0.8,1.9-1.6,2.3-1.5c0.1,0,0.2,0.1,0.2,0c0.1-0.1,0.1-0.2,0-0.2L108.8,141.8z"/>
					<path class="st5" d="M115.8,141.6c0-0.1,0.1-0.2,0-0.2c-0.1-0.1-0.2-0.1-0.2,0L115,142l-0.6,0.7c-0.1,0.1-0.1,0.2,0,0.2
						c0.1,0.1,0.1,0,0.2,0c0.3-0.1,0.9,0.3,1.5,0.7v-1.4C115.9,141.9,115.8,141.7,115.8,141.6z"/>
					<path class="st5" d="M114.4,145.8c-0.1,0-0.2-0.1-0.2,0c-0.1,0.1-0.1,0.2,0,0.2l0.6,0.6l0.6,0.6c0.1,0.1,0.2,0.1,0.2,0
						c0.1-0.1,0-0.2,0-0.2c0-0.2,0.1-0.5,0.4-0.9v-1.1C115.4,145.4,114.7,145.8,114.4,145.8z"/>
					<path class="st5" d="M12.1,152.3l-0.6-0.6c-0.1-0.1-0.2-0.1-0.2,0c-0.1,0.1,0,0.1,0,0.2c0.1,0.4-0.8,1.5-1.5,2.3
						c-0.7-0.7-1.5-1.8-1.3-2.2c0-0.1,0.1-0.2,0-0.2c-0.1-0.1-0.2-0.1-0.2,0l-0.6,0.6l-0.6,0.7c-0.1,0.1-0.1,0.2,0,0.2
						c0.1,0.1,0.1,0,0.2,0c0.4-0.1,1.4,0.6,2.2,1.3c-0.8,0.8-1.9,1.6-2.3,1.5c-0.1,0-0.2-0.1-0.2,0c-0.1,0.1-0.1,0.2,0,0.2l0.6,0.6
						l0.6,0.6c0.1,0.1,0.2,0.1,0.2,0c0.1-0.1,0-0.2,0-0.2c-0.1-0.4,0.8-1.5,1.5-2.3c0.7,0.7,1.5,1.8,1.3,2.2c0,0.1-0.1,0.2,0,0.2
						c0.1,0.1,0.2,0.1,0.2,0l0.6-0.7l0.6-0.6c0.1-0.1,0.1-0.2,0-0.2c-0.1-0.1-0.1,0-0.2,0c-0.4,0.1-1.4-0.6-2.2-1.3
						c0.8-0.8,1.9-1.6,2.3-1.5c0.1,0,0.2,0.1,0.2,0c0.1-0.1,0.1-0.2,0-0.2L12.1,152.3z"/>
					<path class="st5" d="M1.1,152.3l-0.6-0.6c-0.1-0.1-0.2-0.1-0.2,0c-0.1,0.1,0,0.1,0,0.2c0.1,0.4-0.8,1.5-1.5,2.3
						c-0.7-0.7-1.5-1.8-1.3-2.2c0-0.1,0.1-0.2,0-0.2c-0.1-0.1-0.2-0.1-0.2,0l-0.6,0.6l-0.6,0.7c-0.1,0.1-0.1,0.2,0,0.2
						c0.1,0.1,0.1,0,0.2,0c0.4-0.1,1.4,0.6,2.2,1.3c-0.8,0.8-1.9,1.6-2.3,1.5c-0.1,0-0.2-0.1-0.2,0c-0.1,0.1-0.1,0.2,0,0.2l0.6,0.6
						l0.6,0.6c0.1,0.1,0.2,0.1,0.2,0c0.1-0.1,0-0.2,0-0.2c-0.1-0.4,0.8-1.5,1.5-2.3c0.7,0.7,1.5,1.8,1.3,2.2c0,0.1-0.1,0.2,0,0.2
						c0.1,0.1,0.2,0.1,0.2,0l0.6-0.7l0.6-0.6c0.1-0.1,0.1-0.2,0-0.2c-0.1-0.1-0.1,0-0.2,0c-0.4,0.1-1.4-0.6-2.2-1.3
						c0.8-0.8,1.9-1.6,2.3-1.5c0.1,0,0.2,0.1,0.2,0c0.1-0.1,0.1-0.2,0-0.2L1.1,152.3z"/>
					<path class="st5" d="M22.9,152.3l-0.6-0.6c-0.1-0.1-0.2-0.1-0.2,0c-0.1,0.1,0,0.1,0,0.2c0.1,0.4-0.8,1.5-1.5,2.3
						c-0.7-0.7-1.5-1.8-1.3-2.2c0-0.1,0.1-0.2,0-0.2c-0.1-0.1-0.2-0.1-0.2,0l-0.6,0.6l-0.6,0.7c-0.1,0.1-0.1,0.2,0,0.2
						c0.1,0.1,0.1,0,0.2,0c0.4-0.1,1.4,0.6,2.2,1.3c-0.8,0.8-1.9,1.6-2.3,1.5c-0.1,0-0.2-0.1-0.2,0c-0.1,0.1-0.1,0.2,0,0.2l0.6,0.6
						l0.6,0.6c0.1,0.1,0.2,0.1,0.2,0c0.1-0.1,0-0.2,0-0.2c-0.1-0.4,0.8-1.5,1.5-2.3c0.7,0.7,1.5,1.8,1.3,2.2c0,0.1-0.1,0.2,0,0.2
						c0.1,0.1,0.2,0.1,0.2,0l0.6-0.7l0.6-0.6c0.1-0.1,0.1-0.2,0-0.2c-0.1-0.1-0.1,0-0.2,0c-0.4,0.1-1.4-0.6-2.2-1.3
						c0.8-0.8,1.9-1.6,2.3-1.5c0.1,0,0.2,0.1,0.2,0c0.1-0.1,0.1-0.2,0-0.2L22.9,152.3z"/>
					<path class="st5" d="M98.1,152.3l-0.6-0.6c-0.1-0.1-0.2-0.1-0.2,0c-0.1,0.1,0,0.1,0,0.2c0.1,0.4-0.8,1.5-1.5,2.3
						c-0.7-0.7-1.5-1.8-1.3-2.2c0-0.1,0.1-0.2,0-0.2c-0.1-0.1-0.2-0.1-0.2,0l-0.6,0.6l-0.6,0.7c-0.1,0.1-0.1,0.2,0,0.2
						c0.1,0.1,0.1,0,0.2,0c0.4-0.1,1.4,0.6,2.2,1.3c-0.8,0.8-1.9,1.6-2.3,1.5c-0.1,0-0.2-0.1-0.2,0c-0.1,0.1-0.1,0.2,0,0.2l0.6,0.6
						l0.6,0.6c0.1,0.1,0.2,0.1,0.2,0c0.1-0.1,0-0.2,0-0.2c-0.1-0.4,0.8-1.5,1.5-2.3c0.7,0.7,1.5,1.8,1.3,2.2c0,0.1-0.1,0.2,0,0.2
						c0.1,0.1,0.2,0.1,0.2,0l0.6-0.7l0.6-0.6c0.1-0.1,0.1-0.2,0-0.2c-0.1-0.1-0.1,0-0.2,0c-0.4,0.1-1.4-0.6-2.2-1.3
						c0.8-0.8,1.9-1.6,2.3-1.5c0.1,0,0.2,0.1,0.2,0c0.1-0.1,0.1-0.2,0-0.2L98.1,152.3z"/>
					<path class="st5" d="M108.8,152.3l-0.6-0.6c-0.1-0.1-0.2-0.1-0.2,0c-0.1,0.1,0,0.1,0,0.2c0.1,0.4-0.8,1.5-1.5,2.3
						c-0.7-0.7-1.5-1.8-1.3-2.2c0-0.1,0.1-0.2,0-0.2c-0.1-0.1-0.2-0.1-0.2,0l-0.6,0.6l-0.6,0.7c-0.1,0.1-0.1,0.2,0,0.2
						c0.1,0.1,0.1,0,0.2,0c0.4-0.1,1.4,0.6,2.2,1.3c-0.8,0.8-1.9,1.6-2.3,1.5c-0.1,0-0.2-0.1-0.2,0c-0.1,0.1-0.1,0.2,0,0.2l0.6,0.6
						l0.6,0.6c0.1,0.1,0.2,0.1,0.2,0c0.1-0.1,0-0.2,0-0.2c-0.1-0.4,0.8-1.5,1.5-2.3c0.7,0.7,1.5,1.8,1.3,2.2c0,0.1-0.1,0.2,0,0.2
						c0.1,0.1,0.2,0.1,0.2,0l0.6-0.7l0.6-0.6c0.1-0.1,0.1-0.2,0-0.2c-0.1-0.1-0.1,0-0.2,0c-0.4,0.1-1.4-0.6-2.2-1.3
						c0.8-0.8,1.9-1.6,2.3-1.5c0.1,0,0.2,0.1,0.2,0c0.1-0.1,0.1-0.2,0-0.2L108.8,152.3z"/>
					<path class="st5" d="M115.8,152.1c0-0.1,0.1-0.2,0-0.2c-0.1-0.1-0.2-0.1-0.2,0l-0.6,0.6l-0.6,0.7c-0.1,0.1-0.1,0.2,0,0.2
						c0.1,0.1,0.1,0,0.2,0c0.3-0.1,0.9,0.3,1.5,0.7v-1.4C115.9,152.5,115.8,152.2,115.8,152.1z"/>
					<path class="st5" d="M114.4,156.3c-0.1,0-0.2-0.1-0.2,0c-0.1,0.1-0.1,0.2,0,0.2l0.6,0.6l0.6,0.6c0.1,0.1,0.2,0.1,0.2,0
						c0.1-0.1,0-0.2,0-0.2c0-0.2,0.1-0.5,0.4-0.9v-1.1C115.4,155.9,114.7,156.3,114.4,156.3z"/>
					<path class="st5" d="M12.1,162.8l-0.6-0.6c-0.1-0.1-0.2-0.1-0.2,0c-0.1,0.1,0,0.1,0,0.2c0.1,0.4-0.8,1.5-1.5,2.3
						c-0.7-0.7-1.5-1.8-1.3-2.2c0-0.1,0.1-0.2,0-0.2c-0.1-0.1-0.2-0.1-0.2,0L7.6,163l-0.6,0.7c-0.1,0.1-0.1,0.2,0,0.2
						c0.1,0.1,0.1,0,0.2,0c0.4-0.1,1.4,0.6,2.2,1.3c-0.8,0.8-1.9,1.6-2.3,1.5c-0.1,0-0.2-0.1-0.2,0c-0.1,0.1-0.1,0.2,0,0.2l0.6,0.6
						l0.6,0.6c0.1,0.1,0.2,0.1,0.2,0c0.1-0.1,0-0.2,0-0.2c-0.1-0.4,0.8-1.5,1.5-2.3c0.7,0.7,1.5,1.8,1.3,2.2c0,0.1-0.1,0.2,0,0.2
						c0.1,0.1,0.2,0.1,0.2,0l0.6-0.7l0.6-0.6c0.1-0.1,0.1-0.2,0-0.2c-0.1-0.1-0.1,0-0.2,0c-0.4,0.1-1.4-0.6-2.2-1.3
						c0.8-0.8,1.9-1.6,2.3-1.5c0.1,0,0.2,0.1,0.2,0c0.1-0.1,0.1-0.2,0-0.2L12.1,162.8z"/>
					<path class="st5" d="M1.1,162.8l-0.6-0.6c-0.1-0.1-0.2-0.1-0.2,0c-0.1,0.1,0,0.1,0,0.2c0.1,0.4-0.8,1.5-1.5,2.3
						c-0.7-0.7-1.5-1.8-1.3-2.2c0-0.1,0.1-0.2,0-0.2c-0.1-0.1-0.2-0.1-0.2,0l-0.6,0.6l-0.6,0.7c-0.1,0.1-0.1,0.2,0,0.2
						c0.1,0.1,0.1,0,0.2,0c0.4-0.1,1.4,0.6,2.2,1.3c-0.8,0.8-1.9,1.6-2.3,1.5c-0.1,0-0.2-0.1-0.2,0c-0.1,0.1-0.1,0.2,0,0.2l0.6,0.6
						l0.6,0.6c0.1,0.1,0.2,0.1,0.2,0c0.1-0.1,0-0.2,0-0.2c-0.1-0.4,0.8-1.5,1.5-2.3c0.7,0.7,1.5,1.8,1.3,2.2c0,0.1-0.1,0.2,0,0.2
						c0.1,0.1,0.2,0.1,0.2,0l0.6-0.7l0.6-0.6c0.1-0.1,0.1-0.2,0-0.2c-0.1-0.1-0.1,0-0.2,0c-0.4,0.1-1.4-0.6-2.2-1.3
						c0.8-0.8,1.9-1.6,2.3-1.5c0.1,0,0.2,0.1,0.2,0c0.1-0.1,0.1-0.2,0-0.2L1.1,162.8z"/>
					<path class="st5" d="M22.9,162.8l-0.6-0.6c-0.1-0.1-0.2-0.1-0.2,0c-0.1,0.1,0,0.1,0,0.2c0.1,0.4-0.8,1.5-1.5,2.3
						c-0.7-0.7-1.5-1.8-1.3-2.2c0-0.1,0.1-0.2,0-0.2c-0.1-0.1-0.2-0.1-0.2,0l-0.6,0.6l-0.6,0.7c-0.1,0.1-0.1,0.2,0,0.2
						c0.1,0.1,0.1,0,0.2,0c0.4-0.1,1.4,0.6,2.2,1.3c-0.8,0.8-1.9,1.6-2.3,1.5c-0.1,0-0.2-0.1-0.2,0c-0.1,0.1-0.1,0.2,0,0.2l0.6,0.6
						l0.6,0.6c0.1,0.1,0.2,0.1,0.2,0c0.1-0.1,0-0.2,0-0.2c-0.1-0.4,0.8-1.5,1.5-2.3c0.7,0.7,1.5,1.8,1.3,2.2c0,0.1-0.1,0.2,0,0.2
						c0.1,0.1,0.2,0.1,0.2,0l0.6-0.7l0.6-0.6c0.1-0.1,0.1-0.2,0-0.2c-0.1-0.1-0.1,0-0.2,0c-0.4,0.1-1.4-0.6-2.2-1.3
						c0.8-0.8,1.9-1.6,2.3-1.5c0.1,0,0.2,0.1,0.2,0c0.1-0.1,0.1-0.2,0-0.2L22.9,162.8z"/>
					<path class="st5" d="M33.6,162.8l-0.6-0.6c-0.1-0.1-0.2-0.1-0.2,0c-0.1,0.1,0,0.1,0,0.2c0.1,0.4-0.8,1.5-1.5,2.3
						c-0.7-0.7-1.5-1.8-1.3-2.2c0-0.1,0.1-0.2,0-0.2c-0.1-0.1-0.2-0.1-0.2,0L29,163l-0.6,0.7c-0.1,0.1-0.1,0.2,0,0.2
						c0.1,0.1,0.1,0,0.2,0c0.4-0.1,1.4,0.6,2.2,1.3c-0.8,0.8-1.9,1.6-2.3,1.5c-0.1,0-0.2-0.1-0.2,0c-0.1,0.1-0.1,0.2,0,0.2l0.6,0.6
						l0.6,0.6c0.1,0.1,0.2,0.1,0.2,0c0.1-0.1,0-0.2,0-0.2c-0.1-0.4,0.8-1.5,1.5-2.3c0.7,0.7,1.5,1.8,1.3,2.2c0,0.1-0.1,0.2,0,0.2
						c0.1,0.1,0.2,0.1,0.2,0l0.6-0.7l0.6-0.6c0.1-0.1,0.1-0.2,0-0.2c-0.1-0.1-0.1,0-0.2,0c-0.4,0.1-1.4-0.6-2.2-1.3
						c0.8-0.8,1.9-1.6,2.3-1.5c0.1,0,0.2,0.1,0.2,0c0.1-0.1,0.1-0.2,0-0.2L33.6,162.8z"/>
					<path class="st5" d="M44.4,162.8l-0.6-0.6c-0.1-0.1-0.2-0.1-0.2,0c-0.1,0.1,0,0.1,0,0.2c0.1,0.4-0.8,1.5-1.5,2.3
						c-0.7-0.7-1.5-1.8-1.3-2.2c0-0.1,0.1-0.2,0-0.2c-0.1-0.1-0.2-0.1-0.2,0l-0.6,0.6l-0.6,0.7c-0.1,0.1-0.1,0.2,0,0.2
						c0.1,0.1,0.1,0,0.2,0c0.4-0.1,1.4,0.6,2.2,1.3c-0.8,0.8-1.9,1.6-2.3,1.5c-0.1,0-0.2-0.1-0.2,0c-0.1,0.1-0.1,0.2,0,0.2l0.6,0.6
						l0.6,0.6c0.1,0.1,0.2,0.1,0.2,0c0.1-0.1,0-0.2,0-0.2c-0.1-0.4,0.8-1.5,1.5-2.3c0.7,0.7,1.5,1.8,1.3,2.2c0,0.1-0.1,0.2,0,0.2
						c0.1,0.1,0.2,0.1,0.2,0l0.6-0.7l0.6-0.6c0.1-0.1,0.1-0.2,0-0.2c-0.1-0.1-0.1,0-0.2,0c-0.4,0.1-1.4-0.6-2.2-1.3
						c0.8-0.8,1.9-1.6,2.3-1.5c0.1,0,0.2,0.1,0.2,0c0.1-0.1,0.1-0.2,0-0.2L44.4,162.8z"/>
					<path class="st5" d="M76.6,162.8l-0.6-0.6c-0.1-0.1-0.2-0.1-0.2,0c-0.1,0.1,0,0.1,0,0.2c0.1,0.4-0.8,1.5-1.5,2.3
						c-0.7-0.7-1.5-1.8-1.3-2.2c0-0.1,0.1-0.2,0-0.2c-0.1-0.1-0.2-0.1-0.2,0L72,163l-0.6,0.7c-0.1,0.1-0.1,0.2,0,0.2
						c0.1,0.1,0.1,0,0.2,0c0.4-0.1,1.4,0.6,2.2,1.3c-0.8,0.8-1.9,1.6-2.3,1.5c-0.1,0-0.2-0.1-0.2,0c-0.1,0.1-0.1,0.2,0,0.2l0.6,0.6
						l0.6,0.6c0.1,0.1,0.2,0.1,0.2,0c0.1-0.1,0-0.2,0-0.2c-0.1-0.4,0.8-1.5,1.5-2.3c0.7,0.7,1.5,1.8,1.3,2.2c0,0.1-0.1,0.2,0,0.2
						c0.1,0.1,0.2,0.1,0.2,0l0.6-0.7l0.6-0.6c0.1-0.1,0.1-0.2,0-0.2c-0.1-0.1-0.1,0-0.2,0c-0.4,0.1-1.4-0.6-2.2-1.3
						c0.8-0.8,1.9-1.6,2.3-1.5c0.1,0,0.2,0.1,0.2,0c0.1-0.1,0.1-0.2,0-0.2L76.6,162.8z"/>
					<path class="st5" d="M87.3,162.8l-0.6-0.6c-0.1-0.1-0.2-0.1-0.2,0c-0.1,0.1,0,0.1,0,0.2c0.1,0.4-0.8,1.5-1.5,2.3
						c-0.7-0.7-1.5-1.8-1.3-2.2c0-0.1,0.1-0.2,0-0.2c-0.1-0.1-0.2-0.1-0.2,0l-0.6,0.6l-0.6,0.7c-0.1,0.1-0.1,0.2,0,0.2
						c0.1,0.1,0.1,0,0.2,0c0.4-0.1,1.4,0.6,2.2,1.3c-0.8,0.8-1.9,1.6-2.3,1.5c-0.1,0-0.2-0.1-0.2,0c-0.1,0.1-0.1,0.2,0,0.2l0.6,0.6
						l0.6,0.6c0.1,0.1,0.2,0.1,0.2,0c0.1-0.1,0-0.2,0-0.2c-0.1-0.4,0.8-1.5,1.5-2.3c0.7,0.7,1.5,1.8,1.3,2.2c0,0.1-0.1,0.2,0,0.2
						c0.1,0.1,0.2,0.1,0.2,0l0.6-0.7l0.6-0.6c0.1-0.1,0.1-0.2,0-0.2c-0.1-0.1-0.1,0-0.2,0c-0.4,0.1-1.4-0.6-2.2-1.3
						c0.8-0.8,1.9-1.6,2.3-1.5c0.1,0,0.2,0.1,0.2,0c0.1-0.1,0.1-0.2,0-0.2L87.3,162.8z"/>
					<path class="st5" d="M98.1,162.8l-0.6-0.6c-0.1-0.1-0.2-0.1-0.2,0c-0.1,0.1,0,0.1,0,0.2c0.1,0.4-0.8,1.5-1.5,2.3
						c-0.7-0.7-1.5-1.8-1.3-2.2c0-0.1,0.1-0.2,0-0.2c-0.1-0.1-0.2-0.1-0.2,0l-0.6,0.6l-0.6,0.7c-0.1,0.1-0.1,0.2,0,0.2
						c0.1,0.1,0.1,0,0.2,0c0.4-0.1,1.4,0.6,2.2,1.3c-0.8,0.8-1.9,1.6-2.3,1.5c-0.1,0-0.2-0.1-0.2,0c-0.1,0.1-0.1,0.2,0,0.2l0.6,0.6
						l0.6,0.6c0.1,0.1,0.2,0.1,0.2,0c0.1-0.1,0-0.2,0-0.2c-0.1-0.4,0.8-1.5,1.5-2.3c0.7,0.7,1.5,1.8,1.3,2.2c0,0.1-0.1,0.2,0,0.2
						c0.1,0.1,0.2,0.1,0.2,0l0.6-0.7l0.6-0.6c0.1-0.1,0.1-0.2,0-0.2c-0.1-0.1-0.1,0-0.2,0c-0.4,0.1-1.4-0.6-2.2-1.3
						c0.8-0.8,1.9-1.6,2.3-1.5c0.1,0,0.2,0.1,0.2,0c0.1-0.1,0.1-0.2,0-0.2L98.1,162.8z"/>
					<path class="st5" d="M108.8,162.8l-0.6-0.6c-0.1-0.1-0.2-0.1-0.2,0c-0.1,0.1,0,0.1,0,0.2c0.1,0.4-0.8,1.5-1.5,2.3
						c-0.7-0.7-1.5-1.8-1.3-2.2c0-0.1,0.1-0.2,0-0.2c-0.1-0.1-0.2-0.1-0.2,0l-0.6,0.6l-0.6,0.7c-0.1,0.1-0.1,0.2,0,0.2
						c0.1,0.1,0.1,0,0.2,0c0.4-0.1,1.4,0.6,2.2,1.3c-0.8,0.8-1.9,1.6-2.3,1.5c-0.1,0-0.2-0.1-0.2,0c-0.1,0.1-0.1,0.2,0,0.2l0.6,0.6
						l0.6,0.6c0.1,0.1,0.2,0.1,0.2,0c0.1-0.1,0-0.2,0-0.2c-0.1-0.4,0.8-1.5,1.5-2.3c0.7,0.7,1.5,1.8,1.3,2.2c0,0.1-0.1,0.2,0,0.2
						c0.1,0.1,0.2,0.1,0.2,0l0.6-0.7l0.6-0.6c0.1-0.1,0.1-0.2,0-0.2c-0.1-0.1-0.1,0-0.2,0c-0.4,0.1-1.4-0.6-2.2-1.3
						c0.8-0.8,1.9-1.6,2.3-1.5c0.1,0,0.2,0.1,0.2,0c0.1-0.1,0.1-0.2,0-0.2L108.8,162.8z"/>
					<path class="st5" d="M115.8,162.6c0-0.1,0.1-0.2,0-0.2c-0.1-0.1-0.2-0.1-0.2,0L115,163l-0.6,0.7c-0.1,0.1-0.1,0.2,0,0.2
						c0.1,0.1,0.1,0,0.2,0c0.3-0.1,0.9,0.3,1.5,0.7v-1.4C115.9,163,115.8,162.8,115.8,162.6z"/>
					<path class="st5" d="M114.4,166.8c-0.1,0-0.2-0.1-0.2,0c-0.1,0.1-0.1,0.2,0,0.2l0.6,0.6l0.6,0.6c0.1,0.1,0.2,0.1,0.2,0
						c0.1-0.1,0-0.2,0-0.2c0-0.2,0.1-0.5,0.4-0.9v-1.1C115.4,166.4,114.7,166.9,114.4,166.8z"/>
					<path class="st5" d="M12.7,174.2c0.1-0.1,0.1-0.2,0-0.2l-0.6-0.6l-0.6-0.6c-0.1-0.1-0.2-0.1-0.2,0c-0.1,0.1,0,0.1,0,0.2
						c0.1,0.3-0.6,1.2-1.2,2h1c0.6-0.5,1.2-0.9,1.5-0.8C12.6,174.2,12.6,174.3,12.7,174.2z"/>
					<path class="st5" d="M8.4,173.1c0-0.1,0.1-0.2,0-0.2c-0.1-0.1-0.2-0.1-0.2,0l-0.6,0.6l-0.6,0.7c-0.1,0.1-0.1,0.2,0,0.2
						c0.1,0.1,0.1,0,0.2,0c0.2-0.1,0.7,0.2,1.2,0.6h1.1C8.9,174.3,8.3,173.5,8.4,173.1z"/>
					<path class="st5" d="M-2.6,173.1c0-0.1,0.1-0.2,0-0.2c-0.1-0.1-0.2-0.1-0.2,0l-0.6,0.6l-0.6,0.7c-0.1,0.1-0.1,0.2,0,0.2
						c0.1,0.1,0.1,0,0.2,0c0.2-0.1,0.7,0.2,1.2,0.6h1.1C-2.1,174.3-2.7,173.5-2.6,173.1z"/>
					<path class="st5" d="M1.7,174.2c0.1-0.1,0.1-0.2,0-0.2l-0.6-0.6l-0.6-0.6c-0.1-0.1-0.2-0.1-0.2,0c-0.1,0.1,0,0.1,0,0.2
						c0.1,0.3-0.6,1.2-1.2,2h1c0.6-0.5,1.2-0.9,1.5-0.8C1.6,174.2,1.7,174.3,1.7,174.2z"/>
					<path class="st5" d="M23.5,174.2c0.1-0.1,0.1-0.2,0-0.2l-0.6-0.6l-0.6-0.6c-0.1-0.1-0.2-0.1-0.2,0c-0.1,0.1,0,0.1,0,0.2
						c0.1,0.3-0.6,1.2-1.2,2h1c0.6-0.5,1.2-0.9,1.5-0.8C23.3,174.2,23.4,174.3,23.5,174.2z"/>
					<path class="st5" d="M19.2,173.1c0-0.1,0.1-0.2,0-0.2c-0.1-0.1-0.2-0.1-0.2,0l-0.6,0.6l-0.6,0.7c-0.1,0.1-0.1,0.2,0,0.2
						c0.1,0.1,0.1,0,0.2,0c0.2-0.1,0.7,0.2,1.2,0.6h1.1C19.6,174.3,19.1,173.5,19.2,173.1z"/>
					<path class="st5" d="M29.9,173.1c0-0.1,0.1-0.2,0-0.2c-0.1-0.1-0.2-0.1-0.2,0l-0.6,0.6l-0.6,0.7c-0.1,0.1-0.1,0.2,0,0.2
						c0.1,0.1,0.1,0,0.2,0c0.2-0.1,0.7,0.2,1.2,0.6h1.1C30.3,174.3,29.8,173.5,29.9,173.1z"/>
					<path class="st5" d="M34.2,174.2c0.1-0.1,0.1-0.2,0-0.2l-0.6-0.6l-0.6-0.6c-0.1-0.1-0.2-0.1-0.2,0c-0.1,0.1,0,0.1,0,0.2
						c0.1,0.3-0.6,1.2-1.2,2h1c0.6-0.5,1.2-0.9,1.5-0.8C34,174.2,34.1,174.3,34.2,174.2z"/>
					<path class="st5" d="M40.7,173.1c0-0.1,0.1-0.2,0-0.2c-0.1-0.1-0.2-0.1-0.2,0l-0.6,0.6l-0.6,0.7c-0.1,0.1-0.1,0.2,0,0.2
						c0.1,0.1,0.1,0,0.2,0c0.2-0.1,0.7,0.2,1.2,0.6h1.1C41.1,174.3,40.5,173.5,40.7,173.1z"/>
					<path class="st5" d="M44.9,174.2c0.1-0.1,0.1-0.2,0-0.2l-0.6-0.6l-0.6-0.6c-0.1-0.1-0.2-0.1-0.2,0c-0.1,0.1,0,0.1,0,0.2
						c0.1,0.3-0.6,1.2-1.2,2h1c0.6-0.5,1.2-0.9,1.5-0.8C44.8,174.2,44.9,174.3,44.9,174.2z"/>
					<path class="st5" d="M51.4,173.1c0-0.1,0.1-0.2,0-0.2c-0.1-0.1-0.2-0.1-0.2,0l-0.6,0.6l-0.6,0.7c-0.1,0.1-0.1,0.2,0,0.2
						c0.1,0.1,0.1,0,0.2,0c0.2-0.1,0.7,0.2,1.2,0.6h1.1C51.8,174.3,51.3,173.5,51.4,173.1z"/>
					<path class="st5" d="M55.7,174.2c0.1-0.1,0.1-0.2,0-0.2l-0.6-0.6l-0.6-0.6c-0.1-0.1-0.2-0.1-0.2,0c-0.1,0.1,0,0.1,0,0.2
						c0.1,0.3-0.6,1.2-1.2,2h1c0.6-0.5,1.2-0.9,1.5-0.8C55.5,174.2,55.6,174.3,55.7,174.2z"/>
					<path class="st5" d="M66.4,174.2c0.1-0.1,0.1-0.2,0-0.2l-0.6-0.6l-0.6-0.6c-0.1-0.1-0.2-0.1-0.2,0c-0.1,0.1,0,0.1,0,0.2
						c0.1,0.3-0.6,1.2-1.2,2h1c0.6-0.5,1.2-0.9,1.5-0.8C66.3,174.2,66.3,174.3,66.4,174.2z"/>
					<path class="st5" d="M62.1,173.1c0-0.1,0.1-0.2,0-0.2c-0.1-0.1-0.2-0.1-0.2,0l-0.6,0.6l-0.6,0.7c-0.1,0.1-0.1,0.2,0,0.2
						c0.1,0.1,0.1,0,0.2,0c0.2-0.1,0.7,0.2,1.2,0.6h1.1C62.6,174.3,62,173.5,62.1,173.1z"/>
					<path class="st5" d="M77.2,174.2c0.1-0.1,0.1-0.2,0-0.2l-0.6-0.6l-0.6-0.6c-0.1-0.1-0.2-0.1-0.2,0c-0.1,0.1,0,0.1,0,0.2
						c0.1,0.3-0.6,1.2-1.2,2h1c0.6-0.5,1.2-0.9,1.5-0.8C77,174.2,77.1,174.3,77.2,174.2z"/>
					<path class="st5" d="M72.9,173.1c0-0.1,0.1-0.2,0-0.2c-0.1-0.1-0.2-0.1-0.2,0l-0.6,0.6l-0.6,0.7c-0.1,0.1-0.1,0.2,0,0.2
						c0.1,0.1,0.1,0,0.2,0c0.2-0.1,0.7,0.2,1.2,0.6h1.1C73.3,174.3,72.8,173.5,72.9,173.1z"/>
					<path class="st5" d="M87.9,174.2c0.1-0.1,0.1-0.2,0-0.2l-0.6-0.6l-0.6-0.6c-0.1-0.1-0.2-0.1-0.2,0c-0.1,0.1,0,0.1,0,0.2
						c0.1,0.3-0.6,1.2-1.2,2h1c0.6-0.5,1.2-0.9,1.5-0.8C87.8,174.2,87.8,174.3,87.9,174.2z"/>
					<path class="st5" d="M83.6,173.1c0-0.1,0.1-0.2,0-0.2c-0.1-0.1-0.2-0.1-0.2,0l-0.6,0.6l-0.6,0.7c-0.1,0.1-0.1,0.2,0,0.2
						c0.1,0.1,0.1,0,0.2,0c0.2-0.1,0.7,0.2,1.2,0.6h1.1C84,174.3,83.5,173.5,83.6,173.1z"/>
					<path class="st5" d="M98.6,174.2c0.1-0.1,0.1-0.2,0-0.2l-0.6-0.6l-0.6-0.6c-0.1-0.1-0.2-0.1-0.2,0c-0.1,0.1,0,0.1,0,0.2
						c0.1,0.3-0.6,1.2-1.2,2h1c0.6-0.5,1.2-0.9,1.5-0.8C98.5,174.2,98.6,174.3,98.6,174.2z"/>
					<path class="st5" d="M94.4,173.1c0-0.1,0.1-0.2,0-0.2c-0.1-0.1-0.2-0.1-0.2,0l-0.6,0.6l-0.6,0.7c-0.1,0.1-0.1,0.2,0,0.2
						c0.1,0.1,0.1,0,0.2,0c0.2-0.1,0.7,0.2,1.2,0.6h1.1C94.8,174.3,94.2,173.5,94.4,173.1z"/>
					<path class="st5" d="M105.1,173.1c0-0.1,0.1-0.2,0-0.2c-0.1-0.1-0.2-0.1-0.2,0l-0.6,0.6l-0.6,0.7c-0.1,0.1-0.1,0.2,0,0.2
						c0.1,0.1,0.1,0,0.2,0c0.2-0.1,0.7,0.2,1.2,0.6h1.1C105.5,174.3,105,173.5,105.1,173.1z"/>
					<path class="st5" d="M109.4,174.2c0.1-0.1,0.1-0.2,0-0.2l-0.6-0.6l-0.6-0.6c-0.1-0.1-0.2-0.1-0.2,0c-0.1,0.1,0,0.1,0,0.2
						c0.1,0.3-0.6,1.2-1.2,2h1c0.6-0.5,1.2-0.9,1.5-0.8C109.2,174.2,109.3,174.3,109.4,174.2z"/>
					<path class="st5" d="M116,173.8c-0.1-0.3-0.2-0.5-0.2-0.6c0-0.1,0.1-0.2,0-0.2c-0.1-0.1-0.2-0.1-0.2,0l-0.6,0.6l-0.6,0.7
						c-0.1,0.1-0.1,0.2,0,0.2c0.1,0.1,0.1,0,0.2,0c0.2-0.1,0.7,0.2,1.2,0.6h0.2V173.8z"/>
				</g>
			</g>
		</g>
	</g>
	<g>
		<path class="st6" d="M95.5,23.3h-2C84.8,12.7,72.1,6.6,58.5,6.6h-1.7c-13.6,0-26.3,6.1-34.9,16.7h-1.3c-7.7,0-14,6.3-14,14.1v95.5
			c0,7,5.1,12.9,11.9,13.9c8.3,13.5,22.6,21.6,38.4,21.6h1.7c15.7,0,30-8,38.3-21.5c7.1-0.7,12.6-6.8,12.6-14V37.4
			C109.5,29.6,103.2,23.3,95.5,23.3z M108.3,132.9c0,6.7-5.2,12.4-11.9,12.9l-0.3,0l-0.2,0.3c-8.1,13.3-22.1,21.2-37.5,21.2h-1.7
			c-15.4,0-29.5-7.9-37.5-21.3l-0.1-0.2l-0.3,0c-6.4-0.8-11.2-6.3-11.2-12.8V37.4c0-7.1,5.8-12.9,12.8-12.9h1.9l0.2-0.2
			C31,13.7,43.4,7.7,56.8,7.7h1.7c13.4,0,25.8,6,34.2,16.5l0.2,0.2h2.6c7.1,0,12.8,5.8,12.8,12.9V132.9z"/>
	</g>
	<g>
		<rect x="10.6" y="79.8" class="st6" width="0.8" height="1.5"/>
		<path class="st6" d="M37.5,159c0.5,0.2,0.9,0.5,1.4,0.7l0.3-0.7c-0.5-0.2-0.9-0.5-1.4-0.7L37.5,159z"/>
		<rect x="10.6" y="107.4" class="st6" width="0.8" height="1.5"/>
		<rect x="10.6" y="109.7" class="st6" width="0.8" height="1.5"/>
		<rect x="10.6" y="105.1" class="st6" width="0.8" height="1.5"/>
		<rect x="10.6" y="112" class="st6" width="0.8" height="1.5"/>
		<rect x="10.6" y="128.1" class="st6" width="0.8" height="1.5"/>
		<rect x="10.6" y="118.9" class="st6" width="0.8" height="1.5"/>
		<rect x="10.6" y="125.8" class="st6" width="0.8" height="1.5"/>
		<rect x="10.6" y="123.5" class="st6" width="0.8" height="1.5"/>
		<rect x="10.6" y="121.2" class="st6" width="0.8" height="1.5"/>
		<rect x="10.6" y="100.5" class="st6" width="0.8" height="1.5"/>
		<rect x="10.6" y="89" class="st6" width="0.8" height="1.5"/>
		<rect x="10.6" y="86.7" class="st6" width="0.8" height="1.5"/>
		<rect x="10.6" y="84.4" class="st6" width="0.8" height="1.5"/>
		<rect x="10.6" y="82.1" class="st6" width="0.8" height="1.5"/>
		<rect x="10.6" y="102.8" class="st6" width="0.8" height="1.5"/>
		<rect x="10.6" y="91.3" class="st6" width="0.8" height="1.5"/>
		<rect x="10.6" y="93.6" class="st6" width="0.8" height="1.5"/>
		<rect x="10.6" y="98.2" class="st6" width="0.8" height="1.5"/>
		<rect x="10.6" y="130.4" class="st6" width="0.8" height="1.5"/>
		<rect x="10.6" y="95.9" class="st6" width="0.8" height="1.5"/>
		<rect x="10.6" y="114.3" class="st6" width="0.8" height="1.5"/>
		<path class="st6" d="M27.1,150l-0.6,0.5c0.3,0.4,0.7,0.8,1.1,1.1l0.5-0.5C27.8,150.7,27.4,150.3,27.1,150z"/>
		<path class="st6" d="M28.1,152.1c0.4,0.4,0.7,0.7,1.1,1.1l0.5-0.6c-0.4-0.3-0.7-0.7-1.1-1L28.1,152.1z"/>
		<path class="st6" d="M24.2,146.4l-0.6,0.5c0.3,0.4,0.6,0.8,0.9,1.2l0.6-0.5C24.8,147.2,24.5,146.8,24.2,146.4z"/>
		<path class="st6" d="M29.8,153.7c0.4,0.3,0.8,0.7,1.2,1l0.5-0.6c-0.4-0.3-0.8-0.6-1.2-1L29.8,153.7z"/>
		<path class="st6" d="M25.6,148.2l-0.6,0.5c0.3,0.4,0.7,0.8,1,1.2l0.6-0.5C26.3,149,25.9,148.6,25.6,148.2z"/>
		<path class="st6" d="M33.5,156.6c0.4,0.3,0.9,0.6,1.3,0.9l0.4-0.6c-0.4-0.3-0.8-0.6-1.3-0.8L33.5,156.6z"/>
		<path class="st6" d="M35.6,17.1l0.4,0.7c0.4-0.3,0.9-0.5,1.3-0.8l-0.4-0.7C36.5,16.6,36,16.8,35.6,17.1z"/>
		<path class="st6" d="M35.4,157.8c0.4,0.3,0.9,0.5,1.3,0.8l0.4-0.7c-0.4-0.2-0.9-0.5-1.3-0.8L35.4,157.8z"/>
		<path class="st6" d="M22.9,144.6l-0.6,0.4c0.3,0.4,0.6,0.9,0.9,1.3l0.6-0.4C23.5,145.4,23.2,145,22.9,144.6z"/>
		<path class="st6" d="M31.8,19.7l0.5,0.6c0.4-0.3,0.8-0.6,1.2-0.9L33,18.8C32.6,19.1,32.2,19.4,31.8,19.7z"/>
		<path class="st6" d="M33.7,18.3l0.4,0.6c0.4-0.3,0.8-0.6,1.3-0.8l-0.4-0.6C34.5,17.8,34.1,18.1,33.7,18.3z"/>
		<path class="st6" d="M11.3,132.7l-0.8,0c0,0.5,0.1,1.1,0.1,1.6l0.8-0.1C11.4,133.7,11.3,133.2,11.3,132.7z"/>
		
			<rect x="21.4" y="142.7" transform="matrix(0.8542 -0.5199 0.5199 0.8542 -71.4095 32.2574)" class="st6" width="0.8" height="1.5"/>
		<path class="st6" d="M16.6,29.5l-0.3-0.7c-0.5,0.2-0.9,0.5-1.4,0.8l0.4,0.6C15.7,29.9,16.2,29.7,16.6,29.5z"/>
		<path class="st6" d="M12.4,136.9l-0.7,0.4c0.3,0.5,0.5,0.9,0.9,1.3l0.6-0.5C12.9,137.8,12.7,137.3,12.4,136.9z"/>
		<path class="st6" d="M14.9,140.8c0.4,0.3,0.9,0.6,1.4,0.8l0.3-0.7c-0.4-0.2-0.9-0.5-1.3-0.7L14.9,140.8z"/>
		<path class="st6" d="M11.6,134.9l-0.7,0.2c0.1,0.5,0.3,1,0.5,1.5l0.7-0.3C11.9,135.8,11.8,135.3,11.6,134.9z"/>
		<path class="st6" d="M13.7,138.7l-0.6,0.5c0.4,0.4,0.7,0.8,1.2,1.1l0.5-0.6C14.4,139.4,14,139.1,13.7,138.7z"/>
		<path class="st6" d="M18.7,28.8L18.5,28c-0.5,0.1-1,0.3-1.5,0.4l0.3,0.7C17.7,29,18.2,28.9,18.7,28.8z"/>
		<path class="st6" d="M20.5,28.6h0.4v-0.8h-0.4c-0.4,0-0.8,0-1.2,0.1l0.1,0.8C19.8,28.6,20.2,28.6,20.5,28.6z"/>
		
			<rect x="19.8" y="141.4" transform="matrix(0.1298 -0.9915 0.9915 0.1298 -123.4081 143.7227)" class="st6" width="0.8" height="1.5"/>
		<path class="st6" d="M17.1,141.9c0.5,0.2,1,0.3,1.5,0.4l0.1-0.8c-0.5-0.1-1-0.2-1.4-0.4L17.1,141.9z"/>
		<rect x="10.6" y="116.6" class="st6" width="0.8" height="1.5"/>
		<path class="st6" d="M77.1,15.7c-0.5-0.2-0.9-0.5-1.4-0.7l-0.3,0.7c0.5,0.2,0.9,0.4,1.4,0.7L77.1,15.7z"/>
		<path class="st6" d="M75,14.7c-0.5-0.2-0.9-0.4-1.4-0.6l-0.3,0.7c0.5,0.2,0.9,0.4,1.4,0.6L75,14.7z"/>
		<path class="st6" d="M72.9,13.8c-0.5-0.2-1-0.4-1.5-0.5L71.2,14c0.5,0.2,1,0.3,1.4,0.5L72.9,13.8z"/>
		<path class="st6" d="M81.1,18c-0.4-0.3-0.9-0.6-1.3-0.8l-0.4,0.7c0.4,0.3,0.9,0.5,1.3,0.8L81.1,18z"/>
		<path class="st6" d="M79.2,16.8c-0.4-0.3-0.9-0.5-1.4-0.8l-0.4,0.7c0.4,0.2,0.9,0.5,1.3,0.7L79.2,16.8z"/>
		<path class="st6" d="M28.3,23.8l-0.5-0.5c-0.4,0.4-0.7,0.7-1.1,1.1l0.6,0.5C27.6,24.6,27.9,24.2,28.3,23.8z"/>
		<path class="st6" d="M56.8,12h0.1v-0.8h-0.1c-0.5,0-0.9,0-1.4,0l0,0.8C55.9,12,56.3,12,56.8,12z"/>
		<path class="st6" d="M26.7,25.5L26.1,25c-0.3,0.4-0.7,0.8-1,1.2l0.6,0.5C26,26.3,26.4,25.9,26.7,25.5z"/>
		<rect x="10.6" y="77.5" class="st6" width="0.8" height="1.5"/>
		<path class="st6" d="M29.9,22.3l-0.5-0.6c-0.4,0.3-0.8,0.7-1.1,1.1l0.5,0.5C29.2,23,29.5,22.6,29.9,22.3z"/>
		<path class="st6" d="M31.6,20.8l-0.5-0.6c-0.4,0.3-0.8,0.7-1.2,1l0.5,0.6C30.9,21.4,31.3,21.1,31.6,20.8z"/>
		<rect x="93.7" y="27.8" class="st6" width="1.5" height="0.8"/>
		<polygon class="st6" points="24,28.6 24.2,28.6 25.2,27.2 24.6,26.8 23.7,28 24,28.2 		"/>
		<path class="st6" d="M103.5,31.9c-0.3-0.4-0.7-0.8-1-1.2l-0.5,0.5c0.3,0.3,0.7,0.7,1,1.1L103.5,31.9z"/>
		<path class="st6" d="M101.9,30.2c-0.4-0.3-0.8-0.7-1.3-0.9l-0.4,0.7c0.4,0.3,0.8,0.5,1.2,0.9L101.9,30.2z"/>
		<path class="st6" d="M84.8,20.8c-0.4-0.3-0.8-0.7-1.2-1l-0.5,0.6c0.4,0.3,0.8,0.6,1.2,1L84.8,20.8z"/>
		<path class="st6" d="M104,34.3l0.7-0.3c-0.2-0.5-0.4-1-0.7-1.4l-0.7,0.4C103.6,33.4,103.8,33.8,104,34.3z"/>
		<path class="st6" d="M104.6,36.4l0.8-0.1c-0.1-0.5-0.2-1-0.4-1.5l-0.7,0.2C104.4,35.4,104.5,35.9,104.6,36.4z"/>
		<path class="st6" d="M88.2,23.9c-0.4-0.4-0.7-0.7-1.1-1.1l-0.5,0.5c0.4,0.4,0.7,0.7,1.1,1.1L88.2,23.9z"/>
		<path class="st6" d="M86.6,22.3c-0.4-0.4-0.8-0.7-1.1-1l-0.5,0.6c0.4,0.3,0.8,0.7,1.1,1L86.6,22.3z"/>
		<rect x="91.4" y="27.8" class="st6" width="1.5" height="0.8"/>
		<polygon class="st6" points="90.6,27.9 91.2,27.4 90.3,26.2 89.7,26.7 		"/>
		<path class="st6" d="M89.2,26.1l0.6-0.5c-0.3-0.4-0.7-0.8-1-1.2L88.2,25C88.5,25.4,88.8,25.8,89.2,26.1z"/>
		<path class="st6" d="M83,19.3c-0.4-0.3-0.8-0.6-1.3-0.9L81.3,19c0.4,0.3,0.8,0.6,1.2,0.9L83,19.3z"/>
		<rect x="10.6" y="61.4" class="st6" width="0.8" height="1.5"/>
		<rect x="10.6" y="63.7" class="st6" width="0.8" height="1.5"/>
		<rect x="10.6" y="59.1" class="st6" width="0.8" height="1.5"/>
		<rect x="10.6" y="52.2" class="st6" width="0.8" height="1.5"/>
		<rect x="10.6" y="56.8" class="st6" width="0.8" height="1.5"/>
		<rect x="10.6" y="54.5" class="st6" width="0.8" height="1.5"/>
		<rect x="10.6" y="75.2" class="st6" width="0.8" height="1.5"/>
		<rect x="10.6" y="72.9" class="st6" width="0.8" height="1.5"/>
		<rect x="10.6" y="70.6" class="st6" width="0.8" height="1.5"/>
		<rect x="10.6" y="66" class="st6" width="0.8" height="1.5"/>
		<rect x="10.6" y="68.3" class="st6" width="0.8" height="1.5"/>
		<path class="st6" d="M12.1,34.1l-0.7-0.3c-0.2,0.5-0.4,1-0.5,1.5l0.7,0.2C11.7,35,11.9,34.6,12.1,34.1z"/>
		<path class="st6" d="M11.5,36.2l-0.8-0.1c-0.1,0.5-0.1,1.1-0.1,1.6l0.8,0C11.3,37.2,11.4,36.7,11.5,36.2z"/>
		<rect x="10.6" y="38.5" class="st6" width="0.8" height="1.5"/>
		<rect x="21.7" y="27.8" class="st6" width="1.5" height="0.8"/>
		<path class="st6" d="M14.7,30.6L14.3,30c-0.4,0.3-0.8,0.7-1.2,1.1l0.6,0.5C14,31.3,14.4,30.9,14.7,30.6z"/>
		<path class="st6" d="M13.2,32.2l-0.6-0.5c-0.3,0.4-0.6,0.9-0.9,1.3l0.7,0.4C12.6,33,12.9,32.6,13.2,32.2z"/>
		<rect x="10.6" y="40.8" class="st6" width="0.8" height="1.5"/>
		<rect x="10.6" y="49.9" class="st6" width="0.8" height="1.5"/>
		<rect x="10.6" y="45.3" class="st6" width="0.8" height="1.5"/>
		<rect x="10.6" y="47.6" class="st6" width="0.8" height="1.5"/>
		<rect x="10.6" y="43" class="st6" width="0.8" height="1.5"/>
		<path class="st6" d="M31.6,155.2c0.4,0.3,0.8,0.6,1.2,0.9l0.4-0.6c-0.4-0.3-0.8-0.6-1.2-0.9L31.6,155.2z"/>
		<rect x="104.7" y="103.8" class="st6" width="0.8" height="1.5"/>
		<rect x="104.7" y="106" class="st6" width="0.8" height="1.5"/>
		<rect x="104.7" y="101.5" class="st6" width="0.8" height="1.5"/>
		<rect x="104.7" y="108.3" class="st6" width="0.8" height="1.5"/>
		<rect x="104.7" y="110.6" class="st6" width="0.8" height="1.5"/>
		<rect x="104.7" y="92.3" class="st6" width="0.8" height="1.5"/>
		<rect x="104.7" y="112.9" class="st6" width="0.8" height="1.5"/>
		<rect x="104.7" y="90" class="st6" width="0.8" height="1.5"/>
		<rect x="104.7" y="94.6" class="st6" width="0.8" height="1.5"/>
		<rect x="104.7" y="96.9" class="st6" width="0.8" height="1.5"/>
		<rect x="104.7" y="99.2" class="st6" width="0.8" height="1.5"/>
		<path class="st6" d="M104.7,132.6c0,0.1,0,0.2,0,0.3l0.8,0c0-0.1,0-0.2,0-0.3v-1.2h-0.8V132.6z"/>
		<rect x="104.7" y="87.7" class="st6" width="0.8" height="1.5"/>
		<path class="st6" d="M104.3,135l0.7,0.2c0.1-0.5,0.2-1,0.3-1.6l-0.8-0.1C104.6,134.1,104.5,134.6,104.3,135z"/>
		<rect x="104.7" y="129" class="st6" width="0.8" height="1.5"/>
		<path class="st6" d="M102.2,138.8l0.6,0.5c0.4-0.4,0.7-0.8,1-1.2l-0.6-0.4C102.8,138.1,102.5,138.5,102.2,138.8z"/>
		<path class="st6" d="M103.5,137.1l0.7,0.4c0.3-0.5,0.5-0.9,0.7-1.4l-0.7-0.3C103.9,136.2,103.7,136.6,103.5,137.1z"/>
		<rect x="104.7" y="119.8" class="st6" width="0.8" height="1.5"/>
		<rect x="104.7" y="115.2" class="st6" width="0.8" height="1.5"/>
		<rect x="104.7" y="117.5" class="st6" width="0.8" height="1.5"/>
		<rect x="104.7" y="122.1" class="st6" width="0.8" height="1.5"/>
		<rect x="104.7" y="126.7" class="st6" width="0.8" height="1.5"/>
		<rect x="104.7" y="124.4" class="st6" width="0.8" height="1.5"/>
		<rect x="104.7" y="73.9" class="st6" width="0.8" height="1.5"/>
		<rect x="104.7" y="60.1" class="st6" width="0.8" height="1.5"/>
		<rect x="104.7" y="53.2" class="st6" width="0.8" height="1.5"/>
		<rect x="104.7" y="50.9" class="st6" width="0.8" height="1.5"/>
		<rect x="104.7" y="57.8" class="st6" width="0.8" height="1.5"/>
		<rect x="104.7" y="55.5" class="st6" width="0.8" height="1.5"/>
		<rect x="104.7" y="48.6" class="st6" width="0.8" height="1.5"/>
		<rect x="104.7" y="46.3" class="st6" width="0.8" height="1.5"/>
		<path class="st6" d="M104.6,37.1c0,0.2,0,0.4,0,0.7v0.8h0.8v-0.8c0-0.2,0-0.5,0-0.7L104.6,37.1z"/>
		<rect x="104.7" y="39.4" class="st6" width="0.8" height="1.5"/>
		<rect x="104.7" y="44" class="st6" width="0.8" height="1.5"/>
		<rect x="104.7" y="85.4" class="st6" width="0.8" height="1.5"/>
		<rect x="104.7" y="41.7" class="st6" width="0.8" height="1.5"/>
		<path class="st6" d="M100.5,140.3l0.4,0.6c0.4-0.3,0.9-0.6,1.3-1l-0.5-0.6C101.3,139.7,100.9,140,100.5,140.3z"/>
		<rect x="104.7" y="76.2" class="st6" width="0.8" height="1.5"/>
		<rect x="104.7" y="78.5" class="st6" width="0.8" height="1.5"/>
		<rect x="104.7" y="80.8" class="st6" width="0.8" height="1.5"/>
		<rect x="104.7" y="83.1" class="st6" width="0.8" height="1.5"/>
		<rect x="104.7" y="64.7" class="st6" width="0.8" height="1.5"/>
		<rect x="104.7" y="62.4" class="st6" width="0.8" height="1.5"/>
		<rect x="104.7" y="67" class="st6" width="0.8" height="1.5"/>
		<rect x="104.7" y="71.6" class="st6" width="0.8" height="1.5"/>
		<rect x="104.7" y="69.3" class="st6" width="0.8" height="1.5"/>
		<path class="st6" d="M46.2,12.6l0.2,0.7c0.5-0.1,1-0.2,1.5-0.4l-0.2-0.7C47.2,12.3,46.7,12.4,46.2,12.6z"/>
		<path class="st6" d="M55.3,163l0,0.8c0.5,0,1,0,1.5,0h0.7V163h-0.7C56.3,163,55.8,163,55.3,163z"/>
		<path class="st6" d="M53.1,11.4l0.1,0.8c0.5,0,1-0.1,1.5-0.1l0-0.8C54.1,11.3,53.6,11.3,53.1,11.4z"/>
		<path class="st6" d="M59.2,12l0-0.8c-0.2,0-0.5,0-0.7,0h-0.8V12h0.8C58.8,12,59,12,59.2,12z"/>
		<path class="st6" d="M52.9,163.6c0.5,0,1,0.1,1.5,0.1l0-0.8c-0.5,0-1-0.1-1.5-0.1L52.9,163.6z"/>
		<path class="st6" d="M50.8,11.6l0.1,0.8c0.5-0.1,1-0.1,1.5-0.2l-0.1-0.8C51.8,11.5,51.3,11.6,50.8,11.6z"/>
		<path class="st6" d="M61.6,11.3c-0.5,0-1-0.1-1.5-0.1l0,0.8c0.5,0,1,0,1.5,0.1L61.6,11.3z"/>
		<path class="st6" d="M63.9,11.6c-0.5-0.1-1-0.1-1.5-0.2l-0.1,0.8c0.5,0,1,0.1,1.5,0.2L63.9,11.6z"/>
		<path class="st6" d="M58.5,163h-0.2v0.8h0.2c0.4,0,0.9,0,1.3,0l0-0.8C59.4,163,58.9,163,58.5,163z"/>
		<path class="st6" d="M98.5,141.2l0.3,0.7c0.5-0.2,1-0.4,1.5-0.7l-0.4-0.7C99.4,140.9,99,141.1,98.5,141.2z"/>
		<path class="st6" d="M50.6,163.3c0.5,0.1,1,0.1,1.5,0.2l0.1-0.8c-0.5-0.1-1-0.1-1.5-0.2L50.6,163.3z"/>
		<path class="st6" d="M60.6,163l0,0.8c0.5,0,1-0.1,1.5-0.1l-0.1-0.8C61.6,162.9,61.1,162.9,60.6,163z"/>
		<path class="st6" d="M43.8,161.7c0.5,0.2,1,0.3,1.5,0.5l0.2-0.7c-0.5-0.1-1-0.3-1.5-0.4L43.8,161.7z"/>
		<path class="st6" d="M41.8,14l0.3,0.7c0.5-0.2,0.9-0.4,1.4-0.5l-0.3-0.7C42.8,13.6,42.3,13.8,41.8,14z"/>
		<path class="st6" d="M66.2,11.9c-0.5-0.1-1-0.2-1.5-0.3l-0.1,0.8c0.5,0.1,1,0.2,1.5,0.3L66.2,11.9z"/>
		<path class="st6" d="M41.7,160.9c0.5,0.2,1,0.4,1.5,0.5l0.3-0.7c-0.5-0.2-1-0.3-1.4-0.5L41.7,160.9z"/>
		<path class="st6" d="M39.5,160c0.5,0.2,0.9,0.4,1.4,0.6l0.3-0.7c-0.5-0.2-0.9-0.4-1.4-0.6L39.5,160z"/>
		<path class="st6" d="M39.7,14.9l0.3,0.7c0.5-0.2,0.9-0.4,1.4-0.6l-0.3-0.7C40.6,14.5,40.2,14.7,39.7,14.9z"/>
		<path class="st6" d="M48.5,12l0.2,0.8c0.5-0.1,1-0.2,1.5-0.3L50,11.8C49.5,11.8,49,11.9,48.5,12z"/>
		<path class="st6" d="M37.6,15.9l0.4,0.7c0.4-0.2,0.9-0.5,1.4-0.7L39,15.2C38.5,15.5,38.1,15.7,37.6,15.9z"/>
		<path class="st6" d="M48.3,162.9c0.5,0.1,1,0.2,1.5,0.3l0.1-0.8c-0.5-0.1-1-0.2-1.5-0.3L48.3,162.9z"/>
		<path class="st6" d="M44,13.2l0.2,0.7c0.5-0.2,1-0.3,1.5-0.4l-0.2-0.7C45,12.9,44.5,13.1,44,13.2z"/>
		<path class="st6" d="M46.1,162.4c0.5,0.1,1,0.3,1.5,0.4l0.2-0.7c-0.5-0.1-1-0.2-1.5-0.4L46.1,162.4z"/>
		<path class="st6" d="M62.8,162.8l0.1,0.8c0.5-0.1,1-0.1,1.5-0.2l-0.1-0.8C63.8,162.7,63.3,162.7,62.8,162.8z"/>
		<path class="st6" d="M90,147.8l0.6,0.5c0.3-0.4,0.6-0.8,0.9-1.2l-0.6-0.5C90.6,147,90.3,147.4,90,147.8z"/>
		<path class="st6" d="M88.5,149.6l0.6,0.5c0.3-0.4,0.7-0.8,1-1.2l-0.6-0.5C89.2,148.8,88.9,149.2,88.5,149.6z"/>
		<path class="st6" d="M85.3,152.8l0.5,0.6c0.4-0.3,0.8-0.7,1.1-1.1l-0.5-0.6C86.1,152.1,85.7,152.5,85.3,152.8z"/>
		<path class="st6" d="M83.6,154.3l0.5,0.6c0.4-0.3,0.8-0.7,1.2-1l-0.5-0.6C84.4,153.6,84,154,83.6,154.3z"/>
		<path class="st6" d="M87,151.2l0.5,0.5c0.4-0.4,0.7-0.7,1.1-1.1l-0.6-0.5C87.7,150.5,87.3,150.9,87,151.2z"/>
		<path class="st6" d="M91.4,146l0.6,0.4c0.3-0.4,0.6-0.8,0.9-1.3l-0.6-0.4C92,145.2,91.7,145.6,91.4,146z"/>
		<path class="st6" d="M99.9,28.9c-0.5-0.2-1-0.4-1.5-0.6L98.2,29c0.5,0.1,0.9,0.3,1.4,0.5L99.9,28.9z"/>
		<path class="st6" d="M96.4,141.7l0.1,0.8c0.5-0.1,1.1-0.1,1.6-0.3l-0.2-0.7C97.3,141.6,96.9,141.7,96.4,141.7z"/>
		<path class="st6" d="M65.1,162.5l0.1,0.8c0.5-0.1,1-0.2,1.5-0.3l-0.2-0.8C66.1,162.3,65.6,162.4,65.1,162.5z"/>
		<polygon class="st6" points="92.6,144.1 93.3,144.5 94.1,143.2 93.4,142.8 		"/>
		<polygon class="st6" points="94,141.9 93.8,142.2 94.2,142.4 94.3,142.6 95.7,142.5 95.6,141.8 		"/>
		<path class="st6" d="M97.6,28.1c-0.5-0.1-1-0.2-1.6-0.2l0,0.8c0.5,0,1,0.1,1.5,0.2L97.6,28.1z"/>
		<path class="st6" d="M70.7,13c-0.5-0.2-1-0.3-1.5-0.4L69,13.3c0.5,0.1,1,0.3,1.5,0.4L70.7,13z"/>
		<path class="st6" d="M81.8,155.7l0.4,0.6c0.4-0.3,0.8-0.6,1.2-0.9l-0.5-0.6C82.6,155.1,82.2,155.4,81.8,155.7z"/>
		<path class="st6" d="M68.4,12.4c-0.5-0.1-1-0.2-1.5-0.3l-0.2,0.7c0.5,0.1,1,0.2,1.5,0.3L68.4,12.4z"/>
		<path class="st6" d="M67.3,162.1l0.2,0.7c0.5-0.1,1-0.2,1.5-0.4l-0.2-0.7C68.3,161.8,67.8,161.9,67.3,162.1z"/>
		<path class="st6" d="M71.7,160.8l0.2,0.7c0.5-0.2,1-0.3,1.5-0.5l-0.3-0.7C72.6,160.5,72.2,160.7,71.7,160.8z"/>
		<path class="st6" d="M69.5,161.5l0.2,0.7c0.5-0.1,1-0.3,1.5-0.4l-0.2-0.7C70.5,161.2,70,161.4,69.5,161.5z"/>
		<path class="st6" d="M77.9,158.1l0.4,0.7c0.5-0.2,0.9-0.5,1.3-0.8l-0.4-0.7C78.8,157.6,78.4,157.8,77.9,158.1z"/>
		<path class="st6" d="M79.9,156.9l0.4,0.6c0.4-0.3,0.9-0.6,1.3-0.8l-0.4-0.6C80.7,156.4,80.3,156.6,79.9,156.9z"/>
		<path class="st6" d="M75.9,159.1l0.3,0.7c0.5-0.2,0.9-0.5,1.4-0.7l-0.4-0.7C76.8,158.7,76.3,158.9,75.9,159.1z"/>
		<path class="st6" d="M73.8,160l0.3,0.7c0.5-0.2,1-0.4,1.4-0.6l-0.3-0.7C74.7,159.6,74.3,159.8,73.8,160z"/>
	</g>
</g>
</svg>
