<?xml version="1.0" encoding="utf-8"?>
<!-- Generator: Adobe Illustrator 22.0.1, SVG Export Plug-In . SVG Version: 6.00 Build 0)  -->
<svg version="1.1" id="Layer_1" xmlns="http://www.w3.org/2000/svg" xmlns:xlink="http://www.w3.org/1999/xlink" x="0px" y="0px"
	 viewBox="0 0 116 175" style="enable-background:new 0 0 116 175;" xml:space="preserve">
<style type="text/css">
	.st0{fill:#EA4051;}
	.st1{fill:#F89E8A;}
	.st2{fill:#AB2630;}
	.st3{fill:#730030;}
	.st4{fill:#FEB58C;}
</style>
<g>
	<rect class="st0" width="116" height="175"/>
	<rect x="7.7" y="8.2" class="st1" width="100.5" height="158.5"/>
	<path class="st2" d="M108.3,107.2v-8.5V7.8H7.7v91.5v7.9c0,0,0,17.1,0,20.2c0,3.1,4.1,5.6,5.4,0.2c1.3-5.4,1.9-8.1,4.2-8.3
		c2.3-0.1,4,1.8,5.3,12.9c1.3,11.1,0.7,18.4,4.4,18.4c3.7,0,2-20.3,3.7-20.5c1.7-0.2,2,14,9.9,14c6.5,0,11.6-9.7,12.4,1.2
		c0.3,4.1,1.1,16.6,3.8,16.6s2.9-8.7,2.9-8.7s0.1,2.2,1.4,2.2c1.9,0,0.8-8.1,3.7-11.2c2.8-3,6.7-0.1,6.8,2.9c0.1,3,0.6,9.2,4.7,9.2
		s4.3-10.4,4.3-15.5c0-4.8-0.2-12.3,1.9-12.3c2,0,2.3,4.1,2.3,7.4c0,3.4,0.3,5.6,2.1,5.6c1.8,0,1.8-9,2-12.7
		c0.2-3.8,4.1-0.1,7.4-6.3c3.4-6.2,5.1-10.4,6.5-8.7c1.4,1.7-1.3,14,2.4,14s3-8.5,3-11.8C108.3,114.7,108.3,110.9,108.3,107.2z"/>
	<path class="st3" d="M59.9,103.1C60.2,102.9,60.4,102.7,59.9,103.1L59.9,103.1z"/>
	<path class="st3" d="M59.6,103.3c0.1-0.1,0.2-0.2,0.3-0.2C59.8,103.2,59.6,103.3,59.6,103.3z"/>
	<path class="st3" d="M59.5,103.4C59.5,103.4,59.5,103.4,59.5,103.4C59.6,103.4,59.5,103.4,59.5,103.4z"/>
	<path class="st3" d="M99.7,99.9C100.5,101.8,99.4,99,99.7,99.9L99.7,99.9z"/>
	<g>
		<path class="st4" d="M7.3,167.2h101.3V7.8H7.3V167.2z M8.1,8.6h99.8v157.8H8.1V8.6z"/>
	</g>
	<g>
		<path class="st4" d="M11.6,13.6c0,0.3,0.1,0.6,0.2,0.9l2.7-2.8c-0.3-0.1-0.5-0.2-0.8-0.2C12.5,11.6,11.6,12.5,11.6,13.6z"/>
		<path class="st4" d="M12.9,15.6c0.2,0.1,0.5,0.1,0.7,0.1c1.1,0,2.1-0.9,2.1-2.1c0-0.3-0.1-0.5-0.2-0.8L12.9,15.6z"/>
		<path class="st4" d="M103,11.6c-0.3,0-0.6,0.1-0.8,0.2l2.7,2.8c0.1-0.3,0.2-0.6,0.2-0.9C105,12.5,104.1,11.6,103,11.6z"/>
		<path class="st4" d="M100.9,13.6c0,1.1,0.9,2.1,2.1,2.1c0.3,0,0.5-0.1,0.7-0.1l-2.6-2.7C101,13.1,100.9,13.4,100.9,13.6z"/>
	</g>
	<g>
		<path class="st2" d="M11.6,161.2c0,1.1,0.9,2.1,2.1,2.1c0.3,0,0.6-0.1,0.8-0.2l-2.7-2.8C11.7,160.6,11.6,160.9,11.6,161.2z"/>
		<path class="st2" d="M13.7,159.1c-0.3,0-0.5,0.1-0.7,0.1l2.6,2.7c0.1-0.2,0.2-0.5,0.2-0.8C15.7,160,14.8,159.1,13.7,159.1z"/>
		<path class="st2" d="M102.2,163.1c0.3,0.1,0.5,0.2,0.8,0.2c1.1,0,2.1-0.9,2.1-2.1c0-0.3-0.1-0.6-0.2-0.9L102.2,163.1z"/>
		<path class="st2" d="M100.9,161.2c0,0.3,0.1,0.5,0.2,0.8l2.6-2.7c-0.2-0.1-0.5-0.1-0.7-0.1C101.8,159.1,100.9,160,100.9,161.2z"/>
	</g>
</g>
</svg>
