<?xml version="1.0" encoding="utf-8"?>
<!-- Generator: Adobe Illustrator 22.0.1, SVG Export Plug-In . SVG Version: 6.00 Build 0)  -->
<svg version="1.1" id="Layer_1" xmlns="http://www.w3.org/2000/svg" xmlns:xlink="http://www.w3.org/1999/xlink" x="0px" y="0px"
	 viewBox="0 0 116 175" style="enable-background:new 0 0 116 175;" xml:space="preserve">
<style type="text/css">
	.st0{fill:#3C8189;}
	.st1{fill:#B8E3D6;}
	.st2{fill:#6EA69D;}
	.st3{clip-path:url(#SVGID_2_);}
	.st4{fill:#79ADA4;}
</style>
<rect class="st0" width="116" height="175"/>
<g>
	<path class="st1" d="M98.6,8.2V7.8H17.4v0.4c0,5.3-4.3,9.7-9.7,9.7H7.3v139.2h0.4c5.3,0,9.7,4.3,9.7,9.7v0.4h81.2v-0.4
		c0-5.3,4.3-9.7,9.7-9.7h0.4V17.9h-0.4C102.9,17.9,98.6,13.6,98.6,8.2z M107.9,156.3c-5.4,0.2-9.8,4.6-10,10H18.2
		c-0.2-5.5-4.6-9.8-10-10V18.7c5.5-0.2,9.8-4.6,10-10h79.7c0.2,5.5,4.6,9.8,10,10V156.3z"/>
</g>
<g>
	<path class="st1" d="M18.9,158.9c0.3,0.4,0.6,0.8,0.8,1.3l0.3-0.2c-0.3-0.5-0.5-0.9-0.8-1.3L18.9,158.9z"/>
	<path class="st1" d="M14.4,154.8c0.4,0.2,0.9,0.5,1.3,0.8l0.2-0.3c-0.4-0.3-0.9-0.6-1.3-0.8L14.4,154.8z"/>
	<path class="st1" d="M16.9,156.6c0.4,0.3,0.7,0.7,1.1,1.1l0.3-0.3c-0.3-0.4-0.7-0.8-1.1-1.1L16.9,156.6z"/>
	<path class="st1" d="M17.6,17.7c-0.3,0.4-0.7,0.7-1.1,1l0.2,0.3c0.4-0.3,0.8-0.7,1.1-1.1L17.6,17.7z"/>
	<path class="st1" d="M19.5,15.3c-0.3,0.4-0.6,0.9-0.9,1.3l0.3,0.2c0.3-0.4,0.6-0.8,0.9-1.3L19.5,15.3z"/>
	<rect x="22.8" y="162.7" class="st1" width="1.5" height="0.4"/>
	<path class="st1" d="M21.1,12.7l-0.4-0.1c-0.2,0.5-0.3,1-0.6,1.4l0.4,0.2C20.8,13.7,21,13.2,21.1,12.7z"/>
	<rect x="22.1" y="11.9" class="st1" width="1.5" height="0.4"/>
	<path class="st1" d="M21.3,162.7L21.3,162.7c-0.2-0.5-0.3-0.9-0.5-1.3l-0.4,0.1c0.2,0.5,0.4,0.9,0.5,1.4l0,0.1h0.3v-0.2l0,0
		C21.3,162.8,21.3,162.8,21.3,162.7L21.3,162.7z"/>
	<rect x="11.4" y="138" class="st1" width="0.4" height="1.5"/>
	<rect x="11.4" y="141.1" class="st1" width="0.4" height="1.5"/>
	<rect x="25.2" y="11.9" class="st1" width="1.5" height="0.4"/>
	<path class="st1" d="M15.3,19.7c-0.4,0.3-0.9,0.5-1.3,0.8l0.2,0.3c0.5-0.2,0.9-0.5,1.4-0.8L15.3,19.7z"/>
	<rect x="11.4" y="134.9" class="st1" width="0.4" height="1.5"/>
	<rect x="11.4" y="144.2" class="st1" width="0.4" height="1.5"/>
	<rect x="11.4" y="147.3" class="st1" width="0.4" height="1.5"/>
	<path class="st1" d="M11.6,153.6c0.5,0.1,1,0.3,1.4,0.5l0.2-0.4c-0.5-0.2-1-0.4-1.5-0.5L11.6,153.6z"/>
	<rect x="11.4" y="150.4" class="st1" width="0.4" height="1.5"/>
	<rect x="53.8" y="162.7" class="st1" width="1.5" height="0.4"/>
	<rect x="44.5" y="162.7" class="st1" width="1.5" height="0.4"/>
	<rect x="43.8" y="11.9" class="st1" width="1.5" height="0.4"/>
	<rect x="41.4" y="162.7" class="st1" width="1.5" height="0.4"/>
	<rect x="46.9" y="11.9" class="st1" width="1.5" height="0.4"/>
	<rect x="50.7" y="162.7" class="st1" width="1.5" height="0.4"/>
	<rect x="40.7" y="11.9" class="st1" width="1.5" height="0.4"/>
	<rect x="11.4" y="131.8" class="st1" width="0.4" height="1.5"/>
	<rect x="50" y="11.9" class="st1" width="1.5" height="0.4"/>
	<rect x="47.6" y="162.7" class="st1" width="1.5" height="0.4"/>
	<rect x="34.5" y="11.9" class="st1" width="1.5" height="0.4"/>
	<rect x="31.4" y="11.9" class="st1" width="1.5" height="0.4"/>
	<rect x="32.1" y="162.7" class="st1" width="1.5" height="0.4"/>
	<rect x="29" y="162.7" class="st1" width="1.5" height="0.4"/>
	<rect x="28.3" y="11.9" class="st1" width="1.5" height="0.4"/>
	<rect x="37.6" y="11.9" class="st1" width="1.5" height="0.4"/>
	<rect x="38.3" y="162.7" class="st1" width="1.5" height="0.4"/>
	<rect x="35.2" y="162.7" class="st1" width="1.5" height="0.4"/>
	<rect x="25.9" y="162.7" class="st1" width="1.5" height="0.4"/>
	<rect x="11.4" y="42.1" class="st1" width="0.4" height="1.5"/>
	<rect x="11.4" y="51.4" class="st1" width="0.4" height="1.5"/>
	<rect x="11.4" y="48.3" class="st1" width="0.4" height="1.5"/>
	<rect x="11.4" y="128.8" class="st1" width="0.4" height="1.5"/>
	<rect x="11.4" y="54.5" class="st1" width="0.4" height="1.5"/>
	<rect x="11.4" y="66.9" class="st1" width="0.4" height="1.5"/>
	<rect x="56.1" y="11.9" class="st1" width="1.5" height="0.4"/>
	<rect x="11.4" y="57.6" class="st1" width="0.4" height="1.5"/>
	<rect x="11.4" y="63.8" class="st1" width="0.4" height="1.5"/>
	<rect x="11.4" y="60.7" class="st1" width="0.4" height="1.5"/>
	<rect x="11.4" y="29.8" class="st1" width="0.4" height="1.5"/>
	<rect x="11.4" y="26.7" class="st1" width="0.4" height="1.5"/>
	<path class="st1" d="M11.8,21.8c0.3-0.1,0.6-0.2,0.9-0.3l-0.1-0.4c-0.3,0.1-0.7,0.2-1,0.3l-0.1,0V22h0.4V21.8z"/>
	<rect x="11.4" y="23.6" class="st1" width="0.4" height="1.5"/>
	<path class="st1" d="M96.2,14.8c-0.2-0.4-0.5-0.9-0.7-1.4l-0.4,0.1c0.2,0.5,0.4,1,0.7,1.4L96.2,14.8z"/>
	<rect x="11.4" y="70" class="st1" width="0.4" height="1.5"/>
	<rect x="11.4" y="36" class="st1" width="0.4" height="1.5"/>
	<rect x="11.4" y="32.9" class="st1" width="0.4" height="1.5"/>
	<rect x="11.4" y="39" class="st1" width="0.4" height="1.5"/>
	<rect x="11.4" y="45.2" class="st1" width="0.4" height="1.5"/>
	<rect x="11.4" y="107.1" class="st1" width="0.4" height="1.5"/>
	<rect x="11.4" y="110.2" class="st1" width="0.4" height="1.5"/>
	<rect x="11.4" y="113.3" class="st1" width="0.4" height="1.5"/>
	<rect x="11.4" y="104" class="st1" width="0.4" height="1.5"/>
	<rect x="11.4" y="119.5" class="st1" width="0.4" height="1.5"/>
	<rect x="11.4" y="125.7" class="st1" width="0.4" height="1.5"/>
	<rect x="11.4" y="122.6" class="st1" width="0.4" height="1.5"/>
	<rect x="11.4" y="100.9" class="st1" width="0.4" height="1.5"/>
	<rect x="11.4" y="116.4" class="st1" width="0.4" height="1.5"/>
	<rect x="11.4" y="97.8" class="st1" width="0.4" height="1.5"/>
	<rect x="11.4" y="82.4" class="st1" width="0.4" height="1.5"/>
	<rect x="11.4" y="79.3" class="st1" width="0.4" height="1.5"/>
	<rect x="11.4" y="85.4" class="st1" width="0.4" height="1.5"/>
	<rect x="11.4" y="76.2" class="st1" width="0.4" height="1.5"/>
	<rect x="11.4" y="91.6" class="st1" width="0.4" height="1.5"/>
	<rect x="11.4" y="94.7" class="st1" width="0.4" height="1.5"/>
	<rect x="11.4" y="88.5" class="st1" width="0.4" height="1.5"/>
	<rect x="11.4" y="73.1" class="st1" width="0.4" height="1.5"/>
	<rect x="53.1" y="11.9" class="st1" width="1.5" height="0.4"/>
	<rect x="104.2" y="77.1" class="st1" width="0.4" height="1.5"/>
	<rect x="104.2" y="92.6" class="st1" width="0.4" height="1.5"/>
	<rect x="104.2" y="98.7" class="st1" width="0.4" height="1.5"/>
	<rect x="104.2" y="104.9" class="st1" width="0.4" height="1.5"/>
	<rect x="104.2" y="101.8" class="st1" width="0.4" height="1.5"/>
	<rect x="104.2" y="80.2" class="st1" width="0.4" height="1.5"/>
	<rect x="104.2" y="89.5" class="st1" width="0.4" height="1.5"/>
	<rect x="104.2" y="83.3" class="st1" width="0.4" height="1.5"/>
	<rect x="104.2" y="86.4" class="st1" width="0.4" height="1.5"/>
	<rect x="104.2" y="95.7" class="st1" width="0.4" height="1.5"/>
	<rect x="104.2" y="123.5" class="st1" width="0.4" height="1.5"/>
	<rect x="104.2" y="126.6" class="st1" width="0.4" height="1.5"/>
	<rect x="104.2" y="129.7" class="st1" width="0.4" height="1.5"/>
	<rect x="104.2" y="120.4" class="st1" width="0.4" height="1.5"/>
	<rect x="104.2" y="108" class="st1" width="0.4" height="1.5"/>
	<rect x="104.2" y="111.1" class="st1" width="0.4" height="1.5"/>
	<rect x="104.2" y="117.3" class="st1" width="0.4" height="1.5"/>
	<rect x="104.2" y="114.2" class="st1" width="0.4" height="1.5"/>
	<rect x="104.2" y="36.9" class="st1" width="0.4" height="1.5"/>
	<rect x="104.2" y="40" class="st1" width="0.4" height="1.5"/>
	<rect x="104.2" y="132.8" class="st1" width="0.4" height="1.5"/>
	<rect x="104.2" y="43.1" class="st1" width="0.4" height="1.5"/>
	<rect x="104.2" y="33.8" class="st1" width="0.4" height="1.5"/>
	<rect x="104.2" y="46.2" class="st1" width="0.4" height="1.5"/>
	<polygon class="st1" points="104.2,21.7 104.2,21.8 104.2,23 104.6,23 104.6,21.5 104.3,21.4 	"/>
	<rect x="104.2" y="24.5" class="st1" width="0.4" height="1.5"/>
	<rect x="104.2" y="27.6" class="st1" width="0.4" height="1.5"/>
	<rect x="104.2" y="74" class="st1" width="0.4" height="1.5"/>
	<rect x="104.2" y="30.7" class="st1" width="0.4" height="1.5"/>
	<rect x="104.2" y="64.7" class="st1" width="0.4" height="1.5"/>
	<rect x="104.2" y="67.8" class="st1" width="0.4" height="1.5"/>
	<rect x="104.2" y="70.9" class="st1" width="0.4" height="1.5"/>
	<rect x="104.2" y="61.6" class="st1" width="0.4" height="1.5"/>
	<rect x="104.2" y="52.3" class="st1" width="0.4" height="1.5"/>
	<rect x="104.2" y="49.3" class="st1" width="0.4" height="1.5"/>
	<rect x="104.2" y="55.4" class="st1" width="0.4" height="1.5"/>
	<rect x="104.2" y="58.5" class="st1" width="0.4" height="1.5"/>
	<rect x="104.2" y="135.9" class="st1" width="0.4" height="1.5"/>
	<rect x="74.7" y="11.9" class="st1" width="1.5" height="0.4"/>
	<rect x="77.8" y="11.9" class="st1" width="1.5" height="0.4"/>
	<rect x="75.4" y="162.7" class="st1" width="1.5" height="0.4"/>
	<rect x="71.6" y="11.9" class="st1" width="1.5" height="0.4"/>
	<rect x="72.3" y="162.7" class="st1" width="1.5" height="0.4"/>
	<rect x="81.6" y="162.7" class="st1" width="1.5" height="0.4"/>
	<rect x="84.7" y="162.7" class="st1" width="1.5" height="0.4"/>
	<rect x="80.9" y="11.9" class="st1" width="1.5" height="0.4"/>
	<rect x="78.5" y="162.7" class="st1" width="1.5" height="0.4"/>
	<rect x="84" y="11.9" class="st1" width="1.5" height="0.4"/>
	<rect x="62.3" y="11.9" class="st1" width="1.5" height="0.4"/>
	<rect x="63" y="162.7" class="st1" width="1.5" height="0.4"/>
	<rect x="59.9" y="162.7" class="st1" width="1.5" height="0.4"/>
	<rect x="59.2" y="11.9" class="st1" width="1.5" height="0.4"/>
	<rect x="69.2" y="162.7" class="st1" width="1.5" height="0.4"/>
	<rect x="68.5" y="11.9" class="st1" width="1.5" height="0.4"/>
	<rect x="66.1" y="162.7" class="st1" width="1.5" height="0.4"/>
	<rect x="65.4" y="11.9" class="st1" width="1.5" height="0.4"/>
	<path class="st1" d="M97.1,158.1l0.3,0.2c0.3-0.4,0.6-0.8,1-1.2l-0.3-0.3C97.8,157.3,97.4,157.7,97.1,158.1z"/>
	<path class="st1" d="M100.2,19.3c-0.4-0.3-0.8-0.6-1.2-1l-0.3,0.3c0.4,0.3,0.8,0.7,1.2,1L100.2,19.3z"/>
	<rect x="104.2" y="151.3" class="st1" width="0.4" height="1.5"/>
	<path class="st1" d="M102.8,20.8c-0.5-0.2-0.9-0.4-1.4-0.7l-0.2,0.3c0.5,0.3,0.9,0.5,1.4,0.7L102.8,20.8z"/>
	<path class="st1" d="M99.3,155.9l0.2,0.3c0.4-0.3,0.8-0.6,1.2-0.9l-0.2-0.3C100.1,155.2,99.7,155.5,99.3,155.9z"/>
	<path class="st1" d="M101.9,154.2l0.2,0.3c0.5-0.2,0.9-0.4,1.4-0.6l-0.1-0.4C102.9,153.7,102.4,153.9,101.9,154.2z"/>
	<rect x="104.2" y="139" class="st1" width="0.4" height="1.5"/>
	<rect x="87.1" y="11.9" class="st1" width="1.5" height="0.4"/>
	<rect x="104.2" y="142.1" class="st1" width="0.4" height="1.5"/>
	<rect x="104.2" y="145.2" class="st1" width="0.4" height="1.5"/>
	<rect x="104.2" y="148.2" class="st1" width="0.4" height="1.5"/>
	<rect x="90.9" y="162.7" class="st1" width="1.5" height="0.4"/>
	<rect x="93.3" y="11.9" class="st1" width="1.5" height="0.4"/>
	<rect x="90.2" y="11.9" class="st1" width="1.5" height="0.4"/>
	<rect x="56.8" y="162.7" class="st1" width="1.5" height="0.4"/>
	<rect x="87.8" y="162.7" class="st1" width="1.5" height="0.4"/>
	<path class="st1" d="M94.7,162.7H94v0.4H95l0-0.1c0.1-0.2,0.1-0.4,0.2-0.6l-0.4-0.1C94.8,162.4,94.8,162.6,94.7,162.7z"/>
	<path class="st1" d="M98,17.3c-0.3-0.4-0.7-0.8-0.9-1.2l-0.3,0.2c0.3,0.4,0.6,0.8,1,1.2L98,17.3z"/>
	<path class="st1" d="M95.5,160.8l0.4,0.2c0.2-0.5,0.5-0.9,0.7-1.3l-0.3-0.2C96,159.9,95.7,160.3,95.5,160.8z"/>
</g>
<path class="st2" d="M93.3,14.4H22.7c-1.6,4-4.9,7.2-8.8,8.8v128.5c4,1.6,7.2,4.9,8.8,8.8h70.5c1.6-4,4.9-7.2,8.8-8.8V23.2
	C98.1,21.6,94.9,18.4,93.3,14.4z"/>
<g>
	<defs>
		<path id="SVGID_1_" d="M22.7,160.6c-1.6-4-4.9-7.2-8.8-8.8V23.2c4-1.6,7.2-4.9,8.8-8.8h70.5c1.6,4,4.9,7.2,8.8,8.8v128.5
			c-4,1.6-7.2,4.9-8.8,8.8H22.7z"/>
	</defs>
	<clipPath id="SVGID_2_">
		<use xlink:href="#SVGID_1_"  style="overflow:visible;"/>
	</clipPath>
	<g class="st3">
		<rect x="19.5" y="14.4" class="st4" width="3.9" height="146.2"/>
		<rect x="29.9" y="14.4" class="st4" width="3.9" height="146.2"/>
		<rect x="40.4" y="14.4" class="st4" width="3.9" height="146.2"/>
		<rect x="50.8" y="14.4" class="st4" width="3.9" height="146.2"/>
		<rect x="61.2" y="14.4" class="st4" width="3.9" height="146.2"/>
		<rect x="71.6" y="14.4" class="st4" width="3.9" height="146.2"/>
		<rect x="82" y="14.4" class="st4" width="3.9" height="146.2"/>
		<rect x="92.5" y="14.4" class="st4" width="3.9" height="146.2"/>
	</g>
</g>
</svg>
