<?xml version="1.0"?>
<svg xmlns="http://www.w3.org/2000/svg" xmlns:xlink="http://www.w3.org/1999/xlink" version="1.1" id="Capa_1" x="0px" y="0px" viewBox="0 0 512 512" style="enable-background:new 0 0 512 512;" xml:space="preserve" width="512px" height="512px"><g><g>
	<g>
		<path d="M483.333,227.328h-51.91c-4.506-27.665-15.416-53.204-31.161-75.043l36.76-36.76c5.414-5.414,8.396-12.613,8.396-20.271    c0-7.657-2.981-14.856-8.402-20.277c-11.177-11.177-29.365-11.177-40.542,0l-36.76,36.76    c-21.839-15.745-47.378-26.654-75.043-31.16v-51.91C284.672,12.86,271.812,0,255.996,0c-15.807,0-28.667,12.86-28.667,28.667    v51.91c-27.665,4.506-53.204,15.416-75.043,31.161l-36.76-36.76c-5.414-5.415-12.613-8.396-20.27-8.396    c-7.657,0-14.856,2.981-20.277,8.403c-11.177,11.177-11.177,29.364,0,40.541l36.76,36.76    c-15.745,21.839-26.655,47.378-31.161,75.043h-51.91C12.86,227.328,0,240.189,0,256.004c0,15.807,12.86,28.667,28.667,28.667    h51.907c0.778,4.803,1.736,9.57,2.904,14.279c0.996,4.012,5.056,6.456,9.068,5.462c4.012-0.996,6.458-5.055,5.462-9.068    c-3.175-12.794-4.785-26.032-4.785-39.344c0-89.755,73.021-162.776,162.776-162.776S418.777,166.245,418.777,256    S345.755,418.776,256,418.776c-58.145,0-112.273-31.359-141.261-81.839c-2.058-3.585-6.633-4.821-10.219-2.764    c-3.585,2.058-4.822,6.634-2.764,10.219c3.045,5.303,6.369,10.428,9.932,15.372l-36.711,36.711    c-5.415,5.414-8.396,12.613-8.396,20.271c0,7.657,2.982,14.856,8.403,20.277c5.589,5.589,12.929,8.383,20.27,8.383    s14.682-2.794,20.27-8.383l36.712-36.712c4.324,3.115,8.783,6.053,13.385,8.775c19.014,11.249,39.966,18.787,61.706,22.329v51.918    c0,15.807,12.86,28.667,28.676,28.667c15.807,0,28.667-12.86,28.667-28.667v-51.91c27.665-4.506,53.204-15.416,75.043-31.16    l36.76,36.76c5.415,5.415,12.614,8.396,20.271,8.396s14.856-2.981,20.278-8.403c11.176-11.177,11.176-29.364,0-40.541    l-36.76-36.76c15.745-21.839,26.655-47.378,31.161-75.043h51.91c15.807,0,28.667-12.86,28.667-28.676    C512,240.189,499.14,227.328,483.333,227.328z M28.667,269.702L28.667,269.702c-7.552-0.001-13.696-6.145-13.696-13.706    c0-7.552,6.144-13.696,13.696-13.696h50.109c-0.346,4.522-0.523,9.091-0.523,13.701c0,4.579,0.195,9.149,0.543,13.701H28.667z     M121.062,140.438L85.564,104.94c-5.34-5.34-5.34-14.029,0.007-19.376c2.67-2.67,6.177-4.005,9.685-4.005s7.015,1.335,9.685,4.005    l35.498,35.498C133.495,127.016,127.016,133.495,121.062,140.438z M242.299,78.776V28.667c0-7.552,6.144-13.696,13.705-13.696    c7.552,0,13.696,6.144,13.696,13.696v50.109c-4.522-0.346-9.09-0.523-13.7-0.523C251.39,78.253,246.822,78.43,242.299,78.776z     M371.563,121.061l35.498-35.498c5.339-5.34,14.03-5.339,19.375,0.007c5.34,5.34,5.34,14.029,0,19.369l-35.498,35.498    C384.985,133.495,378.506,127.016,371.563,121.061z M104.94,426.437c-5.34,5.339-14.029,5.34-19.376-0.007    c-5.34-5.34-5.34-14.029,0-19.369l35.447-35.447c5.953,6.943,12.437,13.417,19.382,19.371L104.94,426.437z M269.702,483.333    L269.702,483.333c-0.001,7.552-6.145,13.696-13.706,13.696c-7.552,0-13.696-6.144-13.696-13.696v-50.134    c4.549,0.35,9.117,0.548,13.701,0.548c4.609,0,9.178-0.177,13.701-0.523V483.333z M426.437,407.061    c5.34,5.34,5.34,14.029-0.007,19.376c-5.339,5.34-14.029,5.34-19.368,0l-35.498-35.498c6.943-5.954,13.422-12.433,19.376-19.376    L426.437,407.061z M483.333,269.701h-50.109c0.346-4.522,0.523-9.091,0.523-13.701c0-4.61-0.177-9.178-0.523-13.701h50.109    c7.552,0,13.696,6.144,13.696,13.705C497.029,263.557,490.885,269.701,483.333,269.701z" data-original="#000000" class="active-path" data-old_color="#000000" fill="#B8E3D6"/>
	</g>
</g><g>
	<g>
		<path d="M256,120.835c-74.53,0-135.164,60.635-135.164,135.165S181.47,391.165,256,391.165S391.165,330.53,391.165,256    S330.53,120.835,256,120.835z M256,376.194c-66.275,0-120.194-53.919-120.194-120.194S189.725,135.806,256,135.806    S376.194,189.725,376.194,256S322.275,376.194,256,376.194z" data-original="#000000" class="active-path" data-old_color="#000000" fill="#B8E3D6"/>
	</g>
</g><g>
	<g>
		<path d="M296.764,198.004c-3.381-2.38-8.05-1.567-10.43,1.812c-2.38,3.38-1.568,8.05,1.812,10.43    c14.882,10.478,23.767,27.582,23.767,45.754c0,30.831-25.083,55.913-55.913,55.913c-30.831,0-55.913-25.082-55.913-55.913    c0-28.808,21.578-52.721,50.192-55.624c4.113-0.418,7.109-4.09,6.692-8.203c-0.418-4.113-4.09-7.105-8.203-6.692    c-36.288,3.682-63.652,33.998-63.652,70.519c0,39.086,31.799,70.884,70.884,70.884c39.086,0,70.884-31.798,70.884-70.884    C326.884,232.963,315.625,211.282,296.764,198.004z" data-original="#000000" class="active-path" data-old_color="#000000" fill="#B8E3D6"/>
	</g>
</g><g>
	<g>
		<path d="M256,222.023c-18.735,0-33.976,15.242-33.976,33.977s15.242,33.977,33.977,33.977c18.735,0,33.977-15.242,33.977-33.977    C289.978,237.265,274.735,222.023,256,222.023z M256,275.006c-10.48,0-19.006-8.526-19.006-19.006    c0-10.48,8.526-19.006,19.006-19.006c10.48,0,19.006,8.526,19.006,19.006S266.48,275.006,256,275.006z" data-original="#000000" class="active-path" data-old_color="#000000" fill="#B8E3D6"/>
	</g>
</g></g> </svg>
