<svg height="512pt" viewBox="0 -71 512.00004 512" width="512pt" xmlns="http://www.w3.org/2000/svg"><path d="m458.664062 161.835938 13.613282 23.542968h-22.070313c-24.375 0-44.136719 19.761719-44.136719 44.136719.035157 11.71875-4.605468 22.964844-12.890624 31.25-8.285157 8.285156-19.53125 12.925781-31.25 12.890625h-326.621094c-19.5 0-35.308594-15.808594-35.308594-35.3125v-203.035156c0-19.5 15.808594-35.308594 35.308594-35.308594h326.621094c24.378906 0 44.140624 19.761719 44.140624 44.136719-.035156 11.71875 4.601563 22.964843 12.886719 31.25 8.285157 8.285156 19.53125 12.925781 31.25 12.890625h22.070313l-15.449219 22.066406zm0 0" fill="#b0d3f0"/><path d="m476.691406 88.277344v97.101562h-4.414062l-25.902344-5.753906c-8.0625-1.792969-13.804688-8.9375-13.824219-17.199219v-51.199219c.003907-8.273437 5.75-15.433593 13.824219-17.230468l25.902344-5.71875zm0 0" fill="#b19046"/><path d="m512 101.429688v70.796874c.011719 5.351563-2.410156 10.417969-6.585938 13.765626-4.171874 3.347656-9.644531 4.617187-14.863281 3.449218l-18.273437-4.0625h4.414062v-97.101562h-4.414062l18.273437-4.0625c5.21875-1.167969 10.691407.097656 14.863281 3.449218 4.175782 3.347657 6.597657 8.414063 6.585938 13.765626zm0 0" fill="#e4c05c"/><path d="m212.480469 88.277344h-65.625c-1.484375.003906-2.867188.757812-3.679688 2.003906-.808593 1.242188-.941406 2.8125-.34375 4.175781 10.46875 26.542969 9.507813 56.234375-2.648437 82.050781v.042969h1.058594l68.960937 15.996094c.96875-.953125.695313-17.503906 1.660156-18.46875zm0 0" fill="#e4c05c"/><path d="m314.871094 370.757812h-206.019532c-10.234374.003907-19.550781-5.894531-23.933593-15.140624-4.382813-9.25-3.042969-20.195313 3.4375-28.113282l44.058593-53.847656h158.894532l44.058594 53.847656c6.484374 7.917969 7.820312 18.863282 3.4375 28.113282-4.382813 9.246093-13.699219 15.144531-23.933594 15.140624zm0 0" fill="#d25627"/><path d="m139.273438 321.03125 7.21875-8.824219c1.679687-2.050781 4.1875-3.242187 6.835937-3.242187h117.070313c2.648437 0 5.15625 1.191406 6.832031 3.242187l7.222656 8.824219c2.15625 2.640625 2.601563 6.289062 1.140625 9.371094-1.460938 3.082031-4.566406 5.046875-7.976562 5.046875h-131.53125c-3.40625-.007813-6.503907-1.976563-7.960938-5.054688-1.457031-3.082031-1.007812-6.722656 1.148438-9.363281zm0 0" fill="#f29c1f"/><path d="m44.136719 44.136719h-8.828125c-4.875 0-8.824219-3.949219-8.824219-8.828125 0-4.875 3.949219-8.824219 8.824219-8.824219h8.828125c4.875 0 8.828125 3.949219 8.828125 8.824219 0 4.878906-3.953125 8.828125-8.828125 8.828125zm0 0" fill="#fff"/><path d="m123.585938 44.136719h-44.136719c-4.875 0-8.828125-3.949219-8.828125-8.828125 0-4.875 3.953125-8.824219 8.828125-8.824219h44.136719c4.875 0 8.828124 3.949219 8.828124 8.824219 0 4.878906-3.953124 8.828125-8.828124 8.828125zm0 0" fill="#fff"/><path d="m211.863281 185.378906c-4.875 0-8.828125-3.953125-8.828125-8.828125v-141.242187c0-4.875 3.953125-8.824219 8.828125-8.824219s8.828125 3.949219 8.828125 8.824219v141.242187c0 4.875-3.953125 8.828125-8.828125 8.828125zm0 0" fill="#805333"/><path d="m256.617188 88.277344c-.910157-11.269532-3.691407-22.308594-8.234376-32.664063-.730468-1.617187-2.347656-2.65625-4.125-2.648437h-61.03125c-1.488281.007812-2.867187.761718-3.679687 2.003906-.8125 1.246094-.941406 2.816406-.347656 4.175781 9.621093 24.421875 9.621093 51.585938 0 76.003907-.59375 1.363281-.464844 2.933593.347656 4.175781.8125 1.246093 2.191406 2 3.679687 2.003906h62.675782l2.089844-1.765625zm0 0" fill="#f9eab0"/><path d="m317.261719 150.070312c3.515625-19.980468 1.058593-40.554687-7.058594-59.144531-.734375-1.621093-2.355469-2.660156-4.132813-2.648437h-61.050781c-1.488281.003906-2.871093.753906-3.6875 2-.8125 1.246094-.941406 2.816406-.347656 4.179687 5.613281 14.308594 8 29.679688 6.984375 45.019531v.085938c-.914062 12.816406-4.175781 25.355469-9.625 36.988281 11.828125 0 67.707031 8.828125 79.449219 8.828125zm0 0" fill="#f5efca"/><path d="m367.351562 150.070312h-67.214843c0 14.625-11.855469 26.480469-26.480469 26.480469h-132.414062c-14.625 0-26.484376-11.855469-26.484376-26.480469v-26.484374c0-4.875-3.953124-8.828126-8.828124-8.828126h-44.136719c-4.875 0-8.828125 3.953126-8.828125 8.828126v35.3125c0 9.75 7.90625 17.652343 17.65625 17.652343 0 34.128907 27.664062 61.792969 61.792968 61.792969h150.070313c25.816406.007812 48.914063-16.03125 57.925781-40.226562 5.902344-17.015626 15.410156-32.558594 27.867188-45.566407l.070312-.070312c.402344-.40625.523438-1.011719.304688-1.539063-.214844-.527344-.730469-.871094-1.300782-.871094zm0 0" fill="#cb8252"/><g fill="#805333"><path d="m273.65625 211.863281c0 4.875-3.953125 8.828125-8.828125 8.828125s-8.828125-3.953125-8.828125-8.828125 3.953125-8.828125 8.828125-8.828125 8.828125 3.953125 8.828125 8.828125zm0 0"/><path d="m238.34375 211.863281c0 4.875-3.949219 8.828125-8.828125 8.828125-4.875 0-8.824219-3.953125-8.824219-8.828125s3.949219-8.828125 8.824219-8.828125c4.878906 0 8.828125 3.953125 8.828125 8.828125zm0 0"/><path d="m203.035156 211.863281c0 4.875-3.953125 8.828125-8.828125 8.828125s-8.828125-3.953125-8.828125-8.828125 3.953125-8.828125 8.828125-8.828125 8.828125 3.953125 8.828125 8.828125zm0 0"/><path d="m167.722656 211.863281c0 4.875-3.949218 8.828125-8.824218 8.828125-4.878907 0-8.828126-3.953125-8.828126-8.828125s3.949219-8.828125 8.828126-8.828125c4.875 0 8.824218 3.953125 8.824218 8.828125zm0 0"/></g></svg>