<svg height="512pt" viewBox="0 0 512.05207 512" width="512pt" xmlns="http://www.w3.org/2000/svg"><g fill="#f3d55b"><path d="m442.628906 34.738281c-4.792968 0-8.679687-3.886719-8.679687-8.679687v-17.355469c0-4.792969 3.886719-8.6757812 8.679687-8.6757812 4.792969 0 8.675782 3.8828122 8.675782 8.6757812v17.355469c0 4.792968-3.882813 8.679687-8.675782 8.679687zm0 0"/><path d="m442.628906 138.875c-4.792968 0-8.679687-3.886719-8.679687-8.679688v-17.355468c0-4.792969 3.886719-8.679688 8.679687-8.679688 4.792969 0 8.675782 3.886719 8.675782 8.679688v17.355468c0 4.792969-3.882813 8.679688-8.675782 8.679688zm0 0"/><path d="m503.375 78.128906h-17.355469c-4.792969 0-8.679687-3.886718-8.679687-8.679687s3.886718-8.675781 8.679687-8.675781h17.355469c4.792969 0 8.675781 3.882812 8.675781 8.675781s-3.882812 8.679687-8.675781 8.679687zm0 0"/><path d="m485.585938 121.082031c-2.304688 0-4.511719-.914062-6.136719-2.539062l-12.269531-12.273438c-3.289063-3.402343-3.242188-8.816406.105468-12.164062 3.347656-3.347657 8.757813-3.394531 12.164063-.105469l12.269531 12.269531c2.480469 2.484375 3.222656 6.214844 1.882812 9.457031-1.34375 3.242188-4.507812 5.355469-8.015624 5.355469zm0 0"/><path d="m411.941406 47.441406c-2.300781 0-4.507812-.914062-6.132812-2.542968l-12.273438-12.269532c-2.253906-2.179687-3.160156-5.40625-2.363281-8.4375.792969-3.035156 3.164063-5.40625 6.195313-6.199218 3.035156-.792969 6.261718.109374 8.441406 2.367187l12.269531 12.269531c2.480469 2.480469 3.222656 6.214844 1.878906 9.457032-1.339843 3.242187-4.503906 5.355468-8.015625 5.355468zm0 0"/><path d="m473.3125 47.441406c-3.507812 0-6.671875-2.113281-8.015625-5.355468-1.339844-3.242188-.601563-6.976563 1.882813-9.457032l12.269531-12.269531c2.179687-2.257813 5.40625-3.160156 8.4375-2.367187 3.035156.792968 5.40625 3.164062 6.199219 6.199218.792968 3.03125-.109376 6.257813-2.367188 8.4375l-12.269531 12.269532c-1.628907 1.628906-3.835938 2.542968-6.136719 2.542968zm0 0"/></g><path d="m278.691406 95.570312c-3.15625-.003906-6.0625-1.71875-7.589844-4.484374-1.523437-2.761719-1.429687-6.136719.25-8.808594 11.445313-18.226563 40.265626-45.128906 104.890626-20.957032 39.917968 14.96875 52.882812 10.828126 55.902343 9.214844 1.605469-.867187 1.824219-1.675781 1.847657-1.734375.007812-2.269531.9375-4.4375 2.574218-6.011719 1.632813-1.570312 3.839844-2.410156 6.105469-2.328124 4.832031.171874 8.65625 4.152343 8.632813 8.988281-.328126 6.066406-3.523438 11.617187-8.605469 14.945312-12.855469 8.902344-36.578125 6.671875-72.539063-6.8125-39.921875-14.9375-69.007812-10.109375-84.109375 13.925781-1.589843 2.53125-4.371093 4.066407-7.359375 4.0625zm0 0" fill="#cbb292"/><path d="m442.628906 34.738281c-4.792968 0-8.679687-3.886719-8.679687-8.679687v-17.355469c0-4.792969 3.886719-8.6757812 8.679687-8.6757812 4.792969 0 8.675782 3.8828122 8.675782 8.6757812v17.355469c0 4.792968-3.882813 8.679687-8.675782 8.679687zm0 0" fill="#f3d55b"/><path d="m442.628906 138.875c-4.792968 0-8.679687-3.886719-8.679687-8.679688v-17.355468c0-4.792969 3.886719-8.679688 8.679687-8.679688 4.792969 0 8.675782 3.886719 8.675782 8.679688v17.355468c0 4.792969-3.882813 8.679688-8.675782 8.679688zm0 0" fill="#f3d55b"/><path d="m485.585938 121.082031c-2.304688 0-4.511719-.914062-6.136719-2.539062l-12.269531-12.273438c-3.289063-3.402343-3.242188-8.816406.105468-12.164062 3.347656-3.347657 8.757813-3.394531 12.164063-.105469l12.269531 12.269531c2.480469 2.484375 3.222656 6.214844 1.882812 9.457031-1.34375 3.242188-4.507812 5.355469-8.015624 5.355469zm0 0" fill="#f3d55b"/><path d="m411.941406 47.441406c-2.300781 0-4.507812-.914062-6.132812-2.542968l-12.273438-12.269532c-2.253906-2.179687-3.160156-5.40625-2.363281-8.4375.792969-3.035156 3.164063-5.40625 6.195313-6.199218 3.035156-.792969 6.261718.109374 8.441406 2.367187l12.269531 12.269531c2.480469 2.480469 3.222656 6.214844 1.878906 9.457032-1.339843 3.242187-4.503906 5.355468-8.015625 5.355468zm0 0" fill="#f3d55b"/><path d="m179.816406 147.5 14.753906-39.527344c3.609376-13.300781 13.320313-24.09375 26.164063-29.082031 7.882813-2.171875 16.144531-2.59375 24.210937-1.238281 25.445313 3.53125 49.414063 14.042968 69.25 30.371094 6.140626 4.824218 11.003907 11.082031 14.160157 18.222656 2.242187 5.441406 2.9375 11.398437 2.015625 17.210937-1.917969 7.519531-4.628906 14.820313-8.082032 21.769531-4.523437 11.121094-8.996093 22.261719-13.421874 33.421876" fill="#35495e"/><path d="m364.472656 329.738281c0 100.644531-81.589844 182.234375-182.234375 182.234375-100.648437 0-182.238281-81.589844-182.238281-182.234375 0-100.648437 81.589844-182.238281 182.238281-182.238281 100.644531 0 182.234375 81.589844 182.234375 182.238281zm0 0" fill="#2c3e50"/><path d="m130.914062 360.683594c-2.628906.203125-5.269531-.308594-7.636718-1.476563-7.09375-3.570312-15.710938-1.867187-20.914063 4.132813-5.207031 6.003906-5.667969 14.777344-1.125 21.292968 2.507813 3.5625 6.25 6.066407 10.5 7.03125 4.210938.921876 7.003907 4.925782 6.421875 9.195313-.535156 4.304687.515625 8.652344 2.949219 12.238281 4.542969 6.566406 12.976563 9.183594 20.441406 6.347656 7.460938-2.835937 12.027344-10.398437 11.058594-18.324218-.515625-6.011719 2.277344-11.828125 7.289063-15.1875l18.832031-13.101563h7.117187l18.742188 13.101563c5.0625 3.324218 7.894531 9.15625 7.378906 15.1875-.890625 7.871094 3.660156 15.347656 11.0625 18.167968 7.402344 2.824219 15.777344.273438 20.351562-6.191406 2.515626-3.550781 3.570313-7.929687 2.949219-12.238281-.507812-4.28125 2.300781-8.253906 6.507813-9.195313 4.25-.964843 7.992187-3.46875 10.5-7.03125 4.542968-6.515624 4.082031-15.289062-1.125-21.292968-5.203125-6-13.820313-7.703125-20.914063-4.132813-2.367187 1.167969-5.007812 1.679688-7.636719 1.476563zm0 0" fill="#bdc3c7"/><path d="m54.585938 399.34375c-3.394532 0-6.476563-1.976562-7.890626-5.058594-32.171874-70.164062-8.019531-153.308594 56.738282-195.316406 2.59375-1.902344 6.03125-2.210938 8.921875-.804688 2.894531 1.410157 4.773437 4.300782 4.878906 7.515626.105469 3.21875-1.574219 6.226562-4.367187 7.824218-57.535157 37.335938-78.988282 111.214844-50.402344 173.558594 1.230468 2.6875 1.011718 5.8125-.582032 8.300781s-4.34375 3.992188-7.296874 3.996094zm0 0" fill="#ecf0f1"/><path d="m134.976562 201.199219c-4.164062.007812-7.75-2.945313-8.539062-7.035157-.785156-4.089843 1.441406-8.164062 5.3125-9.707031 4.445312-1.808593 9-3.339843 13.640625-4.582031 3.046875-.910156 6.347656-.082031 8.601563 2.15625 2.257812 2.238281 3.109374 5.535156 2.21875 8.585938-.890626 3.050781-3.375 5.375-6.480469 6.050781-3.9375 1.0625-7.800781 2.367187-11.578125 3.90625-1.007813.40625-2.085938.621093-3.175782.625zm0 0" fill="#ecf0f1"/><path d="m256.433594 462.128906c-3.839844-.007812-7.21875-2.535156-8.304688-6.214844-1.089844-3.683593.367188-7.640624 3.585938-9.738281 57.511718-37.328125 78.96875-111.179687 50.410156-173.515625-1.394531-2.832031-1.140625-6.195312.660156-8.789062 1.804688-2.589844 4.871094-3.996094 8.011719-3.675782 3.140625.324219 5.855469 2.324219 7.09375 5.230469 32.171875 70.160157 8.019531 153.300781-56.734375 195.304688-1.40625.917969-3.046875 1.402343-4.722656 1.398437zm0 0" fill="#547580"/><path d="m130.222656 334.910156v29.589844c.003906 1.644531.238282 3.28125.691406 4.859375 2.324219 7.851563 9.8125 13.011719 17.976563 12.382813 8.164063-.625 14.777344-6.871094 15.871094-14.984376.101562-.75.160156-1.503906.171875-2.257812v-18.570312" fill="#e6e7e8"/><path d="m199.644531 345.929688v18.570312c.011719 8.222656-5.75 15.324219-13.796875 17.007812h-.085937c-2.292969.464844-4.652344.464844-6.945313 0h-.085937c-7.117188-1.519531-12.542969-7.292968-13.625-14.492187-.101563-.832031-.160157-1.671875-.171875-2.515625v-18.570312" fill="#e6e7e8"/><path d="m234.355469 334.910156v29.589844c0 9.585938-7.769531 17.355469-17.355469 17.355469s-17.355469-7.769531-17.355469-17.355469v-18.570312" fill="#e6e7e8"/><path d="m260.390625 308.09375c-.03125 5.910156-1.75 11.691406-4.945313 16.660156-5.21875 8.050782-12.5 14.554688-21.089843 18.832032-10.792969 5.777343-22.558594 9.511718-34.710938 11.023437-1.128906.171875-2.253906.34375-3.382812.433594-4.640625.527343-9.304688.785156-13.972657.78125-5.804687-.003907-11.605468-.40625-17.355468-1.214844-12.148438-1.511719-23.917969-5.246094-34.710938-11.023437-8.589844-4.277344-15.871094-10.78125-21.089844-18.832032-3.195312-4.96875-4.910156-10.75-4.945312-16.660156 0-26.382812 34.972656-47.730469 78.101562-47.730469 43.128907 0 78.101563 21.347657 78.101563 47.730469zm0 0" fill="#ecf0f1"/><path d="m156.253906 329.789062c-4.792968 0-8.675781-3.886718-8.675781-8.679687v-17.355469c0-4.792968 3.882813-8.675781 8.675781-8.675781 4.792969 0 8.679688 3.882813 8.679688 8.675781v17.355469c0 4.792969-3.886719 8.679687-8.679688 8.679687zm0 0" fill="#2c2f38"/><path d="m208.324219 329.789062c-4.792969 0-8.679688-3.886718-8.679688-8.679687v-17.355469c0-4.792968 3.886719-8.675781 8.679688-8.675781s8.675781 3.882813 8.675781 8.675781v17.355469c0 4.792969-3.882812 8.679687-8.675781 8.679687zm0 0" fill="#2c2f38"/></svg>