<svg height="512pt" viewBox="-18 0 512 512.00133" width="512pt" xmlns="http://www.w3.org/2000/svg"><path d="m458.175781 379.585938c22.863281-80.804688 22.863281-166.367188 0-247.171876l-26.394531-70.621093c-8.054688-17.179688-17.195312-33.832031-27.367188-49.847657-4.855468-7.503906-13.203124-12.007812-22.140624-11.945312h-289.226563c-8.933594-.0585938-17.277344 4.445312-22.128906 11.945312-10.175781 16.015626-19.320313 32.667969-27.375 49.847657l-26.394531 70.621093c-22.863282 80.804688-22.863282 166.367188 0 247.171876l26.394531 70.621093c8.050781 17.183594 17.191406 33.832031 27.363281 49.851563 4.855469 7.5 13.207031 12.003906 22.140625 11.941406h289.226563c8.933593.0625 17.28125-4.441406 22.132812-11.941406 10.175781-16.019532 19.316406-32.667969 27.375-49.851563zm0 0" fill="#7f5b53"/><path d="m401.414062 379.585938c17.035157-81.507813 17.035157-165.660157 0-247.171876l-19.511718-70.621093c-7.351563-21.15625-16.109375-41.800781-26.214844-61.792969h-236.050781c-10.105469 19.992188-18.863281 40.636719-26.21875 61.792969l-19.507813 70.621093c-17.039062 81.511719-17.039062 165.664063 0 247.171876l19.507813 70.621093c7.355469 21.160157 16.113281 41.804688 26.21875 61.792969h236.050781c10.105469-19.988281 18.863281-40.632812 26.214844-61.792969zm0 0" fill="#af8066"/><path d="m169.246094 176.550781c.707031-14.828125 1.679687-29.570312 2.914062-44.136719l7.769532-70.621093c3-21.273438 6.53125-41.929688 10.503906-61.792969h94.457031c3.96875 19.863281 7.5 40.519531 10.503906 61.792969l7.765625 70.621093c1.238282 14.566407 2.207032 29.308594 2.914063 44.136719v158.898438c-.707031 14.828125-1.675781 29.570312-2.914063 44.136719l-7.765625 70.621093c-3.003906 21.273438-6.535156 41.929688-10.503906 61.792969h-94.457031c-3.972656-19.863281-7.503906-40.519531-10.503906-61.792969l-7.769532-70.621093c-1.234375-14.566407-2.207031-29.308594-2.914062-44.136719zm0 0" fill="#cb8252"/><path d="m464.699219 132.414062h-454.074219c-2.71875 0-5.285156-1.253906-6.960938-3.394531-1.671874-2.144531-2.261718-4.941406-1.601562-7.578125l13.242188-52.964844c.980468-3.929687 4.511718-6.683593 8.5625-6.683593h427.589843c4.046875 0 7.578125 2.753906 8.5625 6.683593l13.242188 52.964844c.660156 2.636719.066406 5.433594-1.605469 7.578125-1.671875 2.140625-4.238281 3.394531-6.957031 3.394531zm0 0" fill="#59474e"/><path d="m464.699219 379.585938h-454.074219c-2.71875 0-5.285156 1.253906-6.960938 3.398437-1.671874 2.144531-2.261718 4.9375-1.601562 7.574219l13.242188 52.964844c.980468 3.929687 4.511718 6.683593 8.5625 6.683593h427.589843c4.046875 0 7.578125-2.753906 8.5625-6.683593l13.242188-52.964844c.660156-2.636719.066406-5.429688-1.605469-7.574219s-4.238281-3.398437-6.957031-3.398437zm0 0" fill="#59474e"/><path d="m362.289062 335.449219h-249.253906c-4.460937.003906-8.238281-3.292969-8.828125-7.714844-6.109375-47.628906-6.109375-95.839844 0-143.464844.589844-4.421875 4.367188-7.722656 8.828125-7.71875h249.253906c4.460938-.003906 8.234376 3.296875 8.828126 7.71875 6.109374 47.625 6.109374 95.835938 0 143.464844-.59375 4.421875-4.367188 7.71875-8.828126 7.714844zm0 0" fill="#fdd7ad"/><path d="m140.558594 308.964844c-4.875 0-8.828125-3.949219-8.828125-8.828125v-79.445313c0-4.875 3.953125-8.828125 8.828125-8.828125s8.828125 3.953125 8.828125 8.828125v79.445313c0 4.878906-3.953125 8.828125-8.828125 8.828125zm0 0" fill="#805333"/><path d="m167.039062 273.65625h-26.480468c-4.875 0-8.828125-3.953125-8.828125-8.828125v-44.136719c0-4.875 3.953125-8.828125 8.828125-8.828125h26.480468c14.628907 0 26.484376 11.855469 26.484376 26.480469v8.828125c0 14.628906-11.855469 26.484375-26.484376 26.484375zm-17.652343-17.65625h17.652343c4.875 0 8.828126-3.953125 8.828126-8.828125v-8.828125c0-4.875-3.953126-8.824219-8.828126-8.824219h-17.652343zm0 0" fill="#805333"/><path d="m184.695312 308.964844c-3.363281.019531-6.441406-1.871094-7.945312-4.878906l-17.652344-35.3125c-2.179687-4.363282-.410156-9.667969 3.953125-11.847657 4.363281-2.175781 9.667969-.40625 11.847657 3.957031l17.652343 35.308594c1.367188 2.730469 1.222657 5.972656-.375 8.570313-1.601562 2.601562-4.429687 4.191406-7.480469 4.203125zm0 0" fill="#805333"/><path d="m237.660156 308.964844h-8.828125c-14.625 0-26.480469-11.855469-26.480469-26.480469v-61.792969c0-4.875 3.953126-8.828125 8.828126-8.828125s8.828124 3.953125 8.828124 8.828125v61.792969c0 4.875 3.949219 8.828125 8.824219 8.828125h8.828125c4.875 0 8.828125-3.953125 8.828125-8.828125v-61.792969c0-4.875 3.953125-8.828125 8.828125-8.828125s8.828125 3.953125 8.828125 8.828125v61.792969c0 14.625-11.855469 26.480469-26.484375 26.480469zm0 0" fill="#805333"/><path d="m334.765625 308.964844c-4.875 0-8.828125-3.949219-8.828125-8.828125v-52.964844l-10.59375 14.125c-1.738281 2.113281-4.328125 3.335937-7.0625 3.335937s-5.324219-1.222656-7.0625-3.335937l-10.59375-14.125v52.964844c0 4.878906-3.949219 8.828125-8.824219 8.828125s-8.828125-3.949219-8.828125-8.828125v-79.445313c0-3.800781 2.429688-7.175781 6.035156-8.375 3.605469-1.203125 7.574219.039063 9.851563 3.078125l19.421875 25.890625 19.421875-25.890625c2.28125-3.039062 6.25-4.28125 9.851563-3.078125 3.605468 1.199219 6.039062 4.574219 6.039062 8.375v79.445313c0 4.878906-3.953125 8.828125-8.828125 8.828125zm0 0" fill="#805333"/><g fill="#bdc3c7"><path d="m61.109375 97.105469c0 4.875-3.953125 8.828125-8.828125 8.828125s-8.828125-3.953125-8.828125-8.828125 3.953125-8.828125 8.828125-8.828125 8.828125 3.953125 8.828125 8.828125zm0 0"/><path d="m140.558594 97.105469c0 4.875-3.953125 8.828125-8.828125 8.828125s-8.828125-3.953125-8.828125-8.828125 3.953125-8.828125 8.828125-8.828125 8.828125 3.953125 8.828125 8.828125zm0 0"/><path d="m431.867188 97.105469c0 4.875-3.953126 8.828125-8.828126 8.828125s-8.824218-3.953125-8.824218-8.828125 3.949218-8.828125 8.824218-8.828125 8.828126 3.953125 8.828126 8.828125zm0 0"/><path d="m352.417969 97.105469c0 4.875-3.949219 8.828125-8.824219 8.828125s-8.828125-3.953125-8.828125-8.828125 3.953125-8.828125 8.828125-8.828125 8.824219 3.953125 8.824219 8.828125zm0 0"/><path d="m246.488281 97.105469c0 4.875-3.953125 8.828125-8.828125 8.828125s-8.828125-3.953125-8.828125-8.828125 3.953125-8.828125 8.828125-8.828125 8.828125 3.953125 8.828125 8.828125zm0 0"/><path d="m61.109375 414.898438c0 4.875-3.953125 8.828124-8.828125 8.828124s-8.828125-3.953124-8.828125-8.828124 3.953125-8.828126 8.828125-8.828126 8.828125 3.953126 8.828125 8.828126zm0 0"/><path d="m140.558594 414.898438c0 4.875-3.953125 8.828124-8.828125 8.828124s-8.828125-3.953124-8.828125-8.828124 3.953125-8.828126 8.828125-8.828126 8.828125 3.953126 8.828125 8.828126zm0 0"/><path d="m431.867188 414.898438c0 4.875-3.953126 8.828124-8.828126 8.828124s-8.824218-3.953124-8.824218-8.828124 3.949218-8.828126 8.824218-8.828126 8.828126 3.953126 8.828126 8.828126zm0 0"/><path d="m352.417969 414.898438c0 4.875-3.949219 8.828124-8.824219 8.828124s-8.828125-3.953124-8.828125-8.828124 3.953125-8.828126 8.828125-8.828126 8.824219 3.953126 8.824219 8.828126zm0 0"/><path d="m246.488281 414.898438c0 4.875-3.953125 8.828124-8.828125 8.828124s-8.828125-3.953124-8.828125-8.828124 3.953125-8.828126 8.828125-8.828126 8.828125 3.953126 8.828125 8.828126zm0 0"/></g></svg>