<svg height="512pt" viewBox="0 0 512 512" width="512pt" xmlns="http://www.w3.org/2000/svg"><path d="m430.167969 227.308594v57.382812c-5.601563 33.992188-21.035157 65.601563-44.402344 90.921875l-10.152344 10.152344c-25.320312 23.367187-56.929687 38.800781-90.921875 44.402344h-57.382812c-33.992188-5.601563-65.601563-21.035157-90.921875-44.402344l-10.152344-10.152344c-23.367187-25.320312-38.800781-56.929687-44.402344-90.921875v-57.382812c5.601563-33.992188 21.035157-65.601563 44.402344-90.921875l10.152344-10.152344c25.320312-23.367187 56.929687-38.800781 90.921875-44.402344h57.382812c33.992188 5.601563 65.601563 21.035157 90.921875 44.402344l10.152344 10.152344c23.367187 25.320312 38.800781 56.929687 44.402344 90.921875zm0 0" fill="#fac176"/><path d="m262.269531 17.832031h-12.539062c-126.714844 3.222657-228.675781 105.183594-231.898438 231.898438v12.539062c3.222657 126.714844 105.183594 228.675781 231.898438 231.898438h12.539062c126.714844-3.222657 228.675781-105.183594 231.898438-231.898438v-12.539062c-3.222657-126.714844-105.183594-228.675781-231.898438-231.898438zm167.898438 266.859375c-5.601563 33.992188-21.035157 65.601563-44.402344 90.921875l-10.152344 10.152344c-25.320312 23.367187-56.929687 38.800781-90.921875 44.402344h-57.382812c-33.992188-5.601563-65.601563-21.035157-90.921875-44.402344l-10.152344-10.152344c-23.367187-25.320312-38.800781-56.929687-44.402344-90.921875v-57.382812c5.601563-33.992188 21.035157-65.601563 44.402344-90.921875l10.152344-10.152344c25.320312-23.367187 56.929687-38.800781 90.921875-44.402344h57.382812c33.992188 5.601563 65.601563 21.035157 90.921875 44.402344l10.152344 10.152344c23.367187 25.320312 38.800781 56.929687 44.402344 90.921875zm0 0" fill="#f29c1f"/><path d="m368.992188 306.050781c-3.695313 8.394531-8.347657 16.332031-13.859376 23.660157l-25.421874 25.421874c-7.328126 5.511719-15.265626 10.164063-23.660157 13.859376h-100.101562c-8.394531-3.695313-16.332031-8.347657-23.660157-13.859376l-25.421874-25.421874c-5.511719-7.328126-10.164063-15.265626-13.859376-23.660157v-100.101562c3.695313-8.394531 8.347657-16.332031 13.859376-23.660157l25.421874-25.421874c7.328126-5.511719 15.265626-10.164063 23.660157-13.859376h100.101562c8.394531 3.695313 16.332031 8.347657 23.660157 13.859376l25.421874 25.421874c5.511719 7.328126 10.164063 15.265626 13.859376 23.660157zm0 0" fill="#cb8252"/><path d="m344.980469 314.4375 10.152343 15.273438 30.632813 45.902343 15.183594 22.777344 5.121093 7.679687-7.679687-5.121093-22.777344-15.183594-45.902343-30.632813-15.273438-10.152343h-116.875l-15.273438 10.152343-45.902343 30.632813-22.777344 15.183594-7.679687 5.121093 5.121093-7.679687 15.183594-22.777344 30.632813-45.902343 10.152343-15.273438v-116.875l-10.152343-15.273438-30.632813-45.902343-15.183594-22.777344-5.121093-7.679687 7.679687 5.121093 22.777344 15.183594 45.902343 30.632813 15.273438 10.152343h116.875l15.273438-10.152343 45.902343-30.632813 22.777344-15.183594 7.679687-5.121093-5.121093 7.679687-15.183594 22.777344-30.632813 45.902343-10.152343 15.273438zm0 0" fill="#e57e25"/><path d="m512 256-189.617188 66.382812-66.382812 189.617188-66.382812-189.617188-189.617188-66.382812 189.617188-66.382812 66.382812-189.617188 66.382812 189.617188zm0 0" fill="#d25627"/><path d="m256 256h-256l189.617188-66.382812zm0 0" fill="#f18d46"/><path d="m256 0v256l-66.382812-66.382812zm0 0" fill="#f29c1f"/><path d="m322.382812 189.617188-66.382812 66.382812v-256zm0 0" fill="#e57e25"/><path d="m512 256h-256l66.382812-66.382812zm0 0" fill="#f18d46"/><path d="m256 256v256l-66.382812-189.617188zm0 0" fill="#e57e25"/><g fill="#d25627"><path d="m183.753906 60.265625c0 4.875-3.949218 8.828125-8.828125 8.828125-4.875 0-8.824219-3.953125-8.824219-8.828125s3.949219-8.828125 8.824219-8.828125c4.878907 0 8.828125 3.953125 8.828125 8.828125zm0 0"/><path d="m345.898438 451.734375c0 4.875-3.949219 8.828125-8.824219 8.828125-4.878907 0-8.828125-3.953125-8.828125-8.828125s3.949218-8.828125 8.828125-8.828125c4.875 0 8.824219 3.953125 8.824219 8.828125zm0 0"/><path d="m460.5625 174.925781c0 4.878907-3.953125 8.828125-8.828125 8.828125s-8.828125-3.949218-8.828125-8.828125c0-4.875 3.953125-8.824219 8.828125-8.824219s8.828125 3.949219 8.828125 8.824219zm0 0"/><path d="m69.09375 337.074219c0 4.875-3.953125 8.824219-8.828125 8.824219s-8.828125-3.949219-8.828125-8.824219c0-4.878907 3.953125-8.828125 8.828125-8.828125s8.828125 3.949218 8.828125 8.828125zm0 0"/><path d="m414.640625 106.1875c0 4.875-3.953125 8.828125-8.828125 8.828125s-8.828125-3.953125-8.828125-8.828125 3.953125-8.828125 8.828125-8.828125 8.828125 3.953125 8.828125 8.828125zm0 0"/><path d="m115.015625 405.8125c0 4.875-3.953125 8.828125-8.828125 8.828125s-8.828125-3.953125-8.828125-8.828125 3.953125-8.828125 8.828125-8.828125 8.828125 3.953125 8.828125 8.828125zm0 0"/><path d="m414.640625 405.8125c0 4.875-3.953125 8.828125-8.828125 8.828125s-8.828125-3.953125-8.828125-8.828125 3.953125-8.828125 8.828125-8.828125 8.828125 3.953125 8.828125 8.828125zm0 0"/><path d="m115.015625 106.1875c0 4.875-3.953125 8.828125-8.828125 8.828125s-8.828125-3.953125-8.828125-8.828125 3.953125-8.828125 8.828125-8.828125 8.828125 3.953125 8.828125 8.828125zm0 0"/><path d="m345.898438 60.265625c0 4.875-3.949219 8.828125-8.824219 8.828125-4.878907 0-8.828125-3.953125-8.828125-8.828125s3.949218-8.828125 8.828125-8.828125c4.875 0 8.824219 3.953125 8.824219 8.828125zm0 0"/><path d="m183.753906 451.734375c0 4.875-3.949218 8.828125-8.828125 8.828125-4.875 0-8.824219-3.953125-8.824219-8.828125s3.949219-8.828125 8.824219-8.828125c4.878907 0 8.828125 3.953125 8.828125 8.828125zm0 0"/><path d="m460.5625 337.074219c0 4.875-3.953125 8.824219-8.828125 8.824219s-8.828125-3.949219-8.828125-8.824219c0-4.878907 3.953125-8.828125 8.828125-8.828125s8.828125 3.949218 8.828125 8.828125zm0 0"/><path d="m69.09375 174.925781c0 4.878907-3.953125 8.828125-8.828125 8.828125s-8.828125-3.949218-8.828125-8.828125c0-4.875 3.953125-8.824219 8.828125-8.824219s8.828125 3.949219 8.828125 8.824219zm0 0"/></g></svg>