<svg height="512pt" viewBox="0 0 512.00003 512" width="512pt" xmlns="http://www.w3.org/2000/svg"><path d="m459.035156 256c0 112.132812-90.902344 203.035156-203.035156 203.035156s-203.035156-90.902344-203.035156-203.035156 90.902344-203.035156 203.035156-203.035156 203.035156 90.902344 203.035156 203.035156zm0 0" fill="#7f6e5d"/><path d="m443.675781 256c.050781 81.964844-53.121093 154.46875-131.3125 179.050781-78.1875 24.582031-163.285156-4.457031-210.140625-71.707031-9.488281-13.417969-17.121094-28.058594-22.6875-43.519531 45.285156-132.238281 218.75-181.496094 307.113282-198.269531 6.070312 5.730468 11.675781 11.929687 16.773437 18.539062 26.132813 32.972656 40.320313 73.832031 40.253906 115.90625zm0 0" fill="#f29c1f"/><path d="m509.527344 220.25c-.792969-5.828125-1.851563-11.652344-3.089844-17.390625-4.871094-23.453125-13.109375-46.082031-24.453125-67.179687-2.734375-5.207032-5.648437-10.328126-8.824219-15.269532-12.6875-20.289062-28.136718-38.710937-45.90625-54.734375-4.414062-3.972656-8.914062-7.765625-13.59375-11.296875-18.792968-14.84375-39.636718-26.886718-61.878906-35.753906-5.386719-2.292969-10.949219-4.324219-16.507812-6.089844-22.765626-7.476562-46.496094-11.609375-70.445313-12.269531-2.914063-.1757812-5.828125-.265625-8.828125-.265625s-5.914062.0898438-8.828125.265625c-23.949219.660156-47.679687 4.792969-70.445313 12.269531-5.558593 1.765625-11.121093 3.796875-16.503906 6.089844-22.246094 8.867188-43.089844 20.910156-61.882812 35.753906-4.679688 3.53125-9.179688 7.324219-13.59375 11.296875-17.769532 16.023438-33.21875 34.445313-45.90625 54.734375-3.175782 4.941406-6.089844 10.0625-8.824219 15.269532-11.34375 21.097656-19.582031 43.726562-24.453125 67.179687-1.238281 5.738281-2.296875 11.5625-3.089844 17.390625-3.296875 23.71875-3.296875 47.78125 0 71.5.792969 5.828125 1.851563 11.652344 3.089844 17.390625 4.871094 23.453125 13.109375 46.082031 24.453125 67.179687 2.734375 5.207032 5.648437 10.328126 8.824219 15.269532 12.6875 20.289062 28.136718 38.710937 45.90625 54.734375 4.414062 3.972656 8.914062 7.765625 13.59375 11.296875 18.792968 14.84375 39.636718 26.886718 61.882812 35.753906 5.382813 2.292969 10.945313 4.324219 16.503906 6.089844 22.765626 7.476562 46.496094 11.609375 70.445313 12.269531 2.914063.175781 5.828125.265625 8.828125.265625s5.914062-.089844 8.828125-.265625c23.949219-.660156 47.679687-4.792969 70.445313-12.269531 5.558593-1.765625 11.121093-3.796875 16.507812-6.089844 22.242188-8.867188 43.085938-20.910156 61.878906-35.753906 4.679688-3.53125 9.179688-7.324219 13.59375-11.296875 17.769532-16.023438 33.21875-34.445313 45.90625-54.734375 3.175782-4.941406 6.089844-10.0625 8.824219-15.269532 11.34375-21.097656 19.582031-43.726562 24.453125-67.179687 1.238281-5.738281 2.296875-11.5625 3.089844-17.390625 3.296875-23.71875 3.296875-47.78125 0-71.5zm-253.527344 238.785156c-112.132812 0-203.035156-90.902344-203.035156-203.035156s90.902344-203.035156 203.035156-203.035156 203.035156 90.902344 203.035156 203.035156c-.140625 112.074219-90.960937 202.894531-203.035156 203.035156zm0 0" fill="#f0c419"/><path d="m386.648438 121.554688c-14.742188 2.824218-31.957032 6.535156-50.492188 11.390624-22.734375-18.109374-51.101562-27.667968-80.15625-27.015624-68.945312 0-114.933594 45.816406-122.527344 106.902343-1.039062 7.960938-1.277344 16.003907-.707031 24.011719-23.925781 23.167969-42.148437 51.574219-53.230469 82.980469-29.847656-82.191407 1.078125-174.101563 74.542969-221.527344 73.460937-47.425781 169.953125-37.777344 232.570313 23.257813zm0 0" fill="#fac176"/><path d="m321.226562 419.355469c-4.207031.007812-7.832031-2.953125-8.667968-7.078125-.835938-4.121094 1.355468-8.261719 5.234375-9.890625 10.65625-4.511719 20.785156-10.179688 30.207031-16.894531 3.976562-2.824219 9.488281-1.886719 12.3125 2.085937 2.820312 3.976563 1.886719 9.488281-2.089844 12.3125-10.464844 7.460937-21.710937 13.757813-33.542968 18.773437-1.09375.460938-2.265626.695313-3.453126.691407zm0 0" fill="#f9eab0"/><path d="m388.414062 367.660156c-1.960937.007813-3.867187-.648437-5.410156-1.863281-3.828125-2.992187-4.519531-8.515625-1.546875-12.359375 21.71875-27.832031 33.492188-62.132812 33.441407-97.4375 0-4.875 3.949218-8.828125 8.824218-8.828125s8.828125 3.953125 8.828125 8.828125c.039063 39.226562-13.046875 77.335938-37.171875 108.261719-1.671875 2.144531-4.242187 3.398437-6.964844 3.398437zm0 0" fill="#f9eab0"/><g fill="#b19046"><path d="m264.828125.265625v17.390625c0 4.875-3.953125 8.828125-8.828125 8.828125s-8.828125-3.953125-8.828125-8.828125v-17.390625c2.914063-.1757812 5.828125-.265625 8.828125-.265625s5.914062.0898438 8.828125.265625zm0 0"/><path d="m264.828125 494.34375v17.390625c-2.914063.175781-5.828125.265625-8.828125.265625s-5.914062-.089844-8.828125-.265625v-17.390625c0-4.875 3.953125-8.828125 8.828125-8.828125s8.828125 3.953125 8.828125 8.828125zm0 0"/><path d="m177.523438 40.34375c-.964844.34375-1.980469.523438-3.003907.527344-3.726562.03125-7.058593-2.308594-8.296875-5.824219l-6-16.421875c5.382813-2.292969 10.945313-4.324219 16.503906-6.089844l6.09375 16.507813c1.625 4.582031-.738281 9.617187-5.296874 11.300781zm0 0"/><path d="m351.78125 493.375c-5.386719 2.292969-10.949219 4.324219-16.507812 6.089844l-6.09375-16.507813c-1.625-4.582031.738281-9.617187 5.296874-11.300781 2.199219-.808594 4.632813-.703125 6.757813.292969 2.121094.992187 3.757813 2.796875 4.542969 5.003906zm0 0"/><path d="m108.492188 80.15625c-1.578126 1.347656-3.578126 2.097656-5.652344 2.117188-2.625.015624-5.125-1.152344-6.796875-3.179688l-11.296875-13.417969c4.414062-3.972656 8.914062-7.765625 13.59375-11.296875l11.210937 13.328125c1.511719 1.789063 2.25 4.109375 2.050781 6.445313-.199218 2.332031-1.316406 4.492187-3.109374 6.003906zm0 0"/><path d="m427.253906 446.324219c-4.414062 3.972656-8.914062 7.765625-13.59375 11.296875l-11.210937-13.328125c-2.035157-2.414063-2.625-5.726563-1.554688-8.695313 1.074219-2.96875 3.648438-5.140625 6.753907-5.695312 3.105468-.554688 6.273437.589844 8.308593 3.003906zm0 0"/><path d="m57.203125 141.242188c-2.425781 4.203124-7.785156 5.660156-12.007813 3.265624l-15.179687-8.828124c2.734375-5.207032 5.648437-10.328126 8.824219-15.269532l15.183594 8.738282c2.03125 1.179687 3.503906 3.117187 4.101562 5.386718.59375 2.269532.265625 4.683594-.921875 6.707032zm0 0"/><path d="m481.984375 376.320312c-2.734375 5.207032-5.648437 10.328126-8.824219 15.269532l-15.183594-8.738282c-4.242187-2.4375-5.707031-7.851562-3.269531-12.09375 2.441407-4.242187 7.855469-5.703124 12.097657-3.265624zm0 0"/><path d="m29.925781 216.097656c-.6875 4.242188-4.355469 7.347656-8.652343 7.328125-.5.019531-1.003907-.011719-1.5-.085937l-17.300782-3.089844c.792969-5.828125 1.851563-11.652344 3.089844-17.390625l17.210938 3.089844c2.308593.367187 4.371093 1.65625 5.71875 3.566406 1.34375 1.910156 1.863281 4.285156 1.433593 6.582031zm0 0"/><path d="m509.527344 291.75c-.792969 5.828125-1.851563 11.652344-3.089844 17.390625l-17.210938-3.089844c-2.308593-.367187-4.371093-1.65625-5.71875-3.566406-1.34375-1.910156-1.863281-4.285156-1.433593-6.582031.808593-4.800782 5.351562-8.039063 10.152343-7.242188zm0 0"/><path d="m29.925781 295.902344c.429688 2.296875-.089843 4.671875-1.433593 6.582031-1.347657 1.910156-3.410157 3.199219-5.71875 3.566406l-17.210938 3.089844c-1.238281-5.738281-2.296875-11.5625-3.089844-17.390625l17.300782-3.089844c4.800781-.796875 9.34375 2.441406 10.152343 7.242188zm0 0"/><path d="m509.527344 220.25-17.300782 3.089844c-.496093.074218-1 .105468-1.5.085937-4.488281-.121093-8.171874-3.59375-8.554687-8.070312-.386719-4.472657 2.648437-8.523438 7.054687-9.40625l17.210938-3.089844c1.238281 5.738281 2.296875 11.5625 3.089844 17.390625zm0 0"/><path d="m54.023438 382.851562-15.183594 8.738282c-3.175782-4.941406-6.089844-10.0625-8.824219-15.269532l15.179687-8.828124c2.746094-1.578126 6.121094-1.570313 8.859376.019531 2.738281 1.585937 4.421874 4.511719 4.414062 7.679687-.007812 3.164063-1.699219 6.085938-4.445312 7.660156zm0 0"/><path d="m481.984375 135.679688-15.179687 8.828124c-4.222657 2.394532-9.582032.9375-12.007813-3.265624-1.1875-2.023438-1.515625-4.4375-.921875-6.707032.597656-2.269531 2.070312-4.207031 4.101562-5.386718l15.183594-8.738282c3.175782 4.941406 6.089844 10.0625 8.824219 15.269532zm0 0"/><path d="m109.550781 444.292969-11.210937 13.328125c-4.679688-3.53125-9.179688-7.324219-13.59375-11.296875l11.296875-13.417969c3.144531-3.730469 8.71875-4.207031 12.449219-1.0625 3.726562 3.144531 4.203124 8.71875 1.058593 12.449219zm0 0"/><path d="m427.253906 65.675781-11.296875 13.417969c-1.671875 2.027344-4.171875 3.195312-6.796875 3.179688-3.425781-.042969-6.523437-2.054688-7.953125-5.164063-1.433593-3.113281-.949219-6.769531 1.242188-9.402344l11.210937-13.328125c4.679688 3.53125 9.179688 7.324219 13.59375 11.296875zm0 0"/><path d="m182.820312 482.957031-6.09375 16.507813c-5.558593-1.765625-11.121093-3.796875-16.503906-6.089844l6-16.421875c.785156-2.207031 2.421875-4.011719 4.542969-5.003906 2.125-.996094 4.558594-1.101563 6.757813-.292969 4.558593 1.683594 6.921874 6.71875 5.296874 11.300781zm0 0"/><path d="m351.78125 18.625-6.003906 16.421875c-1.238282 3.515625-4.570313 5.855469-8.296875 5.824219-2.878907 0-5.574219-1.402344-7.226563-3.757813-1.648437-2.355469-2.050781-5.367187-1.074218-8.070312l6.09375-16.507813c5.558593 1.765625 11.121093 3.796875 16.507812 6.089844zm0 0"/></g><path d="m336.15625 132.945312c-65.148438 17.035157-147.421875 48.285157-203.390625 103.898438-.570313-8.007812-.332031-16.050781.707031-24.011719 7.59375-61.085937 53.582032-106.902343 122.527344-106.902343 29.054688-.652344 57.421875 8.90625 80.15625 27.015624zm0 0" fill="#f3d55b"/><path d="m355.574219 304.464844c7.679687 30.542968-7.679688 30.542968-30.628907 30.542968-22.953124 0-22.953124 22.863282-15.363281 38.132813 4.152344 8.210937-11.652343 12.007813-27.097656 13.773437-6.445313.707032-12.714844 1.058594-17.570313 1.324219-5.292968.175781-8.914062.175781-8.914062.175781s-3.621094 0-8.914062-.265624c-4.855469-.175782-11.210938-.527344-17.570313-1.234376-15.445313-1.765624-31.246094-5.5625-27.097656-13.773437 7.589843-15.269531 7.589843-38.132813-15.363281-38.132813-22.949219 0-38.308594 0-30.628907-30.542968 6.53125-25.867188-20.039062-29.839844-23.660156-67.621094 55.96875-55.613281 138.242187-86.863281 203.390625-103.898438 23.882812 20.175782 39.0625 48.792969 42.371094 79.886719 7.679687 61.089844-30.632813 61.089844-22.953125 91.632813zm0 0" fill="#e4c05c"/><path d="m225.984375 211.863281c5.46875 2.769531 9.601563 7.613281 11.476563 13.453125 4.46875 14.5625-7.359376 31.25-26.261719 37.320313-18.898438 6.074219-37.957031-.882813-42.460938-15.472657-4.070312-13.152343 5.234375-28.125 21.230469-35.3125 9.058594 6.265626 20.769531 7.21875 30.722656 2.507813zm0 0" fill="#cb8252"/><path d="m286.015625 211.863281c-5.46875 2.769531-9.601563 7.613281-11.476563 13.453125-4.46875 14.5625 7.359376 31.25 26.261719 37.320313 18.898438 6.074219 38.003907-.882813 42.460938-15.472657 4.070312-13.152343-5.234375-28.125-21.230469-35.3125-9.058594 6.265626-20.769531 7.21875-30.722656 2.507813zm0 0" fill="#cb8252"/><path d="m273.65625 300.136719c0 9.75-7.90625 17.65625-17.65625 17.65625s-17.65625-7.90625-17.65625-17.65625c0-9.710938 7.902344-26.480469 17.65625-26.480469s17.65625 16.769531 17.65625 26.480469zm0 0" fill="#cb8252"/><path d="m247.171875 361.929688v25.777343c.015625.152344-.015625.304688-.085937.441407-4.855469-.175782-11.210938-.527344-17.570313-1.234376v-24.984374c0-4.875 3.953125-8.828126 8.828125-8.828126s8.828125 3.953126 8.828125 8.828126zm0 0" fill="#cb8252"/><path d="m282.484375 361.929688v24.984374c-6.445313.707032-12.714844 1.058594-17.570313 1.324219-.070312-.167969-.101562-.347656-.085937-.53125v-25.777343c0-4.875 3.953125-8.828126 8.828125-8.828126s8.828125 3.953126 8.828125 8.828126zm0 0" fill="#cb8252"/></svg>