<svg height="511pt" viewBox="0 -61 511.99153 511" width="511pt" xmlns="http://www.w3.org/2000/svg"><path d="m255.996094 331.167969h-40.464844c-202.957031-.355469-157.097656-140.175781-154.800781-157.035157 47.035156 59.46875 119.007812 93.742188 194.824219 92.777344h.882812c74.972656.933594 146.230469-32.578125 193.324219-90.921875 2.207031 21.800781 2.824219 154.824219-193.765625 155.179688zm0 0" fill="#35495e"/><path d="m464.238281 386.964844c-2.617187 2.140625-6.238281 2.554687-9.269531 1.058594-17.035156-7.941407-79.710938-32.835938-198.53125-32.835938h-.882812c-118.820313 0-181.496094 24.894531-198.53125 32.835938-3.03125 1.496093-6.65625 1.082031-9.269532-1.058594-71.503906-58.789063-46.699218-172.3125-27.367187-221.570313 2.398437-5.996093 7.871093-10.214843 14.285156-11.003906 6.410156-.789063 12.742187 1.972656 16.523437 7.207031 2.824219 3.882813 5.914063 8.121094 9.535157 12.535156-2.296875 16.859376-9.09375 126.144532 193.851562 126.5h.972657c196.589843-.355468 196.414062-102.84375 194.207031-124.644531 4.148437-5.121093 7.855469-9.886719 11.035156-14.390625 3.78125-5.234375 10.113281-7.996094 16.523437-7.207031 6.410157.789063 11.882813 5.007813 14.285157 11.003906 19.332031 49.257813 44.136719 162.78125-27.367188 221.570313zm0 0" fill="#2c3e50"/><path d="m69.894531 353.597656c-1.910156 0-3.769531-.621094-5.296875-1.765625-38.445312-28.796875-38.886718-84.160156-38.886718-86.511719 0-4.875 3.953124-8.824218 8.828124-8.824218s8.828126 3.949218 8.828126 8.824218c0 .488282.511718 48.941407 31.832031 72.386719 3.039062 2.28125 4.277343 6.25 3.078125 9.855469-1.203125 3.605469-4.578125 6.035156-8.375 6.035156zm0 0" fill="#547580"/><path d="m441.269531 353.597656c-3.800781 0-7.171875-2.429687-8.375-6.035156s.039063-7.574219 3.078125-9.855469c31.46875-23.570312 31.832032-71.898437 31.832032-72.386719 0-4.875 3.953124-8.824218 8.828124-8.824218s8.828126 3.949218 8.828126 8.824218c0 2.351563-.449219 57.714844-38.914063 86.511719-1.519531 1.148438-3.371094 1.765625-5.277344 1.765625zm0 0" fill="#547580"/><path d="m411.644531 165.332031c-40.367187 43.074219-97.039062 67.117188-156.0625 66.207031-58.988281.773438-115.539062-23.492187-155.613281-66.78125 31.910156-34.144531 89.917969-99.769531 102.558594-137.964843 17.65625-53.425781 53.054687-8.910157 53.054687-8.910157s35.371094-44.515624 53.050781 8.910157c12.730469 38.460937 71.179688 104.527343 103.011719 138.539062zm0 0" fill="#35495e"/><g fill="#e4c05c"><path d="m217.558594 142.53125c-1.234375-.015625-2.457032-.285156-3.582032-.796875l-41.550781-18.449219c-2.925781-1.25-4.949219-3.980468-5.300781-7.140625-.351562-3.164062 1.027344-6.269531 3.605469-8.132812 2.582031-1.859375 5.960937-2.191407 8.855469-.863281l41.558593 18.449218c3.8125 1.691406 5.917969 5.820313 5.054688 9.902344-.867188 4.078125-4.46875 6.996094-8.640625 6.996094zm0 0"/><path d="m176.007812 185.875c-4.175781.003906-7.785156-2.917969-8.648437-7.003906-.863281-4.085938 1.253906-8.21875 5.074219-9.902344l51.015625-22.597656c4.457031-1.976563 9.671875.039062 11.648437 4.496094 1.972656 4.460937-.039062 9.675781-4.5 11.648437l-51.023437 22.597656c-1.121094.503907-2.335938.761719-3.566407.761719zm0 0"/><path d="m293.609375 142.53125c-4.171875.003906-7.777344-2.910156-8.644531-6.992188-.867188-4.082031 1.238281-8.210937 5.050781-9.90625l41.5625-18.449218c4.457031-1.980469 9.671875.027344 11.652344 4.484375s-.027344 9.675781-4.484375 11.652343l-41.5625 18.414063c-1.121094.511719-2.339844.78125-3.574219.796875zm0 0"/><path d="m335.152344 185.875c-1.21875-.003906-2.421875-.261719-3.53125-.761719l-51.015625-22.597656c-2.910157-1.257813-4.921875-3.980469-5.269531-7.132813-.347657-3.152343 1.023437-6.25 3.589843-8.113281 2.566407-1.863281 5.933594-2.207031 8.824219-.898437l51.023438 22.597656c3.828124 1.6875 5.945312 5.832031 5.070312 9.925781-.878906 4.09375-4.507812 7.007813-8.691406 6.980469zm0 0"/></g><path d="m299.78125 102.011719c-.007812 1.503906-.09375 3.007812-.265625 4.5-.386719 5.9375-1.363281 11.824219-2.914063 17.570312-6.621093 25.15625-22.507812 52.964844-41.046874 52.964844-18.539063 0-34.429688-27.808594-41.046876-52.964844-1.550781-5.746093-2.527343-11.632812-2.914062-17.570312-.171875-1.492188-.261719-2.996094-.265625-4.5-1.125-25.59375 18.636719-47.289063 44.226563-48.550781 25.601562 1.234374 45.378906 22.945312 44.226562 48.550781zm0 0" fill="#f9eab0"/><path d="m246.726562 115.253906c0 4.875-3.953124 8.828125-8.828124 8.828125h-23.390626c-1.550781-5.746093-2.527343-11.632812-2.914062-17.570312.375-.074219.761719-.105469 1.148438-.085938h25.15625c4.875 0 8.828124 3.953125 8.828124 8.828125zm0 0" fill="#b19046"/><path d="m299.515625 106.511719c-.386719 5.9375-1.363281 11.824219-2.914063 17.570312h-23.304687c-4.875 0-8.828125-3.953125-8.828125-8.828125s3.953125-8.828125 8.828125-8.828125h25.160156c.355469-.015625.710938.015625 1.058594.085938zm0 0" fill="#b19046"/></svg>